<?xml version="1.0" encoding="UTF-8" standalone="no"?>
<!DOCTYPE svg PUBLIC "-//W3C//DTD SVG 1.1//EN"
 "http://www.w3.org/Graphics/SVG/1.1/DTD/svg11.dtd">
<!-- Generated by graphviz version 2.47.0 (20210316.0004)
 -->
<!-- Title: dependencies Pages: 1 -->
<svg width="1479pt" height="284pt"
 viewBox="0.00 0.00 1479.00 284.00" xmlns="http://www.w3.org/2000/svg" xmlns:xlink="http://www.w3.org/1999/xlink">
<g id="graph0" class="graph" transform="scale(1 1) rotate(0) translate(4 280)">
<title>dependencies</title>
<polygon fill="white" stroke="transparent" points="-4,4 -4,-280 1475,-280 1475,4 -4,4"/>
<text text-anchor="start" x="714.51" y="-42.4" font-family="Times-12" font-weight="bold" font-size="14.00">Legend</text>
<polygon fill="#ffffb3" stroke="transparent" points="501.5,-10 501.5,-30 521.5,-30 521.5,-10 501.5,-10"/>
<text text-anchor="start" x="525.13" y="-15.4" font-family="Times-12" font-size="14.00"> &#160;Declarations</text>
<polygon fill="#8dd3c7" stroke="transparent" points="614.5,-10 614.5,-30 634.5,-30 634.5,-10 614.5,-10"/>
<text text-anchor="start" x="638.23" y="-15.4" font-family="Times-12" font-size="14.00"> &#160;Module</text>
<polygon fill="#80b1d3" stroke="transparent" points="700.5,-10 700.5,-30 720.5,-30 720.5,-10 700.5,-10"/>
<text text-anchor="start" x="724.28" y="-15.4" font-family="Times-12" font-size="14.00"> &#160;Bootstrap</text>
<polygon fill="#fdb462" stroke="transparent" points="797.5,-10 797.5,-30 817.5,-30 817.5,-10 797.5,-10"/>
<text text-anchor="start" x="821.17" y="-15.4" font-family="Times-12" font-size="14.00"> &#160;Providers</text>
<polygon fill="#fb8072" stroke="transparent" points="893.5,-10 893.5,-30 913.5,-30 913.5,-10 893.5,-10"/>
<text text-anchor="start" x="917.23" y="-15.4" font-family="Times-12" font-size="14.00"> &#160;Exports</text>
<g id="clust1" class="cluster">
<title>cluster_ProductsModule</title>
<polygon fill="none" stroke="black" stroke-dasharray="1,5" points="8,-70 8,-268 1463,-268 1463,-70 8,-70"/>
</g>
<g id="clust4" class="cluster">
<title>cluster_ProductsModule_exports</title>
<polygon fill="none" stroke="black" points="604,-208 604,-260 730,-260 730,-208 604,-208"/>
</g>
<g id="clust6" class="cluster">
<title>cluster_ProductsModule_providers</title>
<polygon fill="none" stroke="black" points="160,-78 160,-130 1455,-130 1455,-78 160,-78"/>
</g>
<g id="clust3" class="cluster">
<title>cluster_ProductsModule_imports</title>
<polygon fill="none" stroke="black" points="16,-78 16,-130 152,-130 152,-78 16,-78"/>
</g>
<!-- PaginationModule -->
<g id="node1" class="node">
<title>PaginationModule</title>
<polygon fill="#8dd3c7" stroke="black" points="143.93,-122 140.93,-126 119.93,-126 116.93,-122 24.07,-122 24.07,-86 143.93,-86 143.93,-122"/>
<text text-anchor="middle" x="84" y="-99.8" font-family="Times,serif" font-size="14.00">PaginationModule</text>
</g>
<!-- ProductsModule -->
<g id="node2" class="node">
<title>ProductsModule</title>
<polygon fill="#8dd3c7" stroke="black" points="721.04,-187 718.04,-191 697.04,-191 694.04,-187 612.96,-187 612.96,-151 721.04,-151 721.04,-187"/>
<text text-anchor="middle" x="667" y="-164.8" font-family="Times,serif" font-size="14.00">ProductsModule</text>
</g>
<!-- PaginationModule&#45;&gt;ProductsModule -->
<g id="edge1" class="edge">
<title>PaginationModule&#45;&gt;ProductsModule</title>
<path fill="none" stroke="black" d="M84,-122.29C84,-144.21 84,-178 84,-178 84,-178 602.94,-178 602.94,-178"/>
<polygon fill="black" stroke="black" points="602.94,-181.5 612.94,-178 602.94,-174.5 602.94,-181.5"/>
</g>
<!-- ProductsService  -->
<g id="node3" class="node">
<title>ProductsService </title>
<polygon fill="#fb8072" stroke="black" points="722.47,-252 611.53,-252 611.53,-216 722.47,-216 722.47,-252"/>
<text text-anchor="middle" x="667" y="-229.8" font-family="Times,serif" font-size="14.00">ProductsService </text>
</g>
<!-- ProductsModule&#45;&gt;ProductsService  -->
<g id="edge2" class="edge">
<title>ProductsModule&#45;&gt;ProductsService </title>
<path fill="none" stroke="black" stroke-dasharray="5,2" d="M667,-187.11C667,-187.11 667,-205.99 667,-205.99"/>
<polygon fill="black" stroke="black" points="663.5,-205.99 667,-215.99 670.5,-205.99 663.5,-205.99"/>
</g>
<!-- CreateProductProvider -->
<g id="node4" class="node">
<title>CreateProductProvider</title>
<ellipse fill="#fdb462" stroke="black" cx="1347" cy="-104" rx="99.56" ry="18"/>
<text text-anchor="middle" x="1347" y="-99.8" font-family="Times,serif" font-size="14.00">CreateProductProvider</text>
</g>
<!-- CreateProductProvider&#45;&gt;ProductsModule -->
<g id="edge3" class="edge">
<title>CreateProductProvider&#45;&gt;ProductsModule</title>
<path fill="none" stroke="black" d="M1347,-122.29C1347,-144.21 1347,-178 1347,-178 1347,-178 731.21,-178 731.21,-178"/>
<polygon fill="black" stroke="black" points="731.21,-174.5 721.21,-178 731.21,-181.5 731.21,-174.5"/>
</g>
<!-- DeleteProductProvider -->
<g id="node5" class="node">
<title>DeleteProductProvider</title>
<ellipse fill="#fdb462" stroke="black" cx="1130" cy="-104" rx="99.56" ry="18"/>
<text text-anchor="middle" x="1130" y="-99.8" font-family="Times,serif" font-size="14.00">DeleteProductProvider</text>
</g>
<!-- DeleteProductProvider&#45;&gt;ProductsModule -->
<g id="edge4" class="edge">
<title>DeleteProductProvider&#45;&gt;ProductsModule</title>
<path fill="none" stroke="black" d="M1130,-122.11C1130,-141.34 1130,-169 1130,-169 1130,-169 731.47,-169 731.47,-169"/>
<polygon fill="black" stroke="black" points="731.47,-165.5 721.47,-169 731.47,-172.5 731.47,-165.5"/>
</g>
<!-- FindAllProductsProvider -->
<g id="node6" class="node">
<title>FindAllProductsProvider</title>
<ellipse fill="#fdb462" stroke="black" cx="904" cy="-104" rx="108.26" ry="18"/>
<text text-anchor="middle" x="904" y="-99.8" font-family="Times,serif" font-size="14.00">FindAllProductsProvider</text>
</g>
<!-- FindAllProductsProvider&#45;&gt;ProductsModule -->
<g id="edge5" class="edge">
<title>FindAllProductsProvider&#45;&gt;ProductsModule</title>
<path fill="none" stroke="black" d="M904,-122.03C904,-138.4 904,-160 904,-160 904,-160 731.08,-160 731.08,-160"/>
<polygon fill="black" stroke="black" points="731.08,-156.5 721.08,-160 731.08,-163.5 731.08,-156.5"/>
</g>
<!-- FindProductByIdProvider -->
<g id="node7" class="node">
<title>FindProductByIdProvider</title>
<ellipse fill="#fdb462" stroke="black" cx="667" cy="-104" rx="111.2" ry="18"/>
<text text-anchor="middle" x="667" y="-99.8" font-family="Times,serif" font-size="14.00">FindProductByIdProvider</text>
</g>
<!-- FindProductByIdProvider&#45;&gt;ProductsModule -->
<g id="edge6" class="edge">
<title>FindProductByIdProvider&#45;&gt;ProductsModule</title>
<path fill="none" stroke="black" d="M667,-122.11C667,-122.11 667,-140.99 667,-140.99"/>
<polygon fill="black" stroke="black" points="663.5,-140.99 667,-150.99 670.5,-140.99 663.5,-140.99"/>
</g>
<!-- ProductsService -->
<g id="node8" class="node">
<title>ProductsService</title>
<ellipse fill="#fdb462" stroke="black" cx="464" cy="-104" rx="73.57" ry="18"/>
<text text-anchor="middle" x="464" y="-99.8" font-family="Times,serif" font-size="14.00">ProductsService</text>
</g>
<!-- ProductsService&#45;&gt;ProductsModule -->
<g id="edge7" class="edge">
<title>ProductsService&#45;&gt;ProductsModule</title>
<path fill="none" stroke="black" d="M464,-122.03C464,-138.4 464,-160 464,-160 464,-160 602.87,-160 602.87,-160"/>
<polygon fill="black" stroke="black" points="602.87,-163.5 612.87,-160 602.87,-156.5 602.87,-163.5"/>
</g>
<!-- UpdateProductProvider -->
<g id="node9" class="node">
<title>UpdateProductProvider</title>
<ellipse fill="#fdb462" stroke="black" cx="270" cy="-104" rx="102.43" ry="18"/>
<text text-anchor="middle" x="270" y="-99.8" font-family="Times,serif" font-size="14.00">UpdateProductProvider</text>
</g>
<!-- UpdateProductProvider&#45;&gt;ProductsModule -->
<g id="edge8" class="edge">
<title>UpdateProductProvider&#45;&gt;ProductsModule</title>
<path fill="none" stroke="black" d="M270,-122.11C270,-141.34 270,-169 270,-169 270,-169 602.63,-169 602.63,-169"/>
<polygon fill="black" stroke="black" points="602.63,-172.5 612.63,-169 602.63,-165.5 602.63,-172.5"/>
</g>
</g>
</svg>
