<?xml version="1.0" encoding="UTF-8" standalone="no"?>
<!DOCTYPE svg PUBLIC "-//W3C//DTD SVG 1.1//EN"
 "http://www.w3.org/Graphics/SVG/1.1/DTD/svg11.dtd">
<!-- Generated by graphviz version 2.47.0 (20210316.0004)
 -->
<!-- Title: dependencies Pages: 1 -->
<svg width="1479pt" height="284pt"
 viewBox="0.00 0.00 1479.00 284.00" xmlns="http://www.w3.org/2000/svg" xmlns:xlink="http://www.w3.org/1999/xlink">
<g id="graph0" class="graph" transform="scale(1 1) rotate(0) translate(4 280)">
<title>dependencies</title>
<polygon fill="white" stroke="transparent" points="-4,4 -4,-280 1475,-280 1475,4 -4,4"/>
<text text-anchor="start" x="714.51" y="-42.4" font-family="Times-12" font-weight="bold" font-size="14.00">Legend</text>
<polygon fill="#ffffb3" stroke="transparent" points="501.5,-10 501.5,-30 521.5,-30 521.5,-10 501.5,-10"/>
<text text-anchor="start" x="525.13" y="-15.4" font-family="Times-12" font-size="14.00"> &#160;Declarations</text>
<polygon fill="#8dd3c7" stroke="transparent" points="614.5,-10 614.5,-30 634.5,-30 634.5,-10 614.5,-10"/>
<text text-anchor="start" x="638.23" y="-15.4" font-family="Times-12" font-size="14.00"> &#160;Module</text>
<polygon fill="#80b1d3" stroke="transparent" points="700.5,-10 700.5,-30 720.5,-30 720.5,-10 700.5,-10"/>
<text text-anchor="start" x="724.28" y="-15.4" font-family="Times-12" font-size="14.00"> &#160;Bootstrap</text>
<polygon fill="#fdb462" stroke="transparent" points="797.5,-10 797.5,-30 817.5,-30 817.5,-10 797.5,-10"/>
<text text-anchor="start" x="821.17" y="-15.4" font-family="Times-12" font-size="14.00"> &#160;Providers</text>
<polygon fill="#fb8072" stroke="transparent" points="893.5,-10 893.5,-30 913.5,-30 913.5,-10 893.5,-10"/>
<text text-anchor="start" x="917.23" y="-15.4" font-family="Times-12" font-size="14.00"> &#160;Exports</text>
<g id="clust1" class="cluster">
<title>cluster_ProductsModule</title>
<polygon fill="none" stroke="black" stroke-dasharray="1,5" points="8,-70 8,-268 1463,-268 1463,-70 8,-70"/>
</g>
<g id="clust3" class="cluster">
<title>cluster_ProductsModule_imports</title>
<polygon fill="none" stroke="black" points="1319,-78 1319,-130 1455,-130 1455,-78 1319,-78"/>
</g>
<g id="clust4" class="cluster">
<title>cluster_ProductsModule_exports</title>
<polygon fill="none" stroke="black" points="697,-208 697,-260 823,-260 823,-208 697,-208"/>
</g>
<g id="clust6" class="cluster">
<title>cluster_ProductsModule_providers</title>
<polygon fill="none" stroke="black" points="16,-78 16,-130 1311,-130 1311,-78 16,-78"/>
</g>
<!-- PaginationModule -->
<g id="node1" class="node">
<title>PaginationModule</title>
<polygon fill="#8dd3c7" stroke="black" points="1446.93,-122 1443.93,-126 1422.93,-126 1419.93,-122 1327.07,-122 1327.07,-86 1446.93,-86 1446.93,-122"/>
<text text-anchor="middle" x="1387" y="-99.8" font-family="Times,serif" font-size="14.00">PaginationModule</text>
</g>
<!-- ProductsModule -->
<g id="node2" class="node">
<title>ProductsModule</title>
<polygon fill="#8dd3c7" stroke="black" points="814.04,-187 811.04,-191 790.04,-191 787.04,-187 705.96,-187 705.96,-151 814.04,-151 814.04,-187"/>
<text text-anchor="middle" x="760" y="-164.8" font-family="Times,serif" font-size="14.00">ProductsModule</text>
</g>
<!-- PaginationModule&#45;&gt;ProductsModule -->
<g id="edge1" class="edge">
<title>PaginationModule&#45;&gt;ProductsModule</title>
<path fill="none" stroke="black" d="M1387,-122.29C1387,-144.21 1387,-178 1387,-178 1387,-178 824.27,-178 824.27,-178"/>
<polygon fill="black" stroke="black" points="824.27,-174.5 814.27,-178 824.27,-181.5 824.27,-174.5"/>
</g>
<!-- ProductsService  -->
<g id="node3" class="node">
<title>ProductsService </title>
<polygon fill="#fb8072" stroke="black" points="815.47,-252 704.53,-252 704.53,-216 815.47,-216 815.47,-252"/>
<text text-anchor="middle" x="760" y="-229.8" font-family="Times,serif" font-size="14.00">ProductsService </text>
</g>
<!-- ProductsModule&#45;&gt;ProductsService  -->
<g id="edge2" class="edge">
<title>ProductsModule&#45;&gt;ProductsService </title>
<path fill="none" stroke="black" stroke-dasharray="5,2" d="M760,-187.11C760,-187.11 760,-205.99 760,-205.99"/>
<polygon fill="black" stroke="black" points="756.5,-205.99 760,-215.99 763.5,-205.99 756.5,-205.99"/>
</g>
<!-- CreateProductProvider -->
<g id="node4" class="node">
<title>CreateProductProvider</title>
<ellipse fill="#fdb462" stroke="black" cx="1203" cy="-104" rx="99.56" ry="18"/>
<text text-anchor="middle" x="1203" y="-99.8" font-family="Times,serif" font-size="14.00">CreateProductProvider</text>
</g>
<!-- CreateProductProvider&#45;&gt;ProductsModule -->
<g id="edge3" class="edge">
<title>CreateProductProvider&#45;&gt;ProductsModule</title>
<path fill="none" stroke="black" d="M1203,-122.11C1203,-141.34 1203,-169 1203,-169 1203,-169 824.32,-169 824.32,-169"/>
<polygon fill="black" stroke="black" points="824.32,-165.5 814.32,-169 824.32,-172.5 824.32,-165.5"/>
</g>
<!-- DeleteProductProvider -->
<g id="node5" class="node">
<title>DeleteProductProvider</title>
<ellipse fill="#fdb462" stroke="black" cx="986" cy="-104" rx="99.56" ry="18"/>
<text text-anchor="middle" x="986" y="-99.8" font-family="Times,serif" font-size="14.00">DeleteProductProvider</text>
</g>
<!-- DeleteProductProvider&#45;&gt;ProductsModule -->
<g id="edge4" class="edge">
<title>DeleteProductProvider&#45;&gt;ProductsModule</title>
<path fill="none" stroke="black" d="M986,-122.03C986,-138.4 986,-160 986,-160 986,-160 824.13,-160 824.13,-160"/>
<polygon fill="black" stroke="black" points="824.13,-156.5 814.13,-160 824.13,-163.5 824.13,-156.5"/>
</g>
<!-- FindAllProductsProvider -->
<g id="node6" class="node">
<title>FindAllProductsProvider</title>
<ellipse fill="#fdb462" stroke="black" cx="760" cy="-104" rx="108.26" ry="18"/>
<text text-anchor="middle" x="760" y="-99.8" font-family="Times,serif" font-size="14.00">FindAllProductsProvider</text>
</g>
<!-- FindAllProductsProvider&#45;&gt;ProductsModule -->
<g id="edge5" class="edge">
<title>FindAllProductsProvider&#45;&gt;ProductsModule</title>
<path fill="none" stroke="black" d="M760,-122.11C760,-122.11 760,-140.99 760,-140.99"/>
<polygon fill="black" stroke="black" points="756.5,-140.99 760,-150.99 763.5,-140.99 756.5,-140.99"/>
</g>
<!-- FindProductByIdProvider -->
<g id="node7" class="node">
<title>FindProductByIdProvider</title>
<ellipse fill="#fdb462" stroke="black" cx="523" cy="-104" rx="111.2" ry="18"/>
<text text-anchor="middle" x="523" y="-99.8" font-family="Times,serif" font-size="14.00">FindProductByIdProvider</text>
</g>
<!-- FindProductByIdProvider&#45;&gt;ProductsModule -->
<g id="edge6" class="edge">
<title>FindProductByIdProvider&#45;&gt;ProductsModule</title>
<path fill="none" stroke="black" d="M523,-122.03C523,-138.4 523,-160 523,-160 523,-160 695.92,-160 695.92,-160"/>
<polygon fill="black" stroke="black" points="695.92,-163.5 705.92,-160 695.92,-156.5 695.92,-163.5"/>
</g>
<!-- ProductsService -->
<g id="node8" class="node">
<title>ProductsService</title>
<ellipse fill="#fdb462" stroke="black" cx="320" cy="-104" rx="73.57" ry="18"/>
<text text-anchor="middle" x="320" y="-99.8" font-family="Times,serif" font-size="14.00">ProductsService</text>
</g>
<!-- ProductsService&#45;&gt;ProductsModule -->
<g id="edge7" class="edge">
<title>ProductsService&#45;&gt;ProductsModule</title>
<path fill="none" stroke="black" d="M320,-122.11C320,-141.34 320,-169 320,-169 320,-169 695.61,-169 695.61,-169"/>
<polygon fill="black" stroke="black" points="695.61,-172.5 705.61,-169 695.61,-165.5 695.61,-172.5"/>
</g>
<!-- UpdateProductProvider -->
<g id="node9" class="node">
<title>UpdateProductProvider</title>
<ellipse fill="#fdb462" stroke="black" cx="126" cy="-104" rx="102.43" ry="18"/>
<text text-anchor="middle" x="126" y="-99.8" font-family="Times,serif" font-size="14.00">UpdateProductProvider</text>
</g>
<!-- UpdateProductProvider&#45;&gt;ProductsModule -->
<g id="edge8" class="edge">
<title>UpdateProductProvider&#45;&gt;ProductsModule</title>
<path fill="none" stroke="black" d="M126,-122.29C126,-144.21 126,-178 126,-178 126,-178 695.95,-178 695.95,-178"/>
<polygon fill="black" stroke="black" points="695.95,-181.5 705.95,-178 695.95,-174.5 695.95,-181.5"/>
</g>
</g>
</svg>
