<?xml version="1.0" encoding="UTF-8" standalone="no"?>
<!DOCTYPE svg PUBLIC "-//W3C//DTD SVG 1.1//EN"
 "http://www.w3.org/Graphics/SVG/1.1/DTD/svg11.dtd">
<!-- Generated by graphviz version 2.47.0 (20210316.0004)
 -->
<!-- Title: dependencies Pages: 1 -->
<svg width="566pt" height="284pt"
 viewBox="0.00 0.00 566.00 284.00" xmlns="http://www.w3.org/2000/svg" xmlns:xlink="http://www.w3.org/1999/xlink">
<g id="graph0" class="graph" transform="scale(1 1) rotate(0) translate(4 280)">
<title>dependencies</title>
<polygon fill="white" stroke="transparent" points="-4,4 -4,-280 562,-280 562,4 -4,4"/>
<text text-anchor="start" x="258.01" y="-42.4" font-family="Times-12" font-weight="bold" font-size="14.00">Legend</text>
<polygon fill="#ffffb3" stroke="transparent" points="45,-10 45,-30 65,-30 65,-10 45,-10"/>
<text text-anchor="start" x="68.63" y="-15.4" font-family="Times-12" font-size="14.00"> &#160;Declarations</text>
<polygon fill="#8dd3c7" stroke="transparent" points="158,-10 158,-30 178,-30 178,-10 158,-10"/>
<text text-anchor="start" x="181.73" y="-15.4" font-family="Times-12" font-size="14.00"> &#160;Module</text>
<polygon fill="#80b1d3" stroke="transparent" points="244,-10 244,-30 264,-30 264,-10 244,-10"/>
<text text-anchor="start" x="267.78" y="-15.4" font-family="Times-12" font-size="14.00"> &#160;Bootstrap</text>
<polygon fill="#fdb462" stroke="transparent" points="341,-10 341,-30 361,-30 361,-10 341,-10"/>
<text text-anchor="start" x="364.67" y="-15.4" font-family="Times-12" font-size="14.00"> &#160;Providers</text>
<polygon fill="#fb8072" stroke="transparent" points="437,-10 437,-30 457,-30 457,-10 437,-10"/>
<text text-anchor="start" x="460.73" y="-15.4" font-family="Times-12" font-size="14.00"> &#160;Exports</text>
<g id="clust1" class="cluster">
<title>cluster_AuthModule</title>
<polygon fill="none" stroke="black" stroke-dasharray="1,5" points="8,-70 8,-268 550,-268 550,-70 8,-70"/>
</g>
<g id="clust6" class="cluster">
<title>cluster_AuthModule_providers</title>
<polygon fill="none" stroke="black" points="16,-78 16,-130 542,-130 542,-78 16,-78"/>
</g>
<g id="clust4" class="cluster">
<title>cluster_AuthModule_exports</title>
<polygon fill="none" stroke="black" points="225,-208 225,-260 355,-260 355,-208 225,-208"/>
</g>
<!-- HashingProvider  -->
<g id="node1" class="node">
<title>HashingProvider </title>
<polygon fill="#fb8072" stroke="black" points="347.37,-252 232.63,-252 232.63,-216 347.37,-216 347.37,-252"/>
<text text-anchor="middle" x="290" y="-229.8" font-family="Times,serif" font-size="14.00">HashingProvider </text>
</g>
<!-- AuthModule -->
<g id="node2" class="node">
<title>AuthModule</title>
<polygon fill="#8dd3c7" stroke="black" points="333.55,-187 330.55,-191 309.55,-191 306.55,-187 246.45,-187 246.45,-151 333.55,-151 333.55,-187"/>
<text text-anchor="middle" x="290" y="-164.8" font-family="Times,serif" font-size="14.00">AuthModule</text>
</g>
<!-- AuthModule&#45;&gt;HashingProvider  -->
<g id="edge1" class="edge">
<title>AuthModule&#45;&gt;HashingProvider </title>
<path fill="none" stroke="black" stroke-dasharray="5,2" d="M290,-187.11C290,-187.11 290,-205.99 290,-205.99"/>
<polygon fill="black" stroke="black" points="286.5,-205.99 290,-215.99 293.5,-205.99 286.5,-205.99"/>
</g>
<!-- AuthService -->
<g id="node3" class="node">
<title>AuthService</title>
<ellipse fill="#fdb462" stroke="black" cx="475" cy="-104" rx="59.11" ry="18"/>
<text text-anchor="middle" x="475" y="-99.8" font-family="Times,serif" font-size="14.00">AuthService</text>
</g>
<!-- AuthService&#45;&gt;AuthModule -->
<g id="edge2" class="edge">
<title>AuthService&#45;&gt;AuthModule</title>
<path fill="none" stroke="black" d="M475,-122.11C475,-141.34 475,-169 475,-169 475,-169 343.84,-169 343.84,-169"/>
<polygon fill="black" stroke="black" points="343.84,-165.5 333.84,-169 343.84,-172.5 343.84,-165.5"/>
</g>
<!-- GenerateTokensProvider -->
<g id="node4" class="node">
<title>GenerateTokensProvider</title>
<ellipse fill="#fdb462" stroke="black" cx="290" cy="-104" rx="107.63" ry="18"/>
<text text-anchor="middle" x="290" y="-99.8" font-family="Times,serif" font-size="14.00">GenerateTokensProvider</text>
</g>
<!-- GenerateTokensProvider&#45;&gt;AuthModule -->
<g id="edge3" class="edge">
<title>GenerateTokensProvider&#45;&gt;AuthModule</title>
<path fill="none" stroke="black" d="M290,-122.11C290,-122.11 290,-140.99 290,-140.99"/>
<polygon fill="black" stroke="black" points="286.5,-140.99 290,-150.99 293.5,-140.99 286.5,-140.99"/>
</g>
<!-- SignInProvider -->
<g id="node5" class="node">
<title>SignInProvider</title>
<ellipse fill="#fdb462" stroke="black" cx="94" cy="-104" rx="70.08" ry="18"/>
<text text-anchor="middle" x="94" y="-99.8" font-family="Times,serif" font-size="14.00">SignInProvider</text>
</g>
<!-- SignInProvider&#45;&gt;AuthModule -->
<g id="edge4" class="edge">
<title>SignInProvider&#45;&gt;AuthModule</title>
<path fill="none" stroke="black" d="M94,-122.11C94,-141.34 94,-169 94,-169 94,-169 236.01,-169 236.01,-169"/>
<polygon fill="black" stroke="black" points="236.01,-172.5 246.01,-169 236.01,-165.5 236.01,-172.5"/>
</g>
</g>
</svg>
