<?xml version="1.0" encoding="UTF-8" standalone="no"?>
<!DOCTYPE svg PUBLIC "-//W3C//DTD SVG 1.1//EN"
 "http://www.w3.org/Graphics/SVG/1.1/DTD/svg11.dtd">
<!-- Generated by graphviz version 2.47.0 (20210316.0004)
 -->
<!-- Title: dependencies Pages: 1 -->
<svg width="4271pt" height="507pt"
 viewBox="0.00 0.00 4271.00 507.00" xmlns="http://www.w3.org/2000/svg" xmlns:xlink="http://www.w3.org/1999/xlink">
<g id="graph0" class="graph" transform="scale(1 1) rotate(0) translate(4 503)">
<title>dependencies</title>
<polygon fill="white" stroke="transparent" points="-4,4 -4,-503 4267,-503 4267,4 -4,4"/>
<text text-anchor="start" x="2110.51" y="-42.4" font-family="Times-12" font-weight="bold" font-size="14.00">Legend</text>
<polygon fill="#ffffb3" stroke="transparent" points="1897.5,-10 1897.5,-30 1917.5,-30 1917.5,-10 1897.5,-10"/>
<text text-anchor="start" x="1921.13" y="-15.4" font-family="Times-12" font-size="14.00"> &#160;Declarations</text>
<polygon fill="#8dd3c7" stroke="transparent" points="2010.5,-10 2010.5,-30 2030.5,-30 2030.5,-10 2010.5,-10"/>
<text text-anchor="start" x="2034.23" y="-15.4" font-family="Times-12" font-size="14.00"> &#160;Module</text>
<polygon fill="#80b1d3" stroke="transparent" points="2096.5,-10 2096.5,-30 2116.5,-30 2116.5,-10 2096.5,-10"/>
<text text-anchor="start" x="2120.28" y="-15.4" font-family="Times-12" font-size="14.00"> &#160;Bootstrap</text>
<polygon fill="#fdb462" stroke="transparent" points="2193.5,-10 2193.5,-30 2213.5,-30 2213.5,-10 2193.5,-10"/>
<text text-anchor="start" x="2217.17" y="-15.4" font-family="Times-12" font-size="14.00"> &#160;Providers</text>
<polygon fill="#fb8072" stroke="transparent" points="2289.5,-10 2289.5,-30 2309.5,-30 2309.5,-10 2289.5,-10"/>
<text text-anchor="start" x="2313.23" y="-15.4" font-family="Times-12" font-size="14.00"> &#160;Exports</text>
<g id="clust25" class="cluster">
<title>cluster_PaginationModule</title>
<polygon fill="none" stroke="black" stroke-dasharray="1,5" points="3575,-70 3575,-282 3779,-282 3779,-70 3575,-70"/>
</g>
<g id="clust28" class="cluster">
<title>cluster_PaginationModule_exports</title>
<polygon fill="none" stroke="black" points="3594,-222 3594,-274 3738,-274 3738,-222 3594,-222"/>
</g>
<g id="clust30" class="cluster">
<title>cluster_PaginationModule_providers</title>
<polygon fill="none" stroke="black" points="3583,-78 3583,-130 3771,-130 3771,-78 3583,-78"/>
</g>
<g id="clust31" class="cluster">
<title>cluster_ProductsModule</title>
<polygon fill="none" stroke="black" stroke-dasharray="1,5" points="2256,-138 2256,-358 3567,-358 3567,-138 2256,-138"/>
</g>
<g id="clust34" class="cluster">
<title>cluster_ProductsModule_exports</title>
<polygon fill="none" stroke="black" points="2945,-298 2945,-350 3071,-350 3071,-298 2945,-298"/>
</g>
<g id="clust36" class="cluster">
<title>cluster_ProductsModule_providers</title>
<polygon fill="none" stroke="black" points="2264,-146 2264,-198 3559,-198 3559,-146 2264,-146"/>
</g>
<g id="clust13" class="cluster">
<title>cluster_CartModule</title>
<polygon fill="none" stroke="black" stroke-dasharray="1,5" points="436,-214 436,-434 1366,-434 1366,-214 436,-214"/>
</g>
<g id="clust16" class="cluster">
<title>cluster_CartModule_exports</title>
<polygon fill="none" stroke="black" points="1119,-374 1119,-426 1221,-426 1221,-374 1119,-374"/>
</g>
<g id="clust18" class="cluster">
<title>cluster_CartModule_providers</title>
<polygon fill="none" stroke="black" points="637,-222 637,-274 1358,-274 1358,-222 637,-222"/>
</g>
<g id="clust15" class="cluster">
<title>cluster_CartModule_imports</title>
<polygon fill="none" stroke="black" points="444,-222 444,-274 629,-274 629,-222 444,-222"/>
</g>
<g id="clust1" class="cluster">
<title>cluster_AppModule</title>
<polygon fill="none" stroke="black" stroke-dasharray="1,5" points="1954,-366 1954,-491 2328,-491 2328,-366 1954,-366"/>
</g>
<g id="clust6" class="cluster">
<title>cluster_AppModule_providers</title>
<polygon fill="none" stroke="black" points="2190,-374 2190,-426 2320,-426 2320,-374 2190,-374"/>
</g>
<g id="clust3" class="cluster">
<title>cluster_AppModule_imports</title>
<polygon fill="none" stroke="black" points="1962,-374 1962,-426 2182,-426 2182,-374 1962,-374"/>
</g>
<g id="clust19" class="cluster">
<title>cluster_OrdersModule</title>
<polygon fill="none" stroke="black" stroke-dasharray="1,5" points="1374,-290 1374,-358 2248,-358 2248,-290 1374,-290"/>
</g>
<g id="clust24" class="cluster">
<title>cluster_OrdersModule_providers</title>
<polygon fill="none" stroke="black" points="1382,-298 1382,-350 2240,-350 2240,-298 1382,-298"/>
</g>
<g id="clust37" class="cluster">
<title>cluster_UsersModule</title>
<polygon fill="none" stroke="black" stroke-dasharray="1,5" points="8,-138 8,-206 940,-206 940,-138 8,-138"/>
</g>
<g id="clust40" class="cluster">
<title>cluster_UsersModule_exports</title>
<polygon fill="none" stroke="black" points="822,-146 822,-198 932,-198 932,-146 822,-146"/>
</g>
<g id="clust42" class="cluster">
<title>cluster_UsersModule_providers</title>
<polygon fill="none" stroke="black" points="16,-146 16,-198 814,-198 814,-146 16,-146"/>
</g>
<g id="clust7" class="cluster">
<title>cluster_AuthModule</title>
<polygon fill="none" stroke="black" stroke-dasharray="1,5" points="3575,-290 3575,-358 4255,-358 4255,-290 3575,-290"/>
</g>
<g id="clust12" class="cluster">
<title>cluster_AuthModule_providers</title>
<polygon fill="none" stroke="black" points="3721,-298 3721,-350 4247,-350 4247,-298 3721,-298"/>
</g>
<g id="clust10" class="cluster">
<title>cluster_AuthModule_exports</title>
<polygon fill="none" stroke="black" points="3583,-298 3583,-350 3713,-350 3713,-298 3583,-298"/>
</g>
<!-- AuthModule -->
<g id="node1" class="node">
<title>AuthModule</title>
<polygon fill="#8dd3c7" stroke="black" points="2173.55,-418 2170.55,-422 2149.55,-422 2146.55,-418 2086.45,-418 2086.45,-382 2173.55,-382 2173.55,-418"/>
<text text-anchor="middle" x="2130" y="-395.8" font-family="Times,serif" font-size="14.00">AuthModule</text>
</g>
<!-- AppModule -->
<g id="node6" class="node">
<title>AppModule</title>
<polygon fill="#8dd3c7" stroke="black" points="2115.66,-483 2112.66,-487 2091.66,-487 2088.66,-483 2032.34,-483 2032.34,-447 2115.66,-447 2115.66,-483"/>
<text text-anchor="middle" x="2074" y="-460.8" font-family="Times,serif" font-size="14.00">AppModule</text>
</g>
<!-- AuthModule&#45;&gt;AppModule -->
<g id="edge1" class="edge">
<title>AuthModule&#45;&gt;AppModule</title>
<path fill="none" stroke="black" d="M2101.03,-418.11C2101.03,-418.11 2101.03,-436.99 2101.03,-436.99"/>
<polygon fill="black" stroke="black" points="2097.53,-436.99 2101.03,-446.99 2104.53,-436.99 2097.53,-436.99"/>
</g>
<!-- HashingProvider  -->
<g id="node8" class="node">
<title>HashingProvider </title>
<polygon fill="#fb8072" stroke="black" points="3705.37,-342 3590.63,-342 3590.63,-306 3705.37,-306 3705.37,-342"/>
<text text-anchor="middle" x="3648" y="-319.8" font-family="Times,serif" font-size="14.00">HashingProvider </text>
</g>
<!-- AuthModule&#45;&gt;HashingProvider  -->
<g id="edge7" class="edge">
<title>AuthModule&#45;&gt;HashingProvider </title>
<path fill="none" stroke="black" stroke-dasharray="5,2" d="M2156.26,-381.95C2156.26,-367.63 2156.26,-350 2156.26,-350 2156.26,-350 3648,-350 3648,-350 3648,-350 3648,-349.21 3648,-349.21"/>
<polygon fill="black" stroke="black" points="3651.5,-352.06 3648,-342.06 3644.5,-352.06 3651.5,-352.06"/>
</g>
<!-- CartModule -->
<g id="node2" class="node">
<title>CartModule</title>
<polygon fill="#8dd3c7" stroke="black" points="1140.65,-342 1137.65,-346 1116.65,-346 1113.65,-342 1057.35,-342 1057.35,-306 1140.65,-306 1140.65,-342"/>
<text text-anchor="middle" x="1099" y="-319.8" font-family="Times,serif" font-size="14.00">CartModule</text>
</g>
<!-- OrdersModule -->
<g id="node3" class="node">
<title>OrdersModule</title>
<polygon fill="#8dd3c7" stroke="black" points="2067.64,-418 2064.64,-422 2043.64,-422 2040.64,-418 1970.36,-418 1970.36,-382 2067.64,-382 2067.64,-418"/>
<text text-anchor="middle" x="2019" y="-395.8" font-family="Times,serif" font-size="14.00">OrdersModule</text>
</g>
<!-- CartModule&#45;&gt;OrdersModule -->
<g id="edge19" class="edge">
<title>CartModule&#45;&gt;OrdersModule</title>
<path fill="none" stroke="black" d="M1140.88,-333C1194.77,-333 1281.53,-333 1281.53,-333 1281.53,-333 1281.53,-409 1281.53,-409 1281.53,-409 1960.33,-409 1960.33,-409"/>
<polygon fill="black" stroke="black" points="1960.33,-412.5 1970.33,-409 1960.33,-405.5 1960.33,-412.5"/>
</g>
<!-- CartModule&#45;&gt;AppModule -->
<g id="edge2" class="edge">
<title>CartModule&#45;&gt;AppModule</title>
<path fill="none" stroke="black" d="M1092.19,-342.21C1092.19,-379.06 1092.19,-459 1092.19,-459 1092.19,-459 2022.13,-459 2022.13,-459"/>
<polygon fill="black" stroke="black" points="2022.13,-462.5 2032.13,-459 2022.13,-455.5 2022.13,-462.5"/>
</g>
<!-- CartService  -->
<g id="node13" class="node">
<title>CartService </title>
<polygon fill="#fb8072" stroke="black" points="1212.58,-418 1127.42,-418 1127.42,-382 1212.58,-382 1212.58,-418"/>
<text text-anchor="middle" x="1170" y="-395.8" font-family="Times,serif" font-size="14.00">CartService </text>
</g>
<!-- CartModule&#45;&gt;CartService  -->
<g id="edge14" class="edge">
<title>CartModule&#45;&gt;CartService </title>
<path fill="none" stroke="black" stroke-dasharray="5,2" d="M1134.02,-342.01C1134.02,-342.01 1134.02,-371.85 1134.02,-371.85"/>
<polygon fill="black" stroke="black" points="1130.52,-371.85 1134.02,-381.85 1137.52,-371.85 1130.52,-371.85"/>
</g>
<!-- OrdersModule&#45;&gt;AppModule -->
<g id="edge3" class="edge">
<title>OrdersModule&#45;&gt;AppModule</title>
<path fill="none" stroke="black" d="M2050,-418.11C2050,-418.11 2050,-436.99 2050,-436.99"/>
<polygon fill="black" stroke="black" points="2046.5,-436.99 2050,-446.99 2053.5,-436.99 2046.5,-436.99"/>
</g>
<!-- ProductsModule -->
<g id="node4" class="node">
<title>ProductsModule</title>
<polygon fill="#8dd3c7" stroke="black" points="3062.04,-266 3059.04,-270 3038.04,-270 3035.04,-266 2953.96,-266 2953.96,-230 3062.04,-230 3062.04,-266"/>
<text text-anchor="middle" x="3008" y="-243.8" font-family="Times,serif" font-size="14.00">ProductsModule</text>
</g>
<!-- ProductsModule&#45;&gt;CartModule -->
<g id="edge12" class="edge">
<title>ProductsModule&#45;&gt;CartModule</title>
<path fill="none" stroke="black" d="M2953.5,-254C2669.28,-254 1370,-254 1370,-254 1370,-254 1370,-324 1370,-324 1370,-324 1150.75,-324 1150.75,-324"/>
<polygon fill="black" stroke="black" points="1150.75,-320.5 1140.75,-324 1150.75,-327.5 1150.75,-320.5"/>
</g>
<!-- ProductsModule&#45;&gt;AppModule -->
<g id="edge4" class="edge">
<title>ProductsModule&#45;&gt;AppModule</title>
<path fill="none" stroke="black" d="M2953.66,-260C2923.14,-260 2891.11,-260 2891.11,-260 2891.11,-260 2891.11,-471 2891.11,-471 2891.11,-471 2125.93,-471 2125.93,-471"/>
<polygon fill="black" stroke="black" points="2125.93,-467.5 2115.93,-471 2125.93,-474.5 2125.93,-467.5"/>
</g>
<!-- ProductsService  -->
<g id="node25" class="node">
<title>ProductsService </title>
<polygon fill="#fb8072" stroke="black" points="3063.47,-342 2952.53,-342 2952.53,-306 3063.47,-306 3063.47,-342"/>
<text text-anchor="middle" x="3008" y="-319.8" font-family="Times,serif" font-size="14.00">ProductsService </text>
</g>
<!-- ProductsModule&#45;&gt;ProductsService  -->
<g id="edge27" class="edge">
<title>ProductsModule&#45;&gt;ProductsService </title>
<path fill="none" stroke="black" stroke-dasharray="5,2" d="M3008,-266.01C3008,-266.01 3008,-295.85 3008,-295.85"/>
<polygon fill="black" stroke="black" points="3004.5,-295.85 3008,-305.85 3011.5,-295.85 3004.5,-295.85"/>
</g>
<!-- UsersModule -->
<g id="node5" class="node">
<title>UsersModule</title>
<polygon fill="#8dd3c7" stroke="black" points="543.92,-266 540.92,-270 519.92,-270 516.92,-266 452.08,-266 452.08,-230 543.92,-230 543.92,-266"/>
<text text-anchor="middle" x="498" y="-243.8" font-family="Times,serif" font-size="14.00">UsersModule</text>
</g>
<!-- UsersModule&#45;&gt;CartModule -->
<g id="edge13" class="edge">
<title>UsersModule&#45;&gt;CartModule</title>
<path fill="none" stroke="black" d="M513.24,-266.03C513.24,-291.51 513.24,-335 513.24,-335 513.24,-335 1047.34,-335 1047.34,-335"/>
<polygon fill="black" stroke="black" points="1047.34,-338.5 1057.34,-335 1047.34,-331.5 1047.34,-338.5"/>
</g>
<!-- UsersModule&#45;&gt;AppModule -->
<g id="edge5" class="edge">
<title>UsersModule&#45;&gt;AppModule</title>
<path fill="none" stroke="black" d="M482.76,-266.25C482.76,-319.51 482.76,-471 482.76,-471 482.76,-471 2022.26,-471 2022.26,-471"/>
<polygon fill="black" stroke="black" points="2022.26,-474.5 2032.26,-471 2022.26,-467.5 2022.26,-474.5"/>
</g>
<!-- UsersService  -->
<g id="node32" class="node">
<title>UsersService </title>
<polygon fill="#fb8072" stroke="black" points="923.85,-190 830.15,-190 830.15,-154 923.85,-154 923.85,-190"/>
<text text-anchor="middle" x="877" y="-167.8" font-family="Times,serif" font-size="14.00">UsersService </text>
</g>
<!-- UsersModule&#45;&gt;UsersService  -->
<g id="edge34" class="edge">
<title>UsersModule&#45;&gt;UsersService </title>
<path fill="none" stroke="black" stroke-dasharray="5,2" d="M498,-229.97C498,-223.15 498,-217 498,-217 498,-217 843.91,-217 843.91,-217 843.91,-217 843.91,-200.04 843.91,-200.04"/>
<polygon fill="black" stroke="black" points="847.41,-200.04 843.91,-190.04 840.41,-200.04 847.41,-200.04"/>
</g>
<!-- AppService -->
<g id="node7" class="node">
<title>AppService</title>
<ellipse fill="#fdb462" stroke="black" cx="2255" cy="-400" rx="56.74" ry="18"/>
<text text-anchor="middle" x="2255" y="-395.8" font-family="Times,serif" font-size="14.00">AppService</text>
</g>
<!-- AppService&#45;&gt;AppModule -->
<g id="edge6" class="edge">
<title>AppService&#45;&gt;AppModule</title>
<path fill="none" stroke="black" d="M2255,-418.02C2255,-435.37 2255,-459 2255,-459 2255,-459 2125.98,-459 2125.98,-459"/>
<polygon fill="black" stroke="black" points="2125.98,-455.5 2115.98,-459 2125.98,-462.5 2125.98,-455.5"/>
</g>
<!-- AuthService -->
<g id="node9" class="node">
<title>AuthService</title>
<ellipse fill="#fdb462" stroke="black" cx="4180" cy="-324" rx="59.11" ry="18"/>
<text text-anchor="middle" x="4180" y="-319.8" font-family="Times,serif" font-size="14.00">AuthService</text>
</g>
<!-- AuthService&#45;&gt;AuthModule -->
<g id="edge8" class="edge">
<title>AuthService&#45;&gt;AuthModule</title>
<path fill="none" stroke="black" d="M4180,-342.05C4180,-356.37 4180,-374 4180,-374 4180,-374 2138.75,-374 2138.75,-374 2138.75,-374 2138.75,-374.79 2138.75,-374.79"/>
<polygon fill="black" stroke="black" points="2135.25,-371.94 2138.75,-381.94 2142.25,-371.94 2135.25,-371.94"/>
</g>
<!-- GenerateTokensProvider -->
<g id="node10" class="node">
<title>GenerateTokensProvider</title>
<ellipse fill="#fdb462" stroke="black" cx="3995" cy="-324" rx="107.63" ry="18"/>
<text text-anchor="middle" x="3995" y="-319.8" font-family="Times,serif" font-size="14.00">GenerateTokensProvider</text>
</g>
<!-- GenerateTokensProvider&#45;&gt;AuthModule -->
<g id="edge9" class="edge">
<title>GenerateTokensProvider&#45;&gt;AuthModule</title>
<path fill="none" stroke="black" d="M3995,-342.06C3995,-353.44 3995,-366 3995,-366 3995,-366 2121.25,-366 2121.25,-366 2121.25,-366 2121.25,-371.81 2121.25,-371.81"/>
<polygon fill="black" stroke="black" points="2117.75,-371.81 2121.25,-381.81 2124.75,-371.81 2117.75,-371.81"/>
</g>
<!-- SignInProvider -->
<g id="node11" class="node">
<title>SignInProvider</title>
<ellipse fill="#fdb462" stroke="black" cx="3799" cy="-324" rx="70.08" ry="18"/>
<text text-anchor="middle" x="3799" y="-319.8" font-family="Times,serif" font-size="14.00">SignInProvider</text>
</g>
<!-- SignInProvider&#45;&gt;AuthModule -->
<g id="edge10" class="edge">
<title>SignInProvider&#45;&gt;AuthModule</title>
<path fill="none" stroke="black" d="M3799,-342.19C3799,-350.28 3799,-358 3799,-358 3799,-358 2103.74,-358 2103.74,-358 2103.74,-358 2103.74,-371.94 2103.74,-371.94"/>
<polygon fill="black" stroke="black" points="2100.24,-371.94 2103.74,-381.94 2107.24,-371.94 2100.24,-371.94"/>
</g>
<!-- Product -->
<g id="node12" class="node">
<title>Product</title>
<polygon fill="#8dd3c7" stroke="black" points="620.55,-266 617.55,-270 596.55,-270 593.55,-266 561.45,-266 561.45,-230 620.55,-230 620.55,-266"/>
<text text-anchor="middle" x="591" y="-243.8" font-family="Times,serif" font-size="14.00">Product</text>
</g>
<!-- Product&#45;&gt;CartModule -->
<g id="edge11" class="edge">
<title>Product&#45;&gt;CartModule</title>
<path fill="none" stroke="black" d="M591,-266.15C591,-289.76 591,-328 591,-328 591,-328 1047,-328 1047,-328"/>
<polygon fill="black" stroke="black" points="1047,-331.5 1057,-328 1047,-324.5 1047,-331.5"/>
</g>
<!-- AddToCartProvider -->
<g id="node14" class="node">
<title>AddToCartProvider</title>
<ellipse fill="#fdb462" stroke="black" cx="1262" cy="-248" rx="88.04" ry="18"/>
<text text-anchor="middle" x="1262" y="-243.8" font-family="Times,serif" font-size="14.00">AddToCartProvider</text>
</g>
<!-- AddToCartProvider&#45;&gt;CartModule -->
<g id="edge15" class="edge">
<title>AddToCartProvider&#45;&gt;CartModule</title>
<path fill="none" stroke="black" d="M1193.26,-259.37C1193.26,-278.48 1193.26,-315 1193.26,-315 1193.26,-315 1150.89,-315 1150.89,-315"/>
<polygon fill="black" stroke="black" points="1150.89,-311.5 1140.89,-315 1150.89,-318.5 1150.89,-311.5"/>
</g>
<!-- CartService -->
<g id="node15" class="node">
<title>CartService</title>
<ellipse fill="#fdb462" stroke="black" cx="1099" cy="-248" rx="56.73" ry="18"/>
<text text-anchor="middle" x="1099" y="-243.8" font-family="Times,serif" font-size="14.00">CartService</text>
</g>
<!-- CartService&#45;&gt;CartModule -->
<g id="edge16" class="edge">
<title>CartService&#45;&gt;CartModule</title>
<path fill="none" stroke="black" d="M1099,-266.01C1099,-266.01 1099,-295.85 1099,-295.85"/>
<polygon fill="black" stroke="black" points="1095.5,-295.85 1099,-305.85 1102.5,-295.85 1095.5,-295.85"/>
</g>
<!-- GetCartProvider -->
<g id="node16" class="node">
<title>GetCartProvider</title>
<ellipse fill="#fdb462" stroke="black" cx="950" cy="-248" rx="74.71" ry="18"/>
<text text-anchor="middle" x="950" y="-243.8" font-family="Times,serif" font-size="14.00">GetCartProvider</text>
</g>
<!-- GetCartProvider&#45;&gt;CartModule -->
<g id="edge17" class="edge">
<title>GetCartProvider&#45;&gt;CartModule</title>
<path fill="none" stroke="black" d="M950,-266.03C950,-285.58 950,-314 950,-314 950,-314 1047.1,-314 1047.1,-314"/>
<polygon fill="black" stroke="black" points="1047.1,-317.5 1057.1,-314 1047.1,-310.5 1047.1,-317.5"/>
</g>
<!-- UpdateCartItemProvider -->
<g id="node17" class="node">
<title>UpdateCartItemProvider</title>
<ellipse fill="#fdb462" stroke="black" cx="751" cy="-248" rx="106.5" ry="18"/>
<text text-anchor="middle" x="751" y="-243.8" font-family="Times,serif" font-size="14.00">UpdateCartItemProvider</text>
</g>
<!-- UpdateCartItemProvider&#45;&gt;CartModule -->
<g id="edge18" class="edge">
<title>UpdateCartItemProvider&#45;&gt;CartModule</title>
<path fill="none" stroke="black" d="M751,-266.04C751,-287.66 751,-321 751,-321 751,-321 1047.02,-321 1047.02,-321"/>
<polygon fill="black" stroke="black" points="1047.02,-324.5 1057.02,-321 1047.02,-317.5 1047.02,-324.5"/>
</g>
<!-- CreateOrderProvider -->
<g id="node18" class="node">
<title>CreateOrderProvider</title>
<ellipse fill="#fdb462" stroke="black" cx="2140" cy="-324" rx="92.01" ry="18"/>
<text text-anchor="middle" x="2140" y="-319.8" font-family="Times,serif" font-size="14.00">CreateOrderProvider</text>
</g>
<!-- CreateOrderProvider&#45;&gt;OrdersModule -->
<g id="edge20" class="edge">
<title>CreateOrderProvider&#45;&gt;OrdersModule</title>
<path fill="none" stroke="black" d="M2057.91,-332.13C2057.91,-332.13 2057.91,-371.88 2057.91,-371.88"/>
<polygon fill="black" stroke="black" points="2054.41,-371.88 2057.91,-381.88 2061.41,-371.88 2054.41,-371.88"/>
</g>
<!-- FindAllOrdersForUserProvider -->
<g id="node19" class="node">
<title>FindAllOrdersForUserProvider</title>
<ellipse fill="#fdb462" stroke="black" cx="1898" cy="-324" rx="132.5" ry="18"/>
<text text-anchor="middle" x="1898" y="-319.8" font-family="Times,serif" font-size="14.00">FindAllOrdersForUserProvider</text>
</g>
<!-- FindAllOrdersForUserProvider&#45;&gt;OrdersModule -->
<g id="edge21" class="edge">
<title>FindAllOrdersForUserProvider&#45;&gt;OrdersModule</title>
<path fill="none" stroke="black" d="M2000.22,-335.54C2000.22,-335.54 2000.22,-371.83 2000.22,-371.83"/>
<polygon fill="black" stroke="black" points="1996.72,-371.83 2000.22,-381.83 2003.72,-371.83 1996.72,-371.83"/>
</g>
<!-- FindOrderByIdProvider -->
<g id="node20" class="node">
<title>FindOrderByIdProvider</title>
<ellipse fill="#fdb462" stroke="black" cx="1644" cy="-324" rx="103.65" ry="18"/>
<text text-anchor="middle" x="1644" y="-319.8" font-family="Times,serif" font-size="14.00">FindOrderByIdProvider</text>
</g>
<!-- FindOrderByIdProvider&#45;&gt;OrdersModule -->
<g id="edge22" class="edge">
<title>FindOrderByIdProvider&#45;&gt;OrdersModule</title>
<path fill="none" stroke="black" d="M1644,-342.31C1644,-362.15 1644,-391 1644,-391 1644,-391 1960.36,-391 1960.36,-391"/>
<polygon fill="black" stroke="black" points="1960.36,-394.5 1970.36,-391 1960.36,-387.5 1960.36,-394.5"/>
</g>
<!-- OrdersService -->
<g id="node21" class="node">
<title>OrdersService</title>
<ellipse fill="#fdb462" stroke="black" cx="1456" cy="-324" rx="66.03" ry="18"/>
<text text-anchor="middle" x="1456" y="-319.8" font-family="Times,serif" font-size="14.00">OrdersService</text>
</g>
<!-- OrdersService&#45;&gt;OrdersModule -->
<g id="edge23" class="edge">
<title>OrdersService&#45;&gt;OrdersModule</title>
<path fill="none" stroke="black" d="M1456,-342.01C1456,-364.49 1456,-400 1456,-400 1456,-400 1960.02,-400 1960.02,-400"/>
<polygon fill="black" stroke="black" points="1960.02,-403.5 1970.02,-400 1960.02,-396.5 1960.02,-403.5"/>
</g>
<!-- PaginationProvider  -->
<g id="node22" class="node">
<title>PaginationProvider </title>
<polygon fill="#fb8072" stroke="black" points="3729.59,-266 3602.41,-266 3602.41,-230 3729.59,-230 3729.59,-266"/>
<text text-anchor="middle" x="3666" y="-243.8" font-family="Times,serif" font-size="14.00">PaginationProvider </text>
</g>
<!-- PaginationModule -->
<g id="node23" class="node">
<title>PaginationModule</title>
<polygon fill="#8dd3c7" stroke="black" points="3725.93,-190 3722.93,-194 3701.93,-194 3698.93,-190 3606.07,-190 3606.07,-154 3725.93,-154 3725.93,-190"/>
<text text-anchor="middle" x="3666" y="-167.8" font-family="Times,serif" font-size="14.00">PaginationModule</text>
</g>
<!-- PaginationModule&#45;&gt;ProductsModule -->
<g id="edge26" class="edge">
<title>PaginationModule&#45;&gt;ProductsModule</title>
<path fill="none" stroke="black" d="M3606.14,-172C3600.48,-172 3596.8,-172 3596.8,-172 3596.8,-172 3596.8,-257 3596.8,-257 3596.8,-257 3072.08,-257 3072.08,-257"/>
<polygon fill="black" stroke="black" points="3072.08,-253.5 3062.08,-257 3072.08,-260.5 3072.08,-253.5"/>
</g>
<!-- PaginationModule&#45;&gt;PaginationProvider  -->
<g id="edge24" class="edge">
<title>PaginationModule&#45;&gt;PaginationProvider </title>
<path fill="none" stroke="black" stroke-dasharray="5,2" d="M3666,-190.01C3666,-190.01 3666,-219.85 3666,-219.85"/>
<polygon fill="black" stroke="black" points="3662.5,-219.85 3666,-229.85 3669.5,-219.85 3662.5,-219.85"/>
</g>
<!-- PaginationProvider -->
<g id="node24" class="node">
<title>PaginationProvider</title>
<ellipse fill="#fdb462" stroke="black" cx="3677" cy="-104" rx="85.69" ry="18"/>
<text text-anchor="middle" x="3677" y="-99.8" font-family="Times,serif" font-size="14.00">PaginationProvider</text>
</g>
<!-- PaginationProvider&#45;&gt;PaginationModule -->
<g id="edge25" class="edge">
<title>PaginationProvider&#45;&gt;PaginationModule</title>
<path fill="none" stroke="black" d="M3666,-121.87C3666,-121.87 3666,-143.54 3666,-143.54"/>
<polygon fill="black" stroke="black" points="3662.5,-143.54 3666,-153.54 3669.5,-143.54 3662.5,-143.54"/>
</g>
<!-- CreateProductProvider -->
<g id="node26" class="node">
<title>CreateProductProvider</title>
<ellipse fill="#fdb462" stroke="black" cx="3451" cy="-172" rx="99.56" ry="18"/>
<text text-anchor="middle" x="3451" y="-167.8" font-family="Times,serif" font-size="14.00">CreateProductProvider</text>
</g>
<!-- CreateProductProvider&#45;&gt;ProductsModule -->
<g id="edge28" class="edge">
<title>CreateProductProvider&#45;&gt;ProductsModule</title>
<path fill="none" stroke="black" d="M3451,-190.01C3451,-212.49 3451,-248 3451,-248 3451,-248 3072.32,-248 3072.32,-248"/>
<polygon fill="black" stroke="black" points="3072.32,-244.5 3062.32,-248 3072.32,-251.5 3072.32,-244.5"/>
</g>
<!-- DeleteProductProvider -->
<g id="node27" class="node">
<title>DeleteProductProvider</title>
<ellipse fill="#fdb462" stroke="black" cx="3234" cy="-172" rx="99.56" ry="18"/>
<text text-anchor="middle" x="3234" y="-167.8" font-family="Times,serif" font-size="14.00">DeleteProductProvider</text>
</g>
<!-- DeleteProductProvider&#45;&gt;ProductsModule -->
<g id="edge29" class="edge">
<title>DeleteProductProvider&#45;&gt;ProductsModule</title>
<path fill="none" stroke="black" d="M3234,-190.31C3234,-210.15 3234,-239 3234,-239 3234,-239 3072.13,-239 3072.13,-239"/>
<polygon fill="black" stroke="black" points="3072.13,-235.5 3062.13,-239 3072.13,-242.5 3072.13,-235.5"/>
</g>
<!-- FindAllProductsProvider -->
<g id="node28" class="node">
<title>FindAllProductsProvider</title>
<ellipse fill="#fdb462" stroke="black" cx="3008" cy="-172" rx="108.26" ry="18"/>
<text text-anchor="middle" x="3008" y="-167.8" font-family="Times,serif" font-size="14.00">FindAllProductsProvider</text>
</g>
<!-- FindAllProductsProvider&#45;&gt;ProductsModule -->
<g id="edge30" class="edge">
<title>FindAllProductsProvider&#45;&gt;ProductsModule</title>
<path fill="none" stroke="black" d="M3008,-190.01C3008,-190.01 3008,-219.85 3008,-219.85"/>
<polygon fill="black" stroke="black" points="3004.5,-219.85 3008,-229.85 3011.5,-219.85 3004.5,-219.85"/>
</g>
<!-- FindProductByIdProvider -->
<g id="node29" class="node">
<title>FindProductByIdProvider</title>
<ellipse fill="#fdb462" stroke="black" cx="2771" cy="-172" rx="111.2" ry="18"/>
<text text-anchor="middle" x="2771" y="-167.8" font-family="Times,serif" font-size="14.00">FindProductByIdProvider</text>
</g>
<!-- FindProductByIdProvider&#45;&gt;ProductsModule -->
<g id="edge31" class="edge">
<title>FindProductByIdProvider&#45;&gt;ProductsModule</title>
<path fill="none" stroke="black" d="M2771,-190.17C2771,-209.09 2771,-236 2771,-236 2771,-236 2943.92,-236 2943.92,-236"/>
<polygon fill="black" stroke="black" points="2943.92,-239.5 2953.92,-236 2943.92,-232.5 2943.92,-239.5"/>
</g>
<!-- ProductsService -->
<g id="node30" class="node">
<title>ProductsService</title>
<ellipse fill="#fdb462" stroke="black" cx="2568" cy="-172" rx="73.57" ry="18"/>
<text text-anchor="middle" x="2568" y="-167.8" font-family="Times,serif" font-size="14.00">ProductsService</text>
</g>
<!-- ProductsService&#45;&gt;ProductsModule -->
<g id="edge32" class="edge">
<title>ProductsService&#45;&gt;ProductsModule</title>
<path fill="none" stroke="black" d="M2568,-190.03C2568,-210.77 2568,-242 2568,-242 2568,-242 2943.61,-242 2943.61,-242"/>
<polygon fill="black" stroke="black" points="2943.61,-245.5 2953.61,-242 2943.61,-238.5 2943.61,-245.5"/>
</g>
<!-- UpdateProductProvider -->
<g id="node31" class="node">
<title>UpdateProductProvider</title>
<ellipse fill="#fdb462" stroke="black" cx="2374" cy="-172" rx="102.43" ry="18"/>
<text text-anchor="middle" x="2374" y="-167.8" font-family="Times,serif" font-size="14.00">UpdateProductProvider</text>
</g>
<!-- UpdateProductProvider&#45;&gt;ProductsModule -->
<g id="edge33" class="edge">
<title>UpdateProductProvider&#45;&gt;ProductsModule</title>
<path fill="none" stroke="black" d="M2393.92,-190.01C2393.92,-212.49 2393.92,-248 2393.92,-248 2393.92,-248 2943.77,-248 2943.77,-248"/>
<polygon fill="black" stroke="black" points="2943.77,-251.5 2953.77,-248 2943.77,-244.5 2943.77,-251.5"/>
</g>
<!-- CreateUserProvider -->
<g id="node33" class="node">
<title>CreateUserProvider</title>
<ellipse fill="#fdb462" stroke="black" cx="718" cy="-172" rx="87.94" ry="18"/>
<text text-anchor="middle" x="718" y="-167.8" font-family="Times,serif" font-size="14.00">CreateUserProvider</text>
</g>
<!-- CreateUserProvider&#45;&gt;UsersModule -->
<g id="edge35" class="edge">
<title>CreateUserProvider&#45;&gt;UsersModule</title>
<path fill="none" stroke="black" d="M637.39,-179.1C637.39,-188.53 637.39,-204 637.39,-204 637.39,-204 520.86,-204 520.86,-204 520.86,-204 520.86,-219.85 520.86,-219.85"/>
<polygon fill="black" stroke="black" points="517.36,-219.85 520.86,-229.85 524.36,-219.85 517.36,-219.85"/>
</g>
<!-- FindUserByEmailProvider -->
<g id="node34" class="node">
<title>FindUserByEmailProvider</title>
<ellipse fill="#fdb462" stroke="black" cx="498" cy="-172" rx="114.62" ry="18"/>
<text text-anchor="middle" x="498" y="-167.8" font-family="Times,serif" font-size="14.00">FindUserByEmailProvider</text>
</g>
<!-- FindUserByEmailProvider&#45;&gt;UsersModule -->
<g id="edge36" class="edge">
<title>FindUserByEmailProvider&#45;&gt;UsersModule</title>
<path fill="none" stroke="black" d="M475.14,-190.01C475.14,-190.01 475.14,-219.85 475.14,-219.85"/>
<polygon fill="black" stroke="black" points="471.64,-219.85 475.14,-229.85 478.64,-219.85 471.64,-219.85"/>
</g>
<!-- FindUserByIdProvider -->
<g id="node35" class="node">
<title>FindUserByIdProvider</title>
<ellipse fill="#fdb462" stroke="black" cx="266" cy="-172" rx="99.58" ry="18"/>
<text text-anchor="middle" x="266" y="-167.8" font-family="Times,serif" font-size="14.00">FindUserByIdProvider</text>
</g>
<!-- FindUserByIdProvider&#45;&gt;UsersModule -->
<g id="edge37" class="edge">
<title>FindUserByIdProvider&#45;&gt;UsersModule</title>
<path fill="none" stroke="black" d="M266,-190.03C266,-210.77 266,-242 266,-242 266,-242 442.16,-242 442.16,-242"/>
<polygon fill="black" stroke="black" points="442.16,-245.5 452.16,-242 442.16,-238.5 442.16,-245.5"/>
</g>
<!-- UsersService -->
<g id="node36" class="node">
<title>UsersService</title>
<ellipse fill="#fdb462" stroke="black" cx="86" cy="-172" rx="61.95" ry="18"/>
<text text-anchor="middle" x="86" y="-167.8" font-family="Times,serif" font-size="14.00">UsersService</text>
</g>
<!-- UsersService&#45;&gt;UsersModule -->
<g id="edge38" class="edge">
<title>UsersService&#45;&gt;UsersModule</title>
<path fill="none" stroke="black" d="M86,-190.2C86,-214.36 86,-254 86,-254 86,-254 441.94,-254 441.94,-254"/>
<polygon fill="black" stroke="black" points="441.94,-257.5 451.94,-254 441.94,-250.5 441.94,-257.5"/>
</g>
</g>
</svg>
