<?xml version="1.0" encoding="UTF-8" standalone="no"?>
<!DOCTYPE svg PUBLIC "-//W3C//DTD SVG 1.1//EN"
 "http://www.w3.org/Graphics/SVG/1.1/DTD/svg11.dtd">
<!-- Generated by graphviz version 2.47.0 (20210316.0004)
 -->
<!-- Title: dependencies Pages: 1 -->
<svg width="3310pt" height="499pt"
 viewBox="0.00 0.00 3310.00 499.00" xmlns="http://www.w3.org/2000/svg" xmlns:xlink="http://www.w3.org/1999/xlink">
<g id="graph0" class="graph" transform="scale(1 1) rotate(0) translate(4 495)">
<title>dependencies</title>
<polygon fill="white" stroke="transparent" points="-4,4 -4,-495 3306,-495 3306,4 -4,4"/>
<text text-anchor="start" x="1630.01" y="-42.4" font-family="Times-12" font-weight="bold" font-size="14.00">Legend</text>
<polygon fill="#ffffb3" stroke="transparent" points="1417,-10 1417,-30 1437,-30 1437,-10 1417,-10"/>
<text text-anchor="start" x="1440.63" y="-15.4" font-family="Times-12" font-size="14.00"> &#160;Declarations</text>
<polygon fill="#8dd3c7" stroke="transparent" points="1530,-10 1530,-30 1550,-30 1550,-10 1530,-10"/>
<text text-anchor="start" x="1553.73" y="-15.4" font-family="Times-12" font-size="14.00"> &#160;Module</text>
<polygon fill="#80b1d3" stroke="transparent" points="1616,-10 1616,-30 1636,-30 1636,-10 1616,-10"/>
<text text-anchor="start" x="1639.78" y="-15.4" font-family="Times-12" font-size="14.00"> &#160;Bootstrap</text>
<polygon fill="#fdb462" stroke="transparent" points="1713,-10 1713,-30 1733,-30 1733,-10 1713,-10"/>
<text text-anchor="start" x="1736.67" y="-15.4" font-family="Times-12" font-size="14.00"> &#160;Providers</text>
<polygon fill="#fb8072" stroke="transparent" points="1809,-10 1809,-30 1829,-30 1829,-10 1809,-10"/>
<text text-anchor="start" x="1832.73" y="-15.4" font-family="Times-12" font-size="14.00"> &#160;Exports</text>
<g id="clust1" class="cluster">
<title>cluster_AppModule</title>
<polygon fill="none" stroke="black" stroke-dasharray="1,5" points="1332,-214 1332,-483 1826,-483 1826,-214 1332,-214"/>
</g>
<g id="clust3" class="cluster">
<title>cluster_AppModule_imports</title>
<polygon fill="none" stroke="black" points="1478,-222 1478,-418 1818,-418 1818,-222 1478,-222"/>
</g>
<g id="clust6" class="cluster">
<title>cluster_AppModule_providers</title>
<polygon fill="none" stroke="black" points="1340,-366 1340,-418 1470,-418 1470,-366 1340,-366"/>
</g>
<g id="clust7" class="cluster">
<title>cluster_AuthModule</title>
<polygon fill="none" stroke="black" stroke-dasharray="1,5" points="8,-138 8,-206 688,-206 688,-138 8,-138"/>
</g>
<g id="clust10" class="cluster">
<title>cluster_AuthModule_exports</title>
<polygon fill="none" stroke="black" points="550,-146 550,-198 680,-198 680,-146 550,-146"/>
</g>
<g id="clust12" class="cluster">
<title>cluster_AuthModule_providers</title>
<polygon fill="none" stroke="black" points="16,-146 16,-198 542,-198 542,-146 16,-146"/>
</g>
<g id="clust13" class="cluster">
<title>cluster_CartModule</title>
<polygon fill="none" stroke="black" stroke-dasharray="1,5" points="1834,-214 1834,-282 2765,-282 2765,-214 1834,-214"/>
</g>
<g id="clust15" class="cluster">
<title>cluster_CartModule_imports</title>
<polygon fill="none" stroke="black" points="2681,-222 2681,-274 2757,-274 2757,-222 2681,-222"/>
</g>
<g id="clust16" class="cluster">
<title>cluster_CartModule_exports</title>
<polygon fill="none" stroke="black" points="2571,-222 2571,-274 2673,-274 2673,-222 2571,-222"/>
</g>
<g id="clust18" class="cluster">
<title>cluster_CartModule_providers</title>
<polygon fill="none" stroke="black" points="1842,-222 1842,-274 2563,-274 2563,-222 1842,-222"/>
</g>
<g id="clust19" class="cluster">
<title>cluster_OrdersModule</title>
<polygon fill="none" stroke="black" stroke-dasharray="1,5" points="450,-290 450,-358 1324,-358 1324,-290 450,-290"/>
</g>
<g id="clust24" class="cluster">
<title>cluster_OrdersModule_providers</title>
<polygon fill="none" stroke="black" points="458,-298 458,-350 1316,-350 1316,-298 458,-298"/>
</g>
<g id="clust25" class="cluster">
<title>cluster_PaginationModule</title>
<polygon fill="none" stroke="black" stroke-dasharray="1,5" points="3090,-70 3090,-282 3294,-282 3294,-70 3090,-70"/>
</g>
<g id="clust28" class="cluster">
<title>cluster_PaginationModule_exports</title>
<polygon fill="none" stroke="black" points="3109,-222 3109,-274 3253,-274 3253,-222 3109,-222"/>
</g>
<g id="clust30" class="cluster">
<title>cluster_PaginationModule_providers</title>
<polygon fill="none" stroke="black" points="3098,-78 3098,-130 3286,-130 3286,-78 3098,-78"/>
</g>
<g id="clust31" class="cluster">
<title>cluster_ProductsModule</title>
<polygon fill="none" stroke="black" stroke-dasharray="1,5" points="696,-138 696,-206 2141,-206 2141,-138 696,-138"/>
</g>
<g id="clust34" class="cluster">
<title>cluster_ProductsModule_exports</title>
<polygon fill="none" stroke="black" points="2007,-146 2007,-198 2133,-198 2133,-146 2007,-146"/>
</g>
<g id="clust36" class="cluster">
<title>cluster_ProductsModule_providers</title>
<polygon fill="none" stroke="black" points="704,-146 704,-198 1999,-198 1999,-146 704,-146"/>
</g>
<g id="clust37" class="cluster">
<title>cluster_UsersModule</title>
<polygon fill="none" stroke="black" stroke-dasharray="1,5" points="2149,-138 2149,-206 3082,-206 3082,-138 2149,-138"/>
</g>
<g id="clust40" class="cluster">
<title>cluster_UsersModule_exports</title>
<polygon fill="none" stroke="black" points="2964,-146 2964,-198 3074,-198 3074,-146 2964,-146"/>
</g>
<g id="clust42" class="cluster">
<title>cluster_UsersModule_providers</title>
<polygon fill="none" stroke="black" points="2157,-146 2157,-198 2956,-198 2956,-146 2157,-146"/>
</g>
<!-- AuthModule -->
<g id="node1" class="node">
<title>AuthModule</title>
<polygon fill="#8dd3c7" stroke="black" points="1573.55,-266 1570.55,-270 1549.55,-270 1546.55,-266 1486.45,-266 1486.45,-230 1573.55,-230 1573.55,-266"/>
<text text-anchor="middle" x="1530" y="-243.8" font-family="Times,serif" font-size="14.00">AuthModule</text>
</g>
<!-- AppModule -->
<g id="node6" class="node">
<title>AppModule</title>
<polygon fill="#8dd3c7" stroke="black" points="1600.66,-475 1597.66,-479 1576.66,-479 1573.66,-475 1517.34,-475 1517.34,-439 1600.66,-439 1600.66,-475"/>
<text text-anchor="middle" x="1559" y="-452.8" font-family="Times,serif" font-size="14.00">AppModule</text>
</g>
<!-- AuthModule&#45;&gt;AppModule -->
<g id="edge1" class="edge">
<title>AuthModule&#45;&gt;AppModule</title>
<path fill="none" stroke="black" d="M1535.18,-266.18C1535.18,-266.18 1535.18,-428.71 1535.18,-428.71"/>
<polygon fill="black" stroke="black" points="1531.68,-428.71 1535.18,-438.71 1538.68,-428.71 1531.68,-428.71"/>
</g>
<!-- HashingProvider  -->
<g id="node8" class="node">
<title>HashingProvider </title>
<polygon fill="#fb8072" stroke="black" points="672.37,-190 557.63,-190 557.63,-154 672.37,-154 672.37,-190"/>
<text text-anchor="middle" x="615" y="-167.8" font-family="Times,serif" font-size="14.00">HashingProvider </text>
</g>
<!-- AuthModule&#45;&gt;HashingProvider  -->
<g id="edge7" class="edge">
<title>AuthModule&#45;&gt;HashingProvider </title>
<path fill="none" stroke="black" stroke-dasharray="5,2" d="M1486.37,-238C1308.08,-238 644.18,-238 644.18,-238 644.18,-238 644.18,-200.03 644.18,-200.03"/>
<polygon fill="black" stroke="black" points="647.68,-200.03 644.18,-190.03 640.68,-200.03 647.68,-200.03"/>
</g>
<!-- CartModule -->
<g id="node2" class="node">
<title>CartModule</title>
<polygon fill="#8dd3c7" stroke="black" points="1797.65,-342 1794.65,-346 1773.65,-346 1770.65,-342 1714.35,-342 1714.35,-306 1797.65,-306 1797.65,-342"/>
<text text-anchor="middle" x="1756" y="-319.8" font-family="Times,serif" font-size="14.00">CartModule</text>
</g>
<!-- OrdersModule -->
<g id="node3" class="node">
<title>OrdersModule</title>
<polygon fill="#8dd3c7" stroke="black" points="1641.64,-410 1638.64,-414 1617.64,-414 1614.64,-410 1544.36,-410 1544.36,-374 1641.64,-374 1641.64,-410"/>
<text text-anchor="middle" x="1593" y="-387.8" font-family="Times,serif" font-size="14.00">OrdersModule</text>
</g>
<!-- CartModule&#45;&gt;OrdersModule -->
<g id="edge19" class="edge">
<title>CartModule&#45;&gt;OrdersModule</title>
<path fill="none" stroke="black" d="M1714.23,-333C1673.22,-333 1616.77,-333 1616.77,-333 1616.77,-333 1616.77,-363.98 1616.77,-363.98"/>
<polygon fill="black" stroke="black" points="1613.27,-363.98 1616.77,-373.98 1620.27,-363.98 1613.27,-363.98"/>
</g>
<!-- CartModule&#45;&gt;AppModule -->
<g id="edge2" class="edge">
<title>CartModule&#45;&gt;AppModule</title>
<path fill="none" stroke="black" d="M1756,-342.21C1756,-378.64 1756,-457 1756,-457 1756,-457 1610.78,-457 1610.78,-457"/>
<polygon fill="black" stroke="black" points="1610.78,-453.5 1600.78,-457 1610.78,-460.5 1610.78,-453.5"/>
</g>
<!-- CartService  -->
<g id="node13" class="node">
<title>CartService </title>
<polygon fill="#fb8072" stroke="black" points="2664.58,-266 2579.42,-266 2579.42,-230 2664.58,-230 2664.58,-266"/>
<text text-anchor="middle" x="2622" y="-243.8" font-family="Times,serif" font-size="14.00">CartService </text>
</g>
<!-- CartModule&#45;&gt;CartService  -->
<g id="edge14" class="edge">
<title>CartModule&#45;&gt;CartService </title>
<path fill="none" stroke="black" stroke-dasharray="5,2" d="M1797.77,-332C1970.76,-332 2622,-332 2622,-332 2622,-332 2622,-276.23 2622,-276.23"/>
<polygon fill="black" stroke="black" points="2625.5,-276.23 2622,-266.23 2618.5,-276.23 2625.5,-276.23"/>
</g>
<!-- OrdersModule&#45;&gt;AppModule -->
<g id="edge3" class="edge">
<title>OrdersModule&#45;&gt;AppModule</title>
<path fill="none" stroke="black" d="M1572.5,-410.11C1572.5,-410.11 1572.5,-428.99 1572.5,-428.99"/>
<polygon fill="black" stroke="black" points="1569,-428.99 1572.5,-438.99 1576,-428.99 1569,-428.99"/>
</g>
<!-- ProductsModule -->
<g id="node4" class="node">
<title>ProductsModule</title>
<polygon fill="#8dd3c7" stroke="black" points="1700.04,-266 1697.04,-270 1676.04,-270 1673.04,-266 1591.96,-266 1591.96,-230 1700.04,-230 1700.04,-266"/>
<text text-anchor="middle" x="1646" y="-243.8" font-family="Times,serif" font-size="14.00">ProductsModule</text>
</g>
<!-- ProductsModule&#45;&gt;CartModule -->
<g id="edge12" class="edge">
<title>ProductsModule&#45;&gt;CartModule</title>
<path fill="none" stroke="black" d="M1680.79,-266.01C1680.79,-288.49 1680.79,-324 1680.79,-324 1680.79,-324 1704,-324 1704,-324"/>
<polygon fill="black" stroke="black" points="1704,-327.5 1714,-324 1704,-320.5 1704,-327.5"/>
</g>
<!-- ProductsModule&#45;&gt;AppModule -->
<g id="edge4" class="edge">
<title>ProductsModule&#45;&gt;AppModule</title>
<path fill="none" stroke="black" d="M1661.3,-266.1C1661.3,-315.33 1661.3,-448 1661.3,-448 1661.3,-448 1610.91,-448 1610.91,-448"/>
<polygon fill="black" stroke="black" points="1610.91,-444.5 1600.91,-448 1610.91,-451.5 1610.91,-444.5"/>
</g>
<!-- ProductsService  -->
<g id="node25" class="node">
<title>ProductsService </title>
<polygon fill="#fb8072" stroke="black" points="2125.47,-190 2014.53,-190 2014.53,-154 2125.47,-154 2125.47,-190"/>
<text text-anchor="middle" x="2070" y="-167.8" font-family="Times,serif" font-size="14.00">ProductsService </text>
</g>
<!-- ProductsModule&#45;&gt;ProductsService  -->
<g id="edge27" class="edge">
<title>ProductsModule&#45;&gt;ProductsService </title>
<path fill="none" stroke="black" stroke-dasharray="5,2" d="M1664.09,-229.88C1664.09,-215.22 1664.09,-197 1664.09,-197 1664.09,-197 2038.63,-197 2038.63,-197 2038.63,-197 2038.63,-196.32 2038.63,-196.32"/>
<polygon fill="black" stroke="black" points="2042.13,-200.17 2038.63,-190.17 2035.13,-200.17 2042.13,-200.17"/>
</g>
<!-- UsersModule -->
<g id="node5" class="node">
<title>UsersModule</title>
<polygon fill="#8dd3c7" stroke="black" points="1809.92,-266 1806.92,-270 1785.92,-270 1782.92,-266 1718.08,-266 1718.08,-230 1809.92,-230 1809.92,-266"/>
<text text-anchor="middle" x="1764" y="-243.8" font-family="Times,serif" font-size="14.00">UsersModule</text>
</g>
<!-- UsersModule&#45;&gt;CartModule -->
<g id="edge13" class="edge">
<title>UsersModule&#45;&gt;CartModule</title>
<path fill="none" stroke="black" d="M1758.06,-266.01C1758.06,-266.01 1758.06,-295.85 1758.06,-295.85"/>
<polygon fill="black" stroke="black" points="1754.56,-295.85 1758.06,-305.85 1761.56,-295.85 1754.56,-295.85"/>
</g>
<!-- UsersModule&#45;&gt;AppModule -->
<g id="edge5" class="edge">
<title>UsersModule&#45;&gt;AppModule</title>
<path fill="none" stroke="black" d="M1803.77,-266.21C1803.77,-318.61 1803.77,-466 1803.77,-466 1803.77,-466 1610.8,-466 1610.8,-466"/>
<polygon fill="black" stroke="black" points="1610.8,-462.5 1600.8,-466 1610.8,-469.5 1610.8,-462.5"/>
</g>
<!-- UsersService  -->
<g id="node32" class="node">
<title>UsersService </title>
<polygon fill="#fb8072" stroke="black" points="3065.85,-190 2972.15,-190 2972.15,-154 3065.85,-154 3065.85,-190"/>
<text text-anchor="middle" x="3019" y="-167.8" font-family="Times,serif" font-size="14.00">UsersService </text>
</g>
<!-- UsersModule&#45;&gt;UsersService  -->
<g id="edge34" class="edge">
<title>UsersModule&#45;&gt;UsersService </title>
<path fill="none" stroke="black" stroke-dasharray="5,2" d="M1784.82,-229.96C1784.82,-222.25 1784.82,-215 1784.82,-215 1784.82,-215 3019,-215 3019,-215 3019,-215 3019,-200.49 3019,-200.49"/>
<polygon fill="black" stroke="black" points="3022.5,-200.49 3019,-190.49 3015.5,-200.49 3022.5,-200.49"/>
</g>
<!-- AppService -->
<g id="node7" class="node">
<title>AppService</title>
<ellipse fill="#fdb462" stroke="black" cx="1405" cy="-392" rx="56.74" ry="18"/>
<text text-anchor="middle" x="1405" y="-387.8" font-family="Times,serif" font-size="14.00">AppService</text>
</g>
<!-- AppService&#45;&gt;AppModule -->
<g id="edge6" class="edge">
<title>AppService&#45;&gt;AppModule</title>
<path fill="none" stroke="black" d="M1461.68,-392C1493.22,-392 1526.18,-392 1526.18,-392 1526.18,-392 1526.18,-428.89 1526.18,-428.89"/>
<polygon fill="black" stroke="black" points="1522.68,-428.89 1526.18,-438.89 1529.68,-428.89 1522.68,-428.89"/>
</g>
<!-- AuthService -->
<g id="node9" class="node">
<title>AuthService</title>
<ellipse fill="#fdb462" stroke="black" cx="317" cy="-172" rx="59.11" ry="18"/>
<text text-anchor="middle" x="317" y="-167.8" font-family="Times,serif" font-size="14.00">AuthService</text>
</g>
<!-- AuthService&#45;&gt;AuthModule -->
<g id="edge8" class="edge">
<title>AuthService&#45;&gt;AuthModule</title>
<path fill="none" stroke="black" d="M317,-190.15C317,-213.76 317,-252 317,-252 317,-252 1476.11,-252 1476.11,-252"/>
<polygon fill="black" stroke="black" points="1476.11,-255.5 1486.11,-252 1476.11,-248.5 1476.11,-255.5"/>
</g>
<!-- GenerateTokensProvider -->
<g id="node10" class="node">
<title>GenerateTokensProvider</title>
<ellipse fill="#fdb462" stroke="black" cx="132" cy="-172" rx="107.63" ry="18"/>
<text text-anchor="middle" x="132" y="-167.8" font-family="Times,serif" font-size="14.00">GenerateTokensProvider</text>
</g>
<!-- GenerateTokensProvider&#45;&gt;AuthModule -->
<g id="edge9" class="edge">
<title>GenerateTokensProvider&#45;&gt;AuthModule</title>
<path fill="none" stroke="black" d="M132,-190.03C132,-215.51 132,-259 132,-259 132,-259 1476.24,-259 1476.24,-259"/>
<polygon fill="black" stroke="black" points="1476.24,-262.5 1486.24,-259 1476.24,-255.5 1476.24,-262.5"/>
</g>
<!-- SignInProvider -->
<g id="node11" class="node">
<title>SignInProvider</title>
<ellipse fill="#fdb462" stroke="black" cx="464" cy="-172" rx="70.08" ry="18"/>
<text text-anchor="middle" x="464" y="-167.8" font-family="Times,serif" font-size="14.00">SignInProvider</text>
</g>
<!-- SignInProvider&#45;&gt;AuthModule -->
<g id="edge10" class="edge">
<title>SignInProvider&#45;&gt;AuthModule</title>
<path fill="none" stroke="black" d="M499.89,-187.48C499.89,-208.91 499.89,-245 499.89,-245 499.89,-245 1476.4,-245 1476.4,-245"/>
<polygon fill="black" stroke="black" points="1476.4,-248.5 1486.4,-245 1476.4,-241.5 1476.4,-248.5"/>
</g>
<!-- Product -->
<g id="node12" class="node">
<title>Product</title>
<polygon fill="#8dd3c7" stroke="black" points="2748.55,-266 2745.55,-270 2724.55,-270 2721.55,-266 2689.45,-266 2689.45,-230 2748.55,-230 2748.55,-266"/>
<text text-anchor="middle" x="2719" y="-243.8" font-family="Times,serif" font-size="14.00">Product</text>
</g>
<!-- Product&#45;&gt;CartModule -->
<g id="edge11" class="edge">
<title>Product&#45;&gt;CartModule</title>
<path fill="none" stroke="black" d="M2719,-266.01C2719,-292.02 2719,-337 2719,-337 2719,-337 1807.69,-337 1807.69,-337"/>
<polygon fill="black" stroke="black" points="1807.69,-333.5 1797.69,-337 1807.69,-340.5 1807.69,-333.5"/>
</g>
<!-- AddToCartProvider -->
<g id="node14" class="node">
<title>AddToCartProvider</title>
<ellipse fill="#fdb462" stroke="black" cx="2467" cy="-248" rx="88.04" ry="18"/>
<text text-anchor="middle" x="2467" y="-243.8" font-family="Times,serif" font-size="14.00">AddToCartProvider</text>
</g>
<!-- AddToCartProvider&#45;&gt;CartModule -->
<g id="edge15" class="edge">
<title>AddToCartProvider&#45;&gt;CartModule</title>
<path fill="none" stroke="black" d="M2467,-266.32C2467,-289.66 2467,-327 2467,-327 2467,-327 1807.82,-327 1807.82,-327"/>
<polygon fill="black" stroke="black" points="1807.82,-323.5 1797.82,-327 1807.82,-330.5 1807.82,-323.5"/>
</g>
<!-- CartService -->
<g id="node15" class="node">
<title>CartService</title>
<ellipse fill="#fdb462" stroke="black" cx="2304" cy="-248" rx="56.73" ry="18"/>
<text text-anchor="middle" x="2304" y="-243.8" font-family="Times,serif" font-size="14.00">CartService</text>
</g>
<!-- CartService&#45;&gt;CartModule -->
<g id="edge16" class="edge">
<title>CartService&#45;&gt;CartModule</title>
<path fill="none" stroke="black" d="M2304,-266.29C2304,-288.21 2304,-322 2304,-322 2304,-322 1808.09,-322 1808.09,-322"/>
<polygon fill="black" stroke="black" points="1808.09,-318.5 1798.09,-322 1808.09,-325.5 1808.09,-318.5"/>
</g>
<!-- GetCartProvider -->
<g id="node16" class="node">
<title>GetCartProvider</title>
<ellipse fill="#fdb462" stroke="black" cx="2155" cy="-248" rx="74.71" ry="18"/>
<text text-anchor="middle" x="2155" y="-243.8" font-family="Times,serif" font-size="14.00">GetCartProvider</text>
</g>
<!-- GetCartProvider&#45;&gt;CartModule -->
<g id="edge17" class="edge">
<title>GetCartProvider&#45;&gt;CartModule</title>
<path fill="none" stroke="black" d="M2155,-266.13C2155,-286.57 2155,-317 2155,-317 2155,-317 1807.95,-317 1807.95,-317"/>
<polygon fill="black" stroke="black" points="1807.95,-313.5 1797.95,-317 1807.95,-320.5 1807.95,-313.5"/>
</g>
<!-- UpdateCartItemProvider -->
<g id="node17" class="node">
<title>UpdateCartItemProvider</title>
<ellipse fill="#fdb462" stroke="black" cx="1956" cy="-248" rx="106.5" ry="18"/>
<text text-anchor="middle" x="1956" y="-243.8" font-family="Times,serif" font-size="14.00">UpdateCartItemProvider</text>
</g>
<!-- UpdateCartItemProvider&#45;&gt;CartModule -->
<g id="edge18" class="edge">
<title>UpdateCartItemProvider&#45;&gt;CartModule</title>
<path fill="none" stroke="black" d="M1956,-266.17C1956,-285.09 1956,-312 1956,-312 1956,-312 1807.93,-312 1807.93,-312"/>
<polygon fill="black" stroke="black" points="1807.93,-308.5 1797.93,-312 1807.93,-315.5 1807.93,-308.5"/>
</g>
<!-- CreateOrderProvider -->
<g id="node18" class="node">
<title>CreateOrderProvider</title>
<ellipse fill="#fdb462" stroke="black" cx="1216" cy="-324" rx="92.01" ry="18"/>
<text text-anchor="middle" x="1216" y="-319.8" font-family="Times,serif" font-size="14.00">CreateOrderProvider</text>
</g>
<!-- CreateOrderProvider&#45;&gt;OrdersModule -->
<g id="edge20" class="edge">
<title>CreateOrderProvider&#45;&gt;OrdersModule</title>
<path fill="none" stroke="black" d="M1295.84,-315C1399.65,-315 1567.86,-315 1567.86,-315 1567.86,-315 1567.86,-363.75 1567.86,-363.75"/>
<polygon fill="black" stroke="black" points="1564.36,-363.75 1567.86,-373.75 1571.36,-363.75 1564.36,-363.75"/>
</g>
<!-- FindAllOrdersForUserProvider -->
<g id="node19" class="node">
<title>FindAllOrdersForUserProvider</title>
<ellipse fill="#fdb462" stroke="black" cx="974" cy="-324" rx="132.5" ry="18"/>
<text text-anchor="middle" x="974" y="-319.8" font-family="Times,serif" font-size="14.00">FindAllOrdersForUserProvider</text>
</g>
<!-- FindAllOrdersForUserProvider&#45;&gt;OrdersModule -->
<g id="edge21" class="edge">
<title>FindAllOrdersForUserProvider&#45;&gt;OrdersModule</title>
<path fill="none" stroke="black" d="M974,-342.06C974,-346.49 974,-350 974,-350 974,-350 1561.94,-350 1561.94,-350 1561.94,-350 1561.94,-363.94 1561.94,-363.94"/>
<polygon fill="black" stroke="black" points="1558.44,-363.94 1561.94,-373.94 1565.44,-363.94 1558.44,-363.94"/>
</g>
<!-- FindOrderByIdProvider -->
<g id="node20" class="node">
<title>FindOrderByIdProvider</title>
<ellipse fill="#fdb462" stroke="black" cx="720" cy="-324" rx="103.65" ry="18"/>
<text text-anchor="middle" x="720" y="-319.8" font-family="Times,serif" font-size="14.00">FindOrderByIdProvider</text>
</g>
<!-- FindOrderByIdProvider&#45;&gt;OrdersModule -->
<g id="edge22" class="edge">
<title>FindOrderByIdProvider&#45;&gt;OrdersModule</title>
<path fill="none" stroke="black" d="M720,-342.19C720,-350.28 720,-358 720,-358 720,-358 1556.02,-358 1556.02,-358 1556.02,-358 1556.02,-363.81 1556.02,-363.81"/>
<polygon fill="black" stroke="black" points="1552.52,-363.81 1556.02,-373.81 1559.52,-363.81 1552.52,-363.81"/>
</g>
<!-- OrdersService -->
<g id="node21" class="node">
<title>OrdersService</title>
<ellipse fill="#fdb462" stroke="black" cx="532" cy="-324" rx="66.03" ry="18"/>
<text text-anchor="middle" x="532" y="-319.8" font-family="Times,serif" font-size="14.00">OrdersService</text>
</g>
<!-- OrdersService&#45;&gt;OrdersModule -->
<g id="edge23" class="edge">
<title>OrdersService&#45;&gt;OrdersModule</title>
<path fill="none" stroke="black" d="M532,-342.06C532,-353.44 532,-366 532,-366 532,-366 1550.1,-366 1550.1,-366 1550.1,-366 1550.1,-366.79 1550.1,-366.79"/>
<polygon fill="black" stroke="black" points="1546.6,-363.94 1550.1,-373.94 1553.6,-363.94 1546.6,-363.94"/>
</g>
<!-- PaginationProvider  -->
<g id="node22" class="node">
<title>PaginationProvider </title>
<polygon fill="#fb8072" stroke="black" points="3244.59,-266 3117.41,-266 3117.41,-230 3244.59,-230 3244.59,-266"/>
<text text-anchor="middle" x="3181" y="-243.8" font-family="Times,serif" font-size="14.00">PaginationProvider </text>
</g>
<!-- PaginationModule -->
<g id="node23" class="node">
<title>PaginationModule</title>
<polygon fill="#8dd3c7" stroke="black" points="3240.93,-190 3237.93,-194 3216.93,-194 3213.93,-190 3121.07,-190 3121.07,-154 3240.93,-154 3240.93,-190"/>
<text text-anchor="middle" x="3181" y="-167.8" font-family="Times,serif" font-size="14.00">PaginationModule</text>
</g>
<!-- PaginationModule&#45;&gt;ProductsModule -->
<g id="edge26" class="edge">
<title>PaginationModule&#45;&gt;ProductsModule</title>
<path fill="none" stroke="black" d="M3161.09,-190.21C3161.09,-195.55 3161.09,-200 3161.09,-200 3161.09,-200 1688.21,-200 1688.21,-200 1688.21,-200 1688.21,-219.85 1688.21,-219.85"/>
<polygon fill="black" stroke="black" points="1684.71,-219.85 1688.21,-229.85 1691.71,-219.85 1684.71,-219.85"/>
</g>
<!-- PaginationModule&#45;&gt;PaginationProvider  -->
<g id="edge24" class="edge">
<title>PaginationModule&#45;&gt;PaginationProvider </title>
<path fill="none" stroke="black" stroke-dasharray="5,2" d="M3200.91,-190.01C3200.91,-190.01 3200.91,-219.85 3200.91,-219.85"/>
<polygon fill="black" stroke="black" points="3197.41,-219.85 3200.91,-229.85 3204.41,-219.85 3197.41,-219.85"/>
</g>
<!-- PaginationProvider -->
<g id="node24" class="node">
<title>PaginationProvider</title>
<ellipse fill="#fdb462" stroke="black" cx="3192" cy="-104" rx="85.69" ry="18"/>
<text text-anchor="middle" x="3192" y="-99.8" font-family="Times,serif" font-size="14.00">PaginationProvider</text>
</g>
<!-- PaginationProvider&#45;&gt;PaginationModule -->
<g id="edge25" class="edge">
<title>PaginationProvider&#45;&gt;PaginationModule</title>
<path fill="none" stroke="black" d="M3181,-121.87C3181,-121.87 3181,-143.54 3181,-143.54"/>
<polygon fill="black" stroke="black" points="3177.5,-143.54 3181,-153.54 3184.5,-143.54 3177.5,-143.54"/>
</g>
<!-- CreateProductProvider -->
<g id="node26" class="node">
<title>CreateProductProvider</title>
<ellipse fill="#fdb462" stroke="black" cx="1029" cy="-172" rx="99.56" ry="18"/>
<text text-anchor="middle" x="1029" y="-167.8" font-family="Times,serif" font-size="14.00">CreateProductProvider</text>
</g>
<!-- CreateProductProvider&#45;&gt;ProductsModule -->
<g id="edge28" class="edge">
<title>CreateProductProvider&#45;&gt;ProductsModule</title>
<path fill="none" stroke="black" d="M1115.12,-181.06C1115.12,-195.96 1115.12,-224 1115.12,-224 1115.12,-224 1615.85,-224 1615.85,-224 1615.85,-224 1615.85,-224.58 1615.85,-224.58"/>
<polygon fill="black" stroke="black" points="1612.35,-219.81 1615.85,-229.81 1619.35,-219.81 1612.35,-219.81"/>
</g>
<!-- DeleteProductProvider -->
<g id="node27" class="node">
<title>DeleteProductProvider</title>
<ellipse fill="#fdb462" stroke="black" cx="812" cy="-172" rx="99.56" ry="18"/>
<text text-anchor="middle" x="812" y="-167.8" font-family="Times,serif" font-size="14.00">DeleteProductProvider</text>
</g>
<!-- DeleteProductProvider&#45;&gt;ProductsModule -->
<g id="edge29" class="edge">
<title>DeleteProductProvider&#45;&gt;ProductsModule</title>
<path fill="none" stroke="black" d="M876.64,-185.88C876.64,-202.17 876.64,-227 876.64,-227 876.64,-227 1603.79,-227 1603.79,-227 1603.79,-227 1603.79,-227.29 1603.79,-227.29"/>
<polygon fill="black" stroke="black" points="1600.29,-219.92 1603.79,-229.92 1607.29,-219.92 1600.29,-219.92"/>
</g>
<!-- FindAllProductsProvider -->
<g id="node28" class="node">
<title>FindAllProductsProvider</title>
<ellipse fill="#fdb462" stroke="black" cx="1883" cy="-172" rx="108.26" ry="18"/>
<text text-anchor="middle" x="1883" y="-167.8" font-family="Times,serif" font-size="14.00">FindAllProductsProvider</text>
</g>
<!-- FindAllProductsProvider&#45;&gt;ProductsModule -->
<g id="edge30" class="edge">
<title>FindAllProductsProvider&#45;&gt;ProductsModule</title>
<path fill="none" stroke="black" d="M1779.85,-177.55C1779.85,-184.07 1779.85,-194 1779.85,-194 1779.85,-194 1676.15,-194 1676.15,-194 1676.15,-194 1676.15,-219.72 1676.15,-219.72"/>
<polygon fill="black" stroke="black" points="1672.65,-219.72 1676.15,-229.72 1679.65,-219.72 1672.65,-219.72"/>
</g>
<!-- FindProductByIdProvider -->
<g id="node29" class="node">
<title>FindProductByIdProvider</title>
<ellipse fill="#fdb462" stroke="black" cx="1646" cy="-172" rx="111.2" ry="18"/>
<text text-anchor="middle" x="1646" y="-167.8" font-family="Times,serif" font-size="14.00">FindProductByIdProvider</text>
</g>
<!-- FindProductByIdProvider&#45;&gt;ProductsModule -->
<g id="edge31" class="edge">
<title>FindProductByIdProvider&#45;&gt;ProductsModule</title>
<path fill="none" stroke="black" d="M1652.03,-190.01C1652.03,-190.01 1652.03,-219.85 1652.03,-219.85"/>
<polygon fill="black" stroke="black" points="1648.53,-219.85 1652.03,-229.85 1655.53,-219.85 1648.53,-219.85"/>
</g>
<!-- ProductsService -->
<g id="node30" class="node">
<title>ProductsService</title>
<ellipse fill="#fdb462" stroke="black" cx="1443" cy="-172" rx="73.57" ry="18"/>
<text text-anchor="middle" x="1443" y="-167.8" font-family="Times,serif" font-size="14.00">ProductsService</text>
</g>
<!-- ProductsService&#45;&gt;ProductsModule -->
<g id="edge32" class="edge">
<title>ProductsService&#45;&gt;ProductsModule</title>
<path fill="none" stroke="black" d="M1501.51,-183.14C1501.51,-196.75 1501.51,-218 1501.51,-218 1501.51,-218 1639.97,-218 1639.97,-218 1639.97,-218 1639.97,-219.86 1639.97,-219.86"/>
<polygon fill="black" stroke="black" points="1636.47,-219.86 1639.97,-229.86 1643.47,-219.86 1636.47,-219.86"/>
</g>
<!-- UpdateProductProvider -->
<g id="node31" class="node">
<title>UpdateProductProvider</title>
<ellipse fill="#fdb462" stroke="black" cx="1249" cy="-172" rx="102.43" ry="18"/>
<text text-anchor="middle" x="1249" y="-167.8" font-family="Times,serif" font-size="14.00">UpdateProductProvider</text>
</g>
<!-- UpdateProductProvider&#45;&gt;ProductsModule -->
<g id="edge33" class="edge">
<title>UpdateProductProvider&#45;&gt;ProductsModule</title>
<path fill="none" stroke="black" d="M1328.19,-183.61C1328.19,-198.1 1328.19,-221 1328.19,-221 1328.19,-221 1627.91,-221 1627.91,-221 1627.91,-221 1627.91,-221.88 1627.91,-221.88"/>
<polygon fill="black" stroke="black" points="1624.41,-219.84 1627.91,-229.84 1631.41,-219.84 1624.41,-219.84"/>
</g>
<!-- CreateUserProvider -->
<g id="node33" class="node">
<title>CreateUserProvider</title>
<ellipse fill="#fdb462" stroke="black" cx="2500" cy="-172" rx="87.94" ry="18"/>
<text text-anchor="middle" x="2500" y="-167.8" font-family="Times,serif" font-size="14.00">CreateUserProvider</text>
</g>
<!-- CreateUserProvider&#45;&gt;UsersModule -->
<g id="edge35" class="edge">
<title>CreateUserProvider&#45;&gt;UsersModule</title>
<path fill="none" stroke="black" d="M2483.78,-189.8C2483.78,-198.02 2483.78,-206 2483.78,-206 2483.78,-206 1794.78,-206 1794.78,-206 1794.78,-206 1794.78,-219.94 1794.78,-219.94"/>
<polygon fill="black" stroke="black" points="1791.28,-219.94 1794.78,-229.94 1798.28,-219.94 1791.28,-219.94"/>
</g>
<!-- FindUserByEmailProvider -->
<g id="node34" class="node">
<title>FindUserByEmailProvider</title>
<ellipse fill="#fdb462" stroke="black" cx="2280" cy="-172" rx="114.62" ry="18"/>
<text text-anchor="middle" x="2280" y="-167.8" font-family="Times,serif" font-size="14.00">FindUserByEmailProvider</text>
</g>
<!-- FindUserByEmailProvider&#45;&gt;UsersModule -->
<g id="edge36" class="edge">
<title>FindUserByEmailProvider&#45;&gt;UsersModule</title>
<path fill="none" stroke="black" d="M2197.65,-184.61C2197.65,-193.19 2197.65,-203 2197.65,-203 2197.65,-203 1789.8,-203 1789.8,-203 1789.8,-203 1789.8,-219.96 1789.8,-219.96"/>
<polygon fill="black" stroke="black" points="1786.3,-219.96 1789.8,-229.96 1793.3,-219.96 1786.3,-219.96"/>
</g>
<!-- FindUserByIdProvider -->
<g id="node35" class="node">
<title>FindUserByIdProvider</title>
<ellipse fill="#fdb462" stroke="black" cx="2848" cy="-172" rx="99.58" ry="18"/>
<text text-anchor="middle" x="2848" y="-167.8" font-family="Times,serif" font-size="14.00">FindUserByIdProvider</text>
</g>
<!-- FindUserByIdProvider&#45;&gt;UsersModule -->
<g id="edge37" class="edge">
<title>FindUserByIdProvider&#45;&gt;UsersModule</title>
<path fill="none" stroke="black" d="M2848.16,-190.13C2848.16,-200.71 2848.16,-212 2848.16,-212 2848.16,-212 1804.73,-212 1804.73,-212 1804.73,-212 1804.73,-219.58 1804.73,-219.58"/>
<polygon fill="black" stroke="black" points="1801.23,-219.58 1804.73,-229.58 1808.23,-219.58 1801.23,-219.58"/>
</g>
<!-- UsersService -->
<g id="node36" class="node">
<title>UsersService</title>
<ellipse fill="#fdb462" stroke="black" cx="2668" cy="-172" rx="61.95" ry="18"/>
<text text-anchor="middle" x="2668" y="-167.8" font-family="Times,serif" font-size="14.00">UsersService</text>
</g>
<!-- UsersService&#45;&gt;UsersModule -->
<g id="edge38" class="edge">
<title>UsersService&#45;&gt;UsersModule</title>
<path fill="none" stroke="black" d="M2635.41,-187.48C2635.41,-197.62 2635.41,-209 2635.41,-209 2635.41,-209 1799.76,-209 1799.76,-209 1799.76,-209 1799.76,-219.87 1799.76,-219.87"/>
<polygon fill="black" stroke="black" points="1796.26,-219.87 1799.76,-229.87 1803.26,-219.87 1796.26,-219.87"/>
</g>
</g>
</svg>
