<?xml version="1.0" encoding="UTF-8" standalone="no"?>
<!DOCTYPE svg PUBLIC "-//W3C//DTD SVG 1.1//EN"
 "http://www.w3.org/Graphics/SVG/1.1/DTD/svg11.dtd">
<!-- Generated by graphviz version 2.47.0 (20210316.0004)
 -->
<!-- Title: dependencies Pages: 1 -->
<svg width="3310pt" height="499pt"
 viewBox="0.00 0.00 3310.00 499.00" xmlns="http://www.w3.org/2000/svg" xmlns:xlink="http://www.w3.org/1999/xlink">
<g id="graph0" class="graph" transform="scale(1 1) rotate(0) translate(4 495)">
<title>dependencies</title>
<polygon fill="white" stroke="transparent" points="-4,4 -4,-495 3306,-495 3306,4 -4,4"/>
<text text-anchor="start" x="1630.01" y="-42.4" font-family="Times-12" font-weight="bold" font-size="14.00">Legend</text>
<polygon fill="#ffffb3" stroke="transparent" points="1417,-10 1417,-30 1437,-30 1437,-10 1417,-10"/>
<text text-anchor="start" x="1440.63" y="-15.4" font-family="Times-12" font-size="14.00"> &#160;Declarations</text>
<polygon fill="#8dd3c7" stroke="transparent" points="1530,-10 1530,-30 1550,-30 1550,-10 1530,-10"/>
<text text-anchor="start" x="1553.73" y="-15.4" font-family="Times-12" font-size="14.00"> &#160;Module</text>
<polygon fill="#80b1d3" stroke="transparent" points="1616,-10 1616,-30 1636,-30 1636,-10 1616,-10"/>
<text text-anchor="start" x="1639.78" y="-15.4" font-family="Times-12" font-size="14.00"> &#160;Bootstrap</text>
<polygon fill="#fdb462" stroke="transparent" points="1713,-10 1713,-30 1733,-30 1733,-10 1713,-10"/>
<text text-anchor="start" x="1736.67" y="-15.4" font-family="Times-12" font-size="14.00"> &#160;Providers</text>
<polygon fill="#fb8072" stroke="transparent" points="1809,-10 1809,-30 1829,-30 1829,-10 1809,-10"/>
<text text-anchor="start" x="1832.73" y="-15.4" font-family="Times-12" font-size="14.00"> &#160;Exports</text>
<g id="clust1" class="cluster">
<title>cluster_AppModule</title>
<polygon fill="none" stroke="black" stroke-dasharray="1,5" points="1470,-214 1470,-483 1964,-483 1964,-214 1470,-214"/>
</g>
<g id="clust6" class="cluster">
<title>cluster_AppModule_providers</title>
<polygon fill="none" stroke="black" points="1826,-366 1826,-418 1956,-418 1956,-366 1826,-366"/>
</g>
<g id="clust3" class="cluster">
<title>cluster_AppModule_imports</title>
<polygon fill="none" stroke="black" points="1478,-222 1478,-418 1818,-418 1818,-222 1478,-222"/>
</g>
<g id="clust25" class="cluster">
<title>cluster_PaginationModule</title>
<polygon fill="none" stroke="black" stroke-dasharray="1,5" points="3090,-70 3090,-282 3294,-282 3294,-70 3090,-70"/>
</g>
<g id="clust28" class="cluster">
<title>cluster_PaginationModule_exports</title>
<polygon fill="none" stroke="black" points="3109,-222 3109,-274 3253,-274 3253,-222 3109,-222"/>
</g>
<g id="clust30" class="cluster">
<title>cluster_PaginationModule_providers</title>
<polygon fill="none" stroke="black" points="3098,-78 3098,-130 3286,-130 3286,-78 3098,-78"/>
</g>
<g id="clust13" class="cluster">
<title>cluster_CartModule</title>
<polygon fill="none" stroke="black" stroke-dasharray="1,5" points="1972,-214 1972,-282 2903,-282 2903,-214 1972,-214"/>
</g>
<g id="clust15" class="cluster">
<title>cluster_CartModule_imports</title>
<polygon fill="none" stroke="black" points="2819,-222 2819,-274 2895,-274 2895,-222 2819,-222"/>
</g>
<g id="clust16" class="cluster">
<title>cluster_CartModule_exports</title>
<polygon fill="none" stroke="black" points="2709,-222 2709,-274 2811,-274 2811,-222 2709,-222"/>
</g>
<g id="clust18" class="cluster">
<title>cluster_CartModule_providers</title>
<polygon fill="none" stroke="black" points="1980,-222 1980,-274 2701,-274 2701,-222 1980,-222"/>
</g>
<g id="clust31" class="cluster">
<title>cluster_ProductsModule</title>
<polygon fill="none" stroke="black" stroke-dasharray="1,5" points="696,-138 696,-206 2141,-206 2141,-138 696,-138"/>
</g>
<g id="clust34" class="cluster">
<title>cluster_ProductsModule_exports</title>
<polygon fill="none" stroke="black" points="2007,-146 2007,-198 2133,-198 2133,-146 2007,-146"/>
</g>
<g id="clust36" class="cluster">
<title>cluster_ProductsModule_providers</title>
<polygon fill="none" stroke="black" points="704,-146 704,-198 1999,-198 1999,-146 704,-146"/>
</g>
<g id="clust19" class="cluster">
<title>cluster_OrdersModule</title>
<polygon fill="none" stroke="black" stroke-dasharray="1,5" points="588,-290 588,-358 1462,-358 1462,-290 588,-290"/>
</g>
<g id="clust24" class="cluster">
<title>cluster_OrdersModule_providers</title>
<polygon fill="none" stroke="black" points="596,-298 596,-350 1454,-350 1454,-298 596,-298"/>
</g>
<g id="clust37" class="cluster">
<title>cluster_UsersModule</title>
<polygon fill="none" stroke="black" stroke-dasharray="1,5" points="2149,-138 2149,-206 3082,-206 3082,-138 2149,-138"/>
</g>
<g id="clust42" class="cluster">
<title>cluster_UsersModule_providers</title>
<polygon fill="none" stroke="black" points="2275,-146 2275,-198 3074,-198 3074,-146 2275,-146"/>
</g>
<g id="clust40" class="cluster">
<title>cluster_UsersModule_exports</title>
<polygon fill="none" stroke="black" points="2157,-146 2157,-198 2267,-198 2267,-146 2157,-146"/>
</g>
<g id="clust7" class="cluster">
<title>cluster_AuthModule</title>
<polygon fill="none" stroke="black" stroke-dasharray="1,5" points="8,-138 8,-206 688,-206 688,-138 8,-138"/>
</g>
<g id="clust10" class="cluster">
<title>cluster_AuthModule_exports</title>
<polygon fill="none" stroke="black" points="550,-146 550,-198 680,-198 680,-146 550,-146"/>
</g>
<g id="clust12" class="cluster">
<title>cluster_AuthModule_providers</title>
<polygon fill="none" stroke="black" points="16,-146 16,-198 542,-198 542,-146 16,-146"/>
</g>
<!-- AuthModule -->
<g id="node1" class="node">
<title>AuthModule</title>
<polygon fill="#8dd3c7" stroke="black" points="1573.55,-266 1570.55,-270 1549.55,-270 1546.55,-266 1486.45,-266 1486.45,-230 1573.55,-230 1573.55,-266"/>
<text text-anchor="middle" x="1530" y="-243.8" font-family="Times,serif" font-size="14.00">AuthModule</text>
</g>
<!-- AppModule -->
<g id="node6" class="node">
<title>AppModule</title>
<polygon fill="#8dd3c7" stroke="black" points="1736.66,-475 1733.66,-479 1712.66,-479 1709.66,-475 1653.34,-475 1653.34,-439 1736.66,-439 1736.66,-475"/>
<text text-anchor="middle" x="1695" y="-452.8" font-family="Times,serif" font-size="14.00">AppModule</text>
</g>
<!-- AuthModule&#45;&gt;AppModule -->
<g id="edge1" class="edge">
<title>AuthModule&#45;&gt;AppModule</title>
<path fill="none" stroke="black" d="M1530,-266.18C1530,-317.03 1530,-457 1530,-457 1530,-457 1642.94,-457 1642.94,-457"/>
<polygon fill="black" stroke="black" points="1642.94,-460.5 1652.94,-457 1642.94,-453.5 1642.94,-460.5"/>
</g>
<!-- HashingProvider  -->
<g id="node8" class="node">
<title>HashingProvider </title>
<polygon fill="#fb8072" stroke="black" points="672.37,-190 557.63,-190 557.63,-154 672.37,-154 672.37,-190"/>
<text text-anchor="middle" x="615" y="-167.8" font-family="Times,serif" font-size="14.00">HashingProvider </text>
</g>
<!-- AuthModule&#45;&gt;HashingProvider  -->
<g id="edge7" class="edge">
<title>AuthModule&#45;&gt;HashingProvider </title>
<path fill="none" stroke="black" stroke-dasharray="5,2" d="M1486.37,-238C1307.28,-238 637.96,-238 637.96,-238 637.96,-238 637.96,-200.03 637.96,-200.03"/>
<polygon fill="black" stroke="black" points="641.46,-200.03 637.96,-190.03 634.46,-200.03 641.46,-200.03"/>
</g>
<!-- CartModule -->
<g id="node2" class="node">
<title>CartModule</title>
<polygon fill="#8dd3c7" stroke="black" points="1795.65,-342 1792.65,-346 1771.65,-346 1768.65,-342 1712.35,-342 1712.35,-306 1795.65,-306 1795.65,-342"/>
<text text-anchor="middle" x="1754" y="-319.8" font-family="Times,serif" font-size="14.00">CartModule</text>
</g>
<!-- OrdersModule -->
<g id="node3" class="node">
<title>OrdersModule</title>
<polygon fill="#8dd3c7" stroke="black" points="1692.64,-410 1689.64,-414 1668.64,-414 1665.64,-410 1595.36,-410 1595.36,-374 1692.64,-374 1692.64,-410"/>
<text text-anchor="middle" x="1644" y="-387.8" font-family="Times,serif" font-size="14.00">OrdersModule</text>
</g>
<!-- CartModule&#45;&gt;OrdersModule -->
<g id="edge19" class="edge">
<title>CartModule&#45;&gt;OrdersModule</title>
<path fill="none" stroke="black" d="M1718.34,-342.27C1718.34,-360.56 1718.34,-386 1718.34,-386 1718.34,-386 1702.75,-386 1702.75,-386"/>
<polygon fill="black" stroke="black" points="1702.75,-382.5 1692.75,-386 1702.75,-389.5 1702.75,-382.5"/>
</g>
<!-- CartModule&#45;&gt;AppModule -->
<g id="edge2" class="edge">
<title>CartModule&#45;&gt;AppModule</title>
<path fill="none" stroke="black" d="M1724.5,-342.21C1724.5,-342.21 1724.5,-428.58 1724.5,-428.58"/>
<polygon fill="black" stroke="black" points="1721,-428.58 1724.5,-438.58 1728,-428.58 1721,-428.58"/>
</g>
<!-- CartService  -->
<g id="node13" class="node">
<title>CartService </title>
<polygon fill="#fb8072" stroke="black" points="2802.58,-266 2717.42,-266 2717.42,-230 2802.58,-230 2802.58,-266"/>
<text text-anchor="middle" x="2760" y="-243.8" font-family="Times,serif" font-size="14.00">CartService </text>
</g>
<!-- CartModule&#45;&gt;CartService  -->
<g id="edge14" class="edge">
<title>CartModule&#45;&gt;CartService </title>
<path fill="none" stroke="black" stroke-dasharray="5,2" d="M1795.95,-332C1986.34,-332 2760,-332 2760,-332 2760,-332 2760,-276.23 2760,-276.23"/>
<polygon fill="black" stroke="black" points="2763.5,-276.23 2760,-266.23 2756.5,-276.23 2763.5,-276.23"/>
</g>
<!-- OrdersModule&#45;&gt;AppModule -->
<g id="edge3" class="edge">
<title>OrdersModule&#45;&gt;AppModule</title>
<path fill="none" stroke="black" d="M1673,-410.11C1673,-410.11 1673,-428.99 1673,-428.99"/>
<polygon fill="black" stroke="black" points="1669.5,-428.99 1673,-438.99 1676.5,-428.99 1669.5,-428.99"/>
</g>
<!-- ProductsModule -->
<g id="node4" class="node">
<title>ProductsModule</title>
<polygon fill="#8dd3c7" stroke="black" points="1700.04,-266 1697.04,-270 1676.04,-270 1673.04,-266 1591.96,-266 1591.96,-230 1700.04,-230 1700.04,-266"/>
<text text-anchor="middle" x="1646" y="-243.8" font-family="Times,serif" font-size="14.00">ProductsModule</text>
</g>
<!-- ProductsModule&#45;&gt;CartModule -->
<g id="edge12" class="edge">
<title>ProductsModule&#45;&gt;CartModule</title>
<path fill="none" stroke="black" d="M1697.79,-266.2C1697.79,-290.36 1697.79,-330 1697.79,-330 1697.79,-330 1702.26,-330 1702.26,-330"/>
<polygon fill="black" stroke="black" points="1702.26,-333.5 1712.26,-330 1702.26,-326.5 1702.26,-333.5"/>
</g>
<!-- ProductsModule&#45;&gt;AppModule -->
<g id="edge4" class="edge">
<title>ProductsModule&#45;&gt;AppModule</title>
<path fill="none" stroke="black" d="M1695.3,-266.18C1695.3,-266.18 1695.3,-428.71 1695.3,-428.71"/>
<polygon fill="black" stroke="black" points="1691.8,-428.71 1695.3,-438.71 1698.8,-428.71 1691.8,-428.71"/>
</g>
<!-- ProductsService  -->
<g id="node25" class="node">
<title>ProductsService </title>
<polygon fill="#fb8072" stroke="black" points="2125.47,-190 2014.53,-190 2014.53,-154 2125.47,-154 2125.47,-190"/>
<text text-anchor="middle" x="2070" y="-167.8" font-family="Times,serif" font-size="14.00">ProductsService </text>
</g>
<!-- ProductsModule&#45;&gt;ProductsService  -->
<g id="edge27" class="edge">
<title>ProductsModule&#45;&gt;ProductsService </title>
<path fill="none" stroke="black" stroke-dasharray="5,2" d="M1664.09,-229.88C1664.09,-215.22 1664.09,-197 1664.09,-197 1664.09,-197 2070,-197 2070,-197 2070,-197 2070,-196.32 2070,-196.32"/>
<polygon fill="black" stroke="black" points="2073.5,-200.17 2070,-190.17 2066.5,-200.17 2073.5,-200.17"/>
</g>
<!-- UsersModule -->
<g id="node5" class="node">
<title>UsersModule</title>
<polygon fill="#8dd3c7" stroke="black" points="1809.92,-266 1806.92,-270 1785.92,-270 1782.92,-266 1718.08,-266 1718.08,-230 1809.92,-230 1809.92,-266"/>
<text text-anchor="middle" x="1764" y="-243.8" font-family="Times,serif" font-size="14.00">UsersModule</text>
</g>
<!-- UsersModule&#45;&gt;CartModule -->
<g id="edge13" class="edge">
<title>UsersModule&#45;&gt;CartModule</title>
<path fill="none" stroke="black" d="M1757.06,-266.01C1757.06,-266.01 1757.06,-295.85 1757.06,-295.85"/>
<polygon fill="black" stroke="black" points="1753.56,-295.85 1757.06,-305.85 1760.56,-295.85 1753.56,-295.85"/>
</g>
<!-- UsersModule&#45;&gt;AppModule -->
<g id="edge5" class="edge">
<title>UsersModule&#45;&gt;AppModule</title>
<path fill="none" stroke="black" d="M1718.19,-248C1711.18,-248 1706.22,-248 1706.22,-248 1706.22,-248 1706.22,-428.82 1706.22,-428.82"/>
<polygon fill="black" stroke="black" points="1702.72,-428.82 1706.22,-438.82 1709.72,-428.82 1702.72,-428.82"/>
</g>
<!-- UsersService  -->
<g id="node32" class="node">
<title>UsersService </title>
<polygon fill="#fb8072" stroke="black" points="2258.85,-190 2165.15,-190 2165.15,-154 2258.85,-154 2258.85,-190"/>
<text text-anchor="middle" x="2212" y="-167.8" font-family="Times,serif" font-size="14.00">UsersService </text>
</g>
<!-- UsersModule&#45;&gt;UsersService  -->
<g id="edge34" class="edge">
<title>UsersModule&#45;&gt;UsersService </title>
<path fill="none" stroke="black" stroke-dasharray="5,2" d="M1804.73,-229.96C1804.73,-217.44 1804.73,-203 1804.73,-203 1804.73,-203 2182.91,-203 2182.91,-203 2182.91,-203 2182.91,-200.03 2182.91,-200.03"/>
<polygon fill="black" stroke="black" points="2186.41,-200.03 2182.91,-190.03 2179.41,-200.03 2186.41,-200.03"/>
</g>
<!-- AppService -->
<g id="node7" class="node">
<title>AppService</title>
<ellipse fill="#fdb462" stroke="black" cx="1891" cy="-392" rx="56.74" ry="18"/>
<text text-anchor="middle" x="1891" y="-387.8" font-family="Times,serif" font-size="14.00">AppService</text>
</g>
<!-- AppService&#45;&gt;AppModule -->
<g id="edge6" class="edge">
<title>AppService&#45;&gt;AppModule</title>
<path fill="none" stroke="black" d="M1837.61,-398C1790.97,-398 1730.66,-398 1730.66,-398 1730.66,-398 1730.66,-428.98 1730.66,-428.98"/>
<polygon fill="black" stroke="black" points="1727.16,-428.98 1730.66,-438.98 1734.16,-428.98 1727.16,-428.98"/>
</g>
<!-- AuthService -->
<g id="node9" class="node">
<title>AuthService</title>
<ellipse fill="#fdb462" stroke="black" cx="317" cy="-172" rx="59.11" ry="18"/>
<text text-anchor="middle" x="317" y="-167.8" font-family="Times,serif" font-size="14.00">AuthService</text>
</g>
<!-- AuthService&#45;&gt;AuthModule -->
<g id="edge8" class="edge">
<title>AuthService&#45;&gt;AuthModule</title>
<path fill="none" stroke="black" d="M317,-190.15C317,-213.76 317,-252 317,-252 317,-252 1476.11,-252 1476.11,-252"/>
<polygon fill="black" stroke="black" points="1476.11,-255.5 1486.11,-252 1476.11,-248.5 1476.11,-255.5"/>
</g>
<!-- GenerateTokensProvider -->
<g id="node10" class="node">
<title>GenerateTokensProvider</title>
<ellipse fill="#fdb462" stroke="black" cx="132" cy="-172" rx="107.63" ry="18"/>
<text text-anchor="middle" x="132" y="-167.8" font-family="Times,serif" font-size="14.00">GenerateTokensProvider</text>
</g>
<!-- GenerateTokensProvider&#45;&gt;AuthModule -->
<g id="edge9" class="edge">
<title>GenerateTokensProvider&#45;&gt;AuthModule</title>
<path fill="none" stroke="black" d="M132,-190.03C132,-215.51 132,-259 132,-259 132,-259 1476.24,-259 1476.24,-259"/>
<polygon fill="black" stroke="black" points="1476.24,-262.5 1486.24,-259 1476.24,-255.5 1476.24,-262.5"/>
</g>
<!-- SignInProvider -->
<g id="node11" class="node">
<title>SignInProvider</title>
<ellipse fill="#fdb462" stroke="black" cx="464" cy="-172" rx="70.08" ry="18"/>
<text text-anchor="middle" x="464" y="-167.8" font-family="Times,serif" font-size="14.00">SignInProvider</text>
</g>
<!-- SignInProvider&#45;&gt;AuthModule -->
<g id="edge10" class="edge">
<title>SignInProvider&#45;&gt;AuthModule</title>
<path fill="none" stroke="black" d="M464,-190.04C464,-211.66 464,-245 464,-245 464,-245 1476.22,-245 1476.22,-245"/>
<polygon fill="black" stroke="black" points="1476.22,-248.5 1486.22,-245 1476.22,-241.5 1476.22,-248.5"/>
</g>
<!-- Product -->
<g id="node12" class="node">
<title>Product</title>
<polygon fill="#8dd3c7" stroke="black" points="2886.55,-266 2883.55,-270 2862.55,-270 2859.55,-266 2827.45,-266 2827.45,-230 2886.55,-230 2886.55,-266"/>
<text text-anchor="middle" x="2857" y="-243.8" font-family="Times,serif" font-size="14.00">Product</text>
</g>
<!-- Product&#45;&gt;CartModule -->
<g id="edge11" class="edge">
<title>Product&#45;&gt;CartModule</title>
<path fill="none" stroke="black" d="M2857,-266.01C2857,-292.02 2857,-337 2857,-337 2857,-337 1805.89,-337 1805.89,-337"/>
<polygon fill="black" stroke="black" points="1805.89,-333.5 1795.89,-337 1805.89,-340.5 1805.89,-333.5"/>
</g>
<!-- AddToCartProvider -->
<g id="node14" class="node">
<title>AddToCartProvider</title>
<ellipse fill="#fdb462" stroke="black" cx="2605" cy="-248" rx="88.04" ry="18"/>
<text text-anchor="middle" x="2605" y="-243.8" font-family="Times,serif" font-size="14.00">AddToCartProvider</text>
</g>
<!-- AddToCartProvider&#45;&gt;CartModule -->
<g id="edge15" class="edge">
<title>AddToCartProvider&#45;&gt;CartModule</title>
<path fill="none" stroke="black" d="M2605,-266.32C2605,-289.66 2605,-327 2605,-327 2605,-327 1805.91,-327 1805.91,-327"/>
<polygon fill="black" stroke="black" points="1805.91,-323.5 1795.91,-327 1805.91,-330.5 1805.91,-323.5"/>
</g>
<!-- CartService -->
<g id="node15" class="node">
<title>CartService</title>
<ellipse fill="#fdb462" stroke="black" cx="2442" cy="-248" rx="56.73" ry="18"/>
<text text-anchor="middle" x="2442" y="-243.8" font-family="Times,serif" font-size="14.00">CartService</text>
</g>
<!-- CartService&#45;&gt;CartModule -->
<g id="edge16" class="edge">
<title>CartService&#45;&gt;CartModule</title>
<path fill="none" stroke="black" d="M2442,-266.29C2442,-288.21 2442,-322 2442,-322 2442,-322 1805.74,-322 1805.74,-322"/>
<polygon fill="black" stroke="black" points="1805.74,-318.5 1795.74,-322 1805.74,-325.5 1805.74,-318.5"/>
</g>
<!-- GetCartProvider -->
<g id="node16" class="node">
<title>GetCartProvider</title>
<ellipse fill="#fdb462" stroke="black" cx="2293" cy="-248" rx="74.71" ry="18"/>
<text text-anchor="middle" x="2293" y="-243.8" font-family="Times,serif" font-size="14.00">GetCartProvider</text>
</g>
<!-- GetCartProvider&#45;&gt;CartModule -->
<g id="edge17" class="edge">
<title>GetCartProvider&#45;&gt;CartModule</title>
<path fill="none" stroke="black" d="M2293,-266.13C2293,-286.57 2293,-317 2293,-317 2293,-317 1805.85,-317 1805.85,-317"/>
<polygon fill="black" stroke="black" points="1805.85,-313.5 1795.85,-317 1805.85,-320.5 1805.85,-313.5"/>
</g>
<!-- UpdateCartItemProvider -->
<g id="node17" class="node">
<title>UpdateCartItemProvider</title>
<ellipse fill="#fdb462" stroke="black" cx="2094" cy="-248" rx="106.5" ry="18"/>
<text text-anchor="middle" x="2094" y="-243.8" font-family="Times,serif" font-size="14.00">UpdateCartItemProvider</text>
</g>
<!-- UpdateCartItemProvider&#45;&gt;CartModule -->
<g id="edge18" class="edge">
<title>UpdateCartItemProvider&#45;&gt;CartModule</title>
<path fill="none" stroke="black" d="M2094,-266.17C2094,-285.09 2094,-312 2094,-312 2094,-312 1805.69,-312 1805.69,-312"/>
<polygon fill="black" stroke="black" points="1805.69,-308.5 1795.69,-312 1805.69,-315.5 1805.69,-308.5"/>
</g>
<!-- CreateOrderProvider -->
<g id="node18" class="node">
<title>CreateOrderProvider</title>
<ellipse fill="#fdb462" stroke="black" cx="1354" cy="-324" rx="92.01" ry="18"/>
<text text-anchor="middle" x="1354" y="-319.8" font-family="Times,serif" font-size="14.00">CreateOrderProvider</text>
</g>
<!-- CreateOrderProvider&#45;&gt;OrdersModule -->
<g id="edge20" class="edge">
<title>CreateOrderProvider&#45;&gt;OrdersModule</title>
<path fill="none" stroke="black" d="M1441.01,-318C1526.43,-318 1644,-318 1644,-318 1644,-318 1644,-363.71 1644,-363.71"/>
<polygon fill="black" stroke="black" points="1640.5,-363.71 1644,-373.71 1647.5,-363.71 1640.5,-363.71"/>
</g>
<!-- FindAllOrdersForUserProvider -->
<g id="node19" class="node">
<title>FindAllOrdersForUserProvider</title>
<ellipse fill="#fdb462" stroke="black" cx="1112" cy="-324" rx="132.5" ry="18"/>
<text text-anchor="middle" x="1112" y="-319.8" font-family="Times,serif" font-size="14.00">FindAllOrdersForUserProvider</text>
</g>
<!-- FindAllOrdersForUserProvider&#45;&gt;OrdersModule -->
<g id="edge21" class="edge">
<title>FindAllOrdersForUserProvider&#45;&gt;OrdersModule</title>
<path fill="none" stroke="black" d="M1112,-342.02C1112,-359.37 1112,-383 1112,-383 1112,-383 1584.9,-383 1584.9,-383"/>
<polygon fill="black" stroke="black" points="1584.9,-386.5 1594.9,-383 1584.9,-379.5 1584.9,-386.5"/>
</g>
<!-- FindOrderByIdProvider -->
<g id="node20" class="node">
<title>FindOrderByIdProvider</title>
<ellipse fill="#fdb462" stroke="black" cx="858" cy="-324" rx="103.65" ry="18"/>
<text text-anchor="middle" x="858" y="-319.8" font-family="Times,serif" font-size="14.00">FindOrderByIdProvider</text>
</g>
<!-- FindOrderByIdProvider&#45;&gt;OrdersModule -->
<g id="edge22" class="edge">
<title>FindOrderByIdProvider&#45;&gt;OrdersModule</title>
<path fill="none" stroke="black" d="M858,-342.22C858,-362.37 858,-392 858,-392 858,-392 1585.13,-392 1585.13,-392"/>
<polygon fill="black" stroke="black" points="1585.13,-395.5 1595.13,-392 1585.13,-388.5 1585.13,-395.5"/>
</g>
<!-- OrdersService -->
<g id="node21" class="node">
<title>OrdersService</title>
<ellipse fill="#fdb462" stroke="black" cx="670" cy="-324" rx="66.03" ry="18"/>
<text text-anchor="middle" x="670" y="-319.8" font-family="Times,serif" font-size="14.00">OrdersService</text>
</g>
<!-- OrdersService&#45;&gt;OrdersModule -->
<g id="edge23" class="edge">
<title>OrdersService&#45;&gt;OrdersModule</title>
<path fill="none" stroke="black" d="M670,-342.25C670,-365.02 670,-401 670,-401 670,-401 1585.03,-401 1585.03,-401"/>
<polygon fill="black" stroke="black" points="1585.03,-404.5 1595.03,-401 1585.03,-397.5 1585.03,-404.5"/>
</g>
<!-- PaginationProvider  -->
<g id="node22" class="node">
<title>PaginationProvider </title>
<polygon fill="#fb8072" stroke="black" points="3244.59,-266 3117.41,-266 3117.41,-230 3244.59,-230 3244.59,-266"/>
<text text-anchor="middle" x="3181" y="-243.8" font-family="Times,serif" font-size="14.00">PaginationProvider </text>
</g>
<!-- PaginationModule -->
<g id="node23" class="node">
<title>PaginationModule</title>
<polygon fill="#8dd3c7" stroke="black" points="3240.93,-190 3237.93,-194 3216.93,-194 3213.93,-190 3121.07,-190 3121.07,-154 3240.93,-154 3240.93,-190"/>
<text text-anchor="middle" x="3181" y="-167.8" font-family="Times,serif" font-size="14.00">PaginationModule</text>
</g>
<!-- PaginationModule&#45;&gt;ProductsModule -->
<g id="edge26" class="edge">
<title>PaginationModule&#45;&gt;ProductsModule</title>
<path fill="none" stroke="black" d="M3161.09,-190.21C3161.09,-195.55 3161.09,-200 3161.09,-200 3161.09,-200 1688.21,-200 1688.21,-200 1688.21,-200 1688.21,-219.85 1688.21,-219.85"/>
<polygon fill="black" stroke="black" points="1684.71,-219.85 1688.21,-229.85 1691.71,-219.85 1684.71,-219.85"/>
</g>
<!-- PaginationModule&#45;&gt;PaginationProvider  -->
<g id="edge24" class="edge">
<title>PaginationModule&#45;&gt;PaginationProvider </title>
<path fill="none" stroke="black" stroke-dasharray="5,2" d="M3200.91,-190.01C3200.91,-190.01 3200.91,-219.85 3200.91,-219.85"/>
<polygon fill="black" stroke="black" points="3197.41,-219.85 3200.91,-229.85 3204.41,-219.85 3197.41,-219.85"/>
</g>
<!-- PaginationProvider -->
<g id="node24" class="node">
<title>PaginationProvider</title>
<ellipse fill="#fdb462" stroke="black" cx="3192" cy="-104" rx="85.69" ry="18"/>
<text text-anchor="middle" x="3192" y="-99.8" font-family="Times,serif" font-size="14.00">PaginationProvider</text>
</g>
<!-- PaginationProvider&#45;&gt;PaginationModule -->
<g id="edge25" class="edge">
<title>PaginationProvider&#45;&gt;PaginationModule</title>
<path fill="none" stroke="black" d="M3181,-121.87C3181,-121.87 3181,-143.54 3181,-143.54"/>
<polygon fill="black" stroke="black" points="3177.5,-143.54 3181,-153.54 3184.5,-143.54 3177.5,-143.54"/>
</g>
<!-- CreateProductProvider -->
<g id="node26" class="node">
<title>CreateProductProvider</title>
<ellipse fill="#fdb462" stroke="black" cx="1029" cy="-172" rx="99.56" ry="18"/>
<text text-anchor="middle" x="1029" y="-167.8" font-family="Times,serif" font-size="14.00">CreateProductProvider</text>
</g>
<!-- CreateProductProvider&#45;&gt;ProductsModule -->
<g id="edge28" class="edge">
<title>CreateProductProvider&#45;&gt;ProductsModule</title>
<path fill="none" stroke="black" d="M1054.14,-189.6C1054.14,-204.69 1054.14,-224 1054.14,-224 1054.14,-224 1615.85,-224 1615.85,-224 1615.85,-224 1615.85,-224.58 1615.85,-224.58"/>
<polygon fill="black" stroke="black" points="1612.35,-219.81 1615.85,-229.81 1619.35,-219.81 1612.35,-219.81"/>
</g>
<!-- DeleteProductProvider -->
<g id="node27" class="node">
<title>DeleteProductProvider</title>
<ellipse fill="#fdb462" stroke="black" cx="812" cy="-172" rx="99.56" ry="18"/>
<text text-anchor="middle" x="812" y="-167.8" font-family="Times,serif" font-size="14.00">DeleteProductProvider</text>
</g>
<!-- DeleteProductProvider&#45;&gt;ProductsModule -->
<g id="edge29" class="edge">
<title>DeleteProductProvider&#45;&gt;ProductsModule</title>
<path fill="none" stroke="black" d="M832.85,-189.71C832.85,-205.78 832.85,-227 832.85,-227 832.85,-227 1603.79,-227 1603.79,-227 1603.79,-227 1603.79,-227.29 1603.79,-227.29"/>
<polygon fill="black" stroke="black" points="1600.29,-219.92 1603.79,-229.92 1607.29,-219.92 1600.29,-219.92"/>
</g>
<!-- FindAllProductsProvider -->
<g id="node28" class="node">
<title>FindAllProductsProvider</title>
<ellipse fill="#fdb462" stroke="black" cx="1883" cy="-172" rx="108.26" ry="18"/>
<text text-anchor="middle" x="1883" y="-167.8" font-family="Times,serif" font-size="14.00">FindAllProductsProvider</text>
</g>
<!-- FindAllProductsProvider&#45;&gt;ProductsModule -->
<g id="edge30" class="edge">
<title>FindAllProductsProvider&#45;&gt;ProductsModule</title>
<path fill="none" stroke="black" d="M1779.85,-177.55C1779.85,-184.07 1779.85,-194 1779.85,-194 1779.85,-194 1676.15,-194 1676.15,-194 1676.15,-194 1676.15,-219.72 1676.15,-219.72"/>
<polygon fill="black" stroke="black" points="1672.65,-219.72 1676.15,-229.72 1679.65,-219.72 1672.65,-219.72"/>
</g>
<!-- FindProductByIdProvider -->
<g id="node29" class="node">
<title>FindProductByIdProvider</title>
<ellipse fill="#fdb462" stroke="black" cx="1646" cy="-172" rx="111.2" ry="18"/>
<text text-anchor="middle" x="1646" y="-167.8" font-family="Times,serif" font-size="14.00">FindProductByIdProvider</text>
</g>
<!-- FindProductByIdProvider&#45;&gt;ProductsModule -->
<g id="edge31" class="edge">
<title>FindProductByIdProvider&#45;&gt;ProductsModule</title>
<path fill="none" stroke="black" d="M1652.03,-190.01C1652.03,-190.01 1652.03,-219.85 1652.03,-219.85"/>
<polygon fill="black" stroke="black" points="1648.53,-219.85 1652.03,-229.85 1655.53,-219.85 1648.53,-219.85"/>
</g>
<!-- ProductsService -->
<g id="node30" class="node">
<title>ProductsService</title>
<ellipse fill="#fdb462" stroke="black" cx="1443" cy="-172" rx="73.57" ry="18"/>
<text text-anchor="middle" x="1443" y="-167.8" font-family="Times,serif" font-size="14.00">ProductsService</text>
</g>
<!-- ProductsService&#45;&gt;ProductsModule -->
<g id="edge32" class="edge">
<title>ProductsService&#45;&gt;ProductsModule</title>
<path fill="none" stroke="black" d="M1501.51,-183.14C1501.51,-196.75 1501.51,-218 1501.51,-218 1501.51,-218 1639.97,-218 1639.97,-218 1639.97,-218 1639.97,-219.86 1639.97,-219.86"/>
<polygon fill="black" stroke="black" points="1636.47,-219.86 1639.97,-229.86 1643.47,-219.86 1636.47,-219.86"/>
</g>
<!-- UpdateProductProvider -->
<g id="node31" class="node">
<title>UpdateProductProvider</title>
<ellipse fill="#fdb462" stroke="black" cx="1249" cy="-172" rx="102.43" ry="18"/>
<text text-anchor="middle" x="1249" y="-167.8" font-family="Times,serif" font-size="14.00">UpdateProductProvider</text>
</g>
<!-- UpdateProductProvider&#45;&gt;ProductsModule -->
<g id="edge33" class="edge">
<title>UpdateProductProvider&#45;&gt;ProductsModule</title>
<path fill="none" stroke="black" d="M1306.6,-186.97C1306.6,-201.38 1306.6,-221 1306.6,-221 1306.6,-221 1627.91,-221 1627.91,-221 1627.91,-221 1627.91,-221.88 1627.91,-221.88"/>
<polygon fill="black" stroke="black" points="1624.41,-219.84 1627.91,-229.84 1631.41,-219.84 1624.41,-219.84"/>
</g>
<!-- CreateUserProvider -->
<g id="node33" class="node">
<title>CreateUserProvider</title>
<ellipse fill="#fdb462" stroke="black" cx="2618" cy="-172" rx="87.94" ry="18"/>
<text text-anchor="middle" x="2618" y="-167.8" font-family="Times,serif" font-size="14.00">CreateUserProvider</text>
</g>
<!-- CreateUserProvider&#45;&gt;UsersModule -->
<g id="edge35" class="edge">
<title>CreateUserProvider&#45;&gt;UsersModule</title>
<path fill="none" stroke="black" d="M2611.78,-190.07C2611.78,-199.46 2611.78,-209 2611.78,-209 2611.78,-209 1789.8,-209 1789.8,-209 1789.8,-209 1789.8,-219.87 1789.8,-219.87"/>
<polygon fill="black" stroke="black" points="1786.3,-219.87 1789.8,-229.87 1793.3,-219.87 1786.3,-219.87"/>
</g>
<!-- FindUserByEmailProvider -->
<g id="node34" class="node">
<title>FindUserByEmailProvider</title>
<ellipse fill="#fdb462" stroke="black" cx="2398" cy="-172" rx="114.62" ry="18"/>
<text text-anchor="middle" x="2398" y="-167.8" font-family="Times,serif" font-size="14.00">FindUserByEmailProvider</text>
</g>
<!-- FindUserByEmailProvider&#45;&gt;UsersModule -->
<g id="edge36" class="edge">
<title>FindUserByEmailProvider&#45;&gt;UsersModule</title>
<path fill="none" stroke="black" d="M2325.65,-186.22C2325.65,-195.54 2325.65,-206 2325.65,-206 2325.65,-206 1784.82,-206 1784.82,-206 1784.82,-206 1784.82,-219.94 1784.82,-219.94"/>
<polygon fill="black" stroke="black" points="1781.32,-219.94 1784.82,-229.94 1788.32,-219.94 1781.32,-219.94"/>
</g>
<!-- FindUserByIdProvider -->
<g id="node35" class="node">
<title>FindUserByIdProvider</title>
<ellipse fill="#fdb462" stroke="black" cx="2966" cy="-172" rx="99.58" ry="18"/>
<text text-anchor="middle" x="2966" y="-167.8" font-family="Times,serif" font-size="14.00">FindUserByIdProvider</text>
</g>
<!-- FindUserByIdProvider&#45;&gt;UsersModule -->
<g id="edge37" class="edge">
<title>FindUserByIdProvider&#45;&gt;UsersModule</title>
<path fill="none" stroke="black" d="M2876.62,-180.29C2876.62,-192.79 2876.62,-215 2876.62,-215 2876.62,-215 1799.76,-215 1799.76,-215 1799.76,-215 1799.76,-219.96 1799.76,-219.96"/>
<polygon fill="black" stroke="black" points="1796.26,-219.96 1799.76,-229.96 1803.26,-219.96 1796.26,-219.96"/>
</g>
<!-- UsersService -->
<g id="node36" class="node">
<title>UsersService</title>
<ellipse fill="#fdb462" stroke="black" cx="2786" cy="-172" rx="61.95" ry="18"/>
<text text-anchor="middle" x="2786" y="-167.8" font-family="Times,serif" font-size="14.00">UsersService</text>
</g>
<!-- UsersService&#45;&gt;UsersModule -->
<g id="edge38" class="edge">
<title>UsersService&#45;&gt;UsersModule</title>
<path fill="none" stroke="black" d="M2763.41,-189.2C2763.41,-200.04 2763.41,-212 2763.41,-212 2763.41,-212 1794.78,-212 1794.78,-212 1794.78,-212 1794.78,-219.58 1794.78,-219.58"/>
<polygon fill="black" stroke="black" points="1791.28,-219.58 1794.78,-229.58 1798.28,-219.58 1791.28,-219.58"/>
</g>
</g>
</svg>
