<?xml version="1.0" encoding="UTF-8" standalone="no"?>
<!DOCTYPE svg PUBLIC "-//W3C//DTD SVG 1.1//EN"
 "http://www.w3.org/Graphics/SVG/1.1/DTD/svg11.dtd">
<!-- Generated by graphviz version 2.47.0 (20210316.0004)
 -->
<!-- Title: dependencies Pages: 1 -->
<svg width="3333pt" height="431pt"
 viewBox="0.00 0.00 3333.00 431.00" xmlns="http://www.w3.org/2000/svg" xmlns:xlink="http://www.w3.org/1999/xlink">
<g id="graph0" class="graph" transform="scale(1 1) rotate(0) translate(4 427)">
<title>dependencies</title>
<polygon fill="white" stroke="transparent" points="-4,4 -4,-427 3329,-427 3329,4 -4,4"/>
<text text-anchor="start" x="1641.51" y="-42.4" font-family="Times-12" font-weight="bold" font-size="14.00">Legend</text>
<polygon fill="#ffffb3" stroke="transparent" points="1428.5,-10 1428.5,-30 1448.5,-30 1448.5,-10 1428.5,-10"/>
<text text-anchor="start" x="1452.13" y="-15.4" font-family="Times-12" font-size="14.00"> &#160;Declarations</text>
<polygon fill="#8dd3c7" stroke="transparent" points="1541.5,-10 1541.5,-30 1561.5,-30 1561.5,-10 1541.5,-10"/>
<text text-anchor="start" x="1565.23" y="-15.4" font-family="Times-12" font-size="14.00"> &#160;Module</text>
<polygon fill="#80b1d3" stroke="transparent" points="1627.5,-10 1627.5,-30 1647.5,-30 1647.5,-10 1627.5,-10"/>
<text text-anchor="start" x="1651.28" y="-15.4" font-family="Times-12" font-size="14.00"> &#160;Bootstrap</text>
<polygon fill="#fdb462" stroke="transparent" points="1724.5,-10 1724.5,-30 1744.5,-30 1744.5,-10 1724.5,-10"/>
<text text-anchor="start" x="1748.17" y="-15.4" font-family="Times-12" font-size="14.00"> &#160;Providers</text>
<polygon fill="#fb8072" stroke="transparent" points="1820.5,-10 1820.5,-30 1840.5,-30 1840.5,-10 1820.5,-10"/>
<text text-anchor="start" x="1844.23" y="-15.4" font-family="Times-12" font-size="14.00"> &#160;Exports</text>
<g id="clust1" class="cluster">
<title>cluster_AppModule</title>
<polygon fill="none" stroke="black" stroke-dasharray="1,5" points="1399,-146 1399,-415 1892,-415 1892,-146 1399,-146"/>
</g>
<g id="clust6" class="cluster">
<title>cluster_AppModule_providers</title>
<polygon fill="none" stroke="black" points="1754,-298 1754,-350 1884,-350 1884,-298 1754,-298"/>
</g>
<g id="clust3" class="cluster">
<title>cluster_AppModule_imports</title>
<polygon fill="none" stroke="black" points="1407,-154 1407,-350 1746,-350 1746,-154 1407,-154"/>
</g>
<g id="clust13" class="cluster">
<title>cluster_CartModule</title>
<polygon fill="none" stroke="black" stroke-dasharray="1,5" points="1900,-146 1900,-214 2833,-214 2833,-146 1900,-146"/>
</g>
<g id="clust18" class="cluster">
<title>cluster_CartModule_providers</title>
<polygon fill="none" stroke="black" points="2102,-154 2102,-206 2825,-206 2825,-154 2102,-154"/>
</g>
<g id="clust16" class="cluster">
<title>cluster_CartModule_exports</title>
<polygon fill="none" stroke="black" points="1992,-154 1992,-206 2094,-206 2094,-154 1992,-154"/>
</g>
<g id="clust15" class="cluster">
<title>cluster_CartModule_imports</title>
<polygon fill="none" stroke="black" points="1908,-154 1908,-206 1984,-206 1984,-154 1908,-154"/>
</g>
<g id="clust19" class="cluster">
<title>cluster_OrdersModule</title>
<polygon fill="none" stroke="black" stroke-dasharray="1,5" points="517,-222 517,-290 1391,-290 1391,-222 517,-222"/>
</g>
<g id="clust24" class="cluster">
<title>cluster_OrdersModule_providers</title>
<polygon fill="none" stroke="black" points="525,-230 525,-282 1383,-282 1383,-230 525,-230"/>
</g>
<g id="clust7" class="cluster">
<title>cluster_AuthModule</title>
<polygon fill="none" stroke="black" stroke-dasharray="1,5" points="8,-70 8,-138 688,-138 688,-70 8,-70"/>
</g>
<g id="clust12" class="cluster">
<title>cluster_AuthModule_providers</title>
<polygon fill="none" stroke="black" points="154,-78 154,-130 680,-130 680,-78 154,-78"/>
</g>
<g id="clust10" class="cluster">
<title>cluster_AuthModule_exports</title>
<polygon fill="none" stroke="black" points="16,-78 16,-130 146,-130 146,-78 16,-78"/>
</g>
<g id="clust31" class="cluster">
<title>cluster_ProductsModule</title>
<polygon fill="none" stroke="black" stroke-dasharray="1,5" points="1637,-70 1637,-138 3226,-138 3226,-70 1637,-70"/>
</g>
<g id="clust33" class="cluster">
<title>cluster_ProductsModule_imports</title>
<polygon fill="none" stroke="black" points="3082,-78 3082,-130 3218,-130 3218,-78 3082,-78"/>
</g>
<g id="clust34" class="cluster">
<title>cluster_ProductsModule_exports</title>
<polygon fill="none" stroke="black" points="2948,-78 2948,-130 3074,-130 3074,-78 2948,-78"/>
</g>
<g id="clust36" class="cluster">
<title>cluster_ProductsModule_providers</title>
<polygon fill="none" stroke="black" points="1645,-78 1645,-130 2940,-130 2940,-78 1645,-78"/>
</g>
<g id="clust37" class="cluster">
<title>cluster_UsersModule</title>
<polygon fill="none" stroke="black" stroke-dasharray="1,5" points="696,-70 696,-138 1629,-138 1629,-70 696,-70"/>
</g>
<g id="clust40" class="cluster">
<title>cluster_UsersModule_exports</title>
<polygon fill="none" stroke="black" points="1511,-78 1511,-130 1621,-130 1621,-78 1511,-78"/>
</g>
<g id="clust42" class="cluster">
<title>cluster_UsersModule_providers</title>
<polygon fill="none" stroke="black" points="704,-78 704,-130 1503,-130 1503,-78 704,-78"/>
</g>
<g id="clust25" class="cluster">
<title>cluster_PaginationModule</title>
<polygon fill="none" stroke="black" stroke-dasharray="1,5" points="2961,-146 2961,-214 3317,-214 3317,-146 2961,-146"/>
</g>
<g id="clust28" class="cluster">
<title>cluster_PaginationModule_exports</title>
<polygon fill="none" stroke="black" points="3165,-154 3165,-206 3309,-206 3309,-154 3165,-154"/>
</g>
<g id="clust30" class="cluster">
<title>cluster_PaginationModule_providers</title>
<polygon fill="none" stroke="black" points="2969,-154 2969,-206 3157,-206 3157,-154 2969,-154"/>
</g>
<!-- AuthModule -->
<g id="node1" class="node">
<title>AuthModule</title>
<polygon fill="#8dd3c7" stroke="black" points="1502.55,-198 1499.55,-202 1478.55,-202 1475.55,-198 1415.45,-198 1415.45,-162 1502.55,-162 1502.55,-198"/>
<text text-anchor="middle" x="1459" y="-175.8" font-family="Times,serif" font-size="14.00">AuthModule</text>
</g>
<!-- AppModule -->
<g id="node6" class="node">
<title>AppModule</title>
<polygon fill="#8dd3c7" stroke="black" points="1664.66,-407 1661.66,-411 1640.66,-411 1637.66,-407 1581.34,-407 1581.34,-371 1664.66,-371 1664.66,-407"/>
<text text-anchor="middle" x="1623" y="-384.8" font-family="Times,serif" font-size="14.00">AppModule</text>
</g>
<!-- AuthModule&#45;&gt;AppModule -->
<g id="edge1" class="edge">
<title>AuthModule&#45;&gt;AppModule</title>
<path fill="none" stroke="black" d="M1459,-198.18C1459,-249.03 1459,-389 1459,-389 1459,-389 1571.19,-389 1571.19,-389"/>
<polygon fill="black" stroke="black" points="1571.19,-392.5 1581.19,-389 1571.19,-385.5 1571.19,-392.5"/>
</g>
<!-- HashingProvider  -->
<g id="node8" class="node">
<title>HashingProvider </title>
<polygon fill="#fb8072" stroke="black" points="138.37,-122 23.63,-122 23.63,-86 138.37,-86 138.37,-122"/>
<text text-anchor="middle" x="81" y="-99.8" font-family="Times,serif" font-size="14.00">HashingProvider </text>
</g>
<!-- AuthModule&#45;&gt;HashingProvider  -->
<g id="edge7" class="edge">
<title>AuthModule&#45;&gt;HashingProvider </title>
<path fill="none" stroke="black" stroke-dasharray="5,2" d="M1415.1,-191C1180.05,-191 81,-191 81,-191 81,-191 81,-132.03 81,-132.03"/>
<polygon fill="black" stroke="black" points="84.5,-132.03 81,-122.03 77.5,-132.03 84.5,-132.03"/>
</g>
<!-- CartModule -->
<g id="node2" class="node">
<title>CartModule</title>
<polygon fill="#8dd3c7" stroke="black" points="1723.65,-274 1720.65,-278 1699.65,-278 1696.65,-274 1640.35,-274 1640.35,-238 1723.65,-238 1723.65,-274"/>
<text text-anchor="middle" x="1682" y="-251.8" font-family="Times,serif" font-size="14.00">CartModule</text>
</g>
<!-- OrdersModule -->
<g id="node3" class="node">
<title>OrdersModule</title>
<polygon fill="#8dd3c7" stroke="black" points="1621.64,-342 1618.64,-346 1597.64,-346 1594.64,-342 1524.36,-342 1524.36,-306 1621.64,-306 1621.64,-342"/>
<text text-anchor="middle" x="1573" y="-319.8" font-family="Times,serif" font-size="14.00">OrdersModule</text>
</g>
<!-- CartModule&#45;&gt;OrdersModule -->
<g id="edge19" class="edge">
<title>CartModule&#45;&gt;OrdersModule</title>
<path fill="none" stroke="black" d="M1640.26,-265C1627.73,-265 1617.25,-265 1617.25,-265 1617.25,-265 1617.25,-295.98 1617.25,-295.98"/>
<polygon fill="black" stroke="black" points="1613.75,-295.98 1617.25,-305.98 1620.75,-295.98 1613.75,-295.98"/>
</g>
<!-- CartModule&#45;&gt;AppModule -->
<g id="edge2" class="edge">
<title>CartModule&#45;&gt;AppModule</title>
<path fill="none" stroke="black" d="M1648.39,-274.21C1648.39,-274.21 1648.39,-360.58 1648.39,-360.58"/>
<polygon fill="black" stroke="black" points="1644.89,-360.58 1648.39,-370.58 1651.89,-360.58 1644.89,-360.58"/>
</g>
<!-- CartService  -->
<g id="node13" class="node">
<title>CartService </title>
<polygon fill="#fb8072" stroke="black" points="2085.58,-198 2000.42,-198 2000.42,-162 2085.58,-162 2085.58,-198"/>
<text text-anchor="middle" x="2043" y="-175.8" font-family="Times,serif" font-size="14.00">CartService </text>
</g>
<!-- CartModule&#45;&gt;CartService  -->
<g id="edge14" class="edge">
<title>CartModule&#45;&gt;CartService </title>
<path fill="none" stroke="black" stroke-dasharray="5,2" d="M1723.76,-249C1818.79,-249 2043,-249 2043,-249 2043,-249 2043,-208.13 2043,-208.13"/>
<polygon fill="black" stroke="black" points="2046.5,-208.13 2043,-198.13 2039.5,-208.13 2046.5,-208.13"/>
</g>
<!-- OrdersModule&#45;&gt;AppModule -->
<g id="edge3" class="edge">
<title>OrdersModule&#45;&gt;AppModule</title>
<path fill="none" stroke="black" d="M1601.5,-342.11C1601.5,-342.11 1601.5,-360.99 1601.5,-360.99"/>
<polygon fill="black" stroke="black" points="1598,-360.99 1601.5,-370.99 1605,-360.99 1598,-360.99"/>
</g>
<!-- ProductsModule -->
<g id="node4" class="node">
<title>ProductsModule</title>
<polygon fill="#8dd3c7" stroke="black" points="1738.04,-198 1735.04,-202 1714.04,-202 1711.04,-198 1629.96,-198 1629.96,-162 1738.04,-162 1738.04,-198"/>
<text text-anchor="middle" x="1684" y="-175.8" font-family="Times,serif" font-size="14.00">ProductsModule</text>
</g>
<!-- ProductsModule&#45;&gt;CartModule -->
<g id="edge12" class="edge">
<title>ProductsModule&#45;&gt;CartModule</title>
<path fill="none" stroke="black" d="M1682,-198.01C1682,-198.01 1682,-227.85 1682,-227.85"/>
<polygon fill="black" stroke="black" points="1678.5,-227.85 1682,-237.85 1685.5,-227.85 1678.5,-227.85"/>
</g>
<!-- ProductsModule&#45;&gt;AppModule -->
<g id="edge4" class="edge">
<title>ProductsModule&#45;&gt;AppModule</title>
<path fill="none" stroke="black" d="M1634.95,-198.18C1634.95,-198.18 1634.95,-360.71 1634.95,-360.71"/>
<polygon fill="black" stroke="black" points="1631.45,-360.71 1634.95,-370.71 1638.45,-360.71 1631.45,-360.71"/>
</g>
<!-- ProductsService  -->
<g id="node25" class="node">
<title>ProductsService </title>
<polygon fill="#fb8072" stroke="black" points="3066.47,-122 2955.53,-122 2955.53,-86 3066.47,-86 3066.47,-122"/>
<text text-anchor="middle" x="3011" y="-99.8" font-family="Times,serif" font-size="14.00">ProductsService </text>
</g>
<!-- ProductsModule&#45;&gt;ProductsService  -->
<g id="edge27" class="edge">
<title>ProductsModule&#45;&gt;ProductsService </title>
<path fill="none" stroke="black" stroke-dasharray="5,2" d="M1674.67,-161.89C1674.67,-152.1 1674.67,-142 1674.67,-142 1674.67,-142 2966.58,-142 2966.58,-142 2966.58,-142 2966.58,-132.11 2966.58,-132.11"/>
<polygon fill="black" stroke="black" points="2970.08,-132.11 2966.58,-122.11 2963.08,-132.11 2970.08,-132.11"/>
</g>
<!-- UsersModule -->
<g id="node5" class="node">
<title>UsersModule</title>
<polygon fill="#8dd3c7" stroke="black" points="1611.92,-198 1608.92,-202 1587.92,-202 1584.92,-198 1520.08,-198 1520.08,-162 1611.92,-162 1611.92,-198"/>
<text text-anchor="middle" x="1566" y="-175.8" font-family="Times,serif" font-size="14.00">UsersModule</text>
</g>
<!-- UsersModule&#45;&gt;CartModule -->
<g id="edge13" class="edge">
<title>UsersModule&#45;&gt;CartModule</title>
<path fill="none" stroke="black" d="M1582.53,-198.31C1582.53,-218.15 1582.53,-247 1582.53,-247 1582.53,-247 1630.11,-247 1630.11,-247"/>
<polygon fill="black" stroke="black" points="1630.11,-250.5 1640.11,-247 1630.11,-243.5 1630.11,-250.5"/>
</g>
<!-- UsersModule&#45;&gt;AppModule -->
<g id="edge5" class="edge">
<title>UsersModule&#45;&gt;AppModule</title>
<path fill="none" stroke="black" d="M1611.91,-180C1619.94,-180 1625.77,-180 1625.77,-180 1625.77,-180 1625.77,-360.82 1625.77,-360.82"/>
<polygon fill="black" stroke="black" points="1622.27,-360.82 1625.77,-370.82 1629.27,-360.82 1622.27,-360.82"/>
</g>
<!-- UsersService  -->
<g id="node32" class="node">
<title>UsersService </title>
<polygon fill="#fb8072" stroke="black" points="1612.85,-122 1519.15,-122 1519.15,-86 1612.85,-86 1612.85,-122"/>
<text text-anchor="middle" x="1566" y="-99.8" font-family="Times,serif" font-size="14.00">UsersService </text>
</g>
<!-- UsersModule&#45;&gt;UsersService  -->
<g id="edge34" class="edge">
<title>UsersModule&#45;&gt;UsersService </title>
<path fill="none" stroke="black" stroke-dasharray="5,2" d="M1593.43,-161.99C1593.43,-161.99 1593.43,-132.15 1593.43,-132.15"/>
<polygon fill="black" stroke="black" points="1596.93,-132.15 1593.43,-122.15 1589.93,-132.15 1596.93,-132.15"/>
</g>
<!-- AppService -->
<g id="node7" class="node">
<title>AppService</title>
<ellipse fill="#fdb462" stroke="black" cx="1819" cy="-324" rx="56.74" ry="18"/>
<text text-anchor="middle" x="1819" y="-319.8" font-family="Times,serif" font-size="14.00">AppService</text>
</g>
<!-- AppService&#45;&gt;AppModule -->
<g id="edge6" class="edge">
<title>AppService&#45;&gt;AppModule</title>
<path fill="none" stroke="black" d="M1762.2,-324C1715.38,-324 1656.61,-324 1656.61,-324 1656.61,-324 1656.61,-360.89 1656.61,-360.89"/>
<polygon fill="black" stroke="black" points="1653.11,-360.89 1656.61,-370.89 1660.11,-360.89 1653.11,-360.89"/>
</g>
<!-- AuthService -->
<g id="node9" class="node">
<title>AuthService</title>
<ellipse fill="#fdb462" stroke="black" cx="455" cy="-104" rx="59.11" ry="18"/>
<text text-anchor="middle" x="455" y="-99.8" font-family="Times,serif" font-size="14.00">AuthService</text>
</g>
<!-- AuthService&#45;&gt;AuthModule -->
<g id="edge8" class="edge">
<title>AuthService&#45;&gt;AuthModule</title>
<path fill="none" stroke="black" d="M455,-122.04C455,-143.66 455,-177 455,-177 455,-177 1405.21,-177 1405.21,-177"/>
<polygon fill="black" stroke="black" points="1405.21,-180.5 1415.21,-177 1405.21,-173.5 1405.21,-180.5"/>
</g>
<!-- GenerateTokensProvider -->
<g id="node10" class="node">
<title>GenerateTokensProvider</title>
<ellipse fill="#fdb462" stroke="black" cx="270" cy="-104" rx="107.63" ry="18"/>
<text text-anchor="middle" x="270" y="-99.8" font-family="Times,serif" font-size="14.00">GenerateTokensProvider</text>
</g>
<!-- GenerateTokensProvider&#45;&gt;AuthModule -->
<g id="edge9" class="edge">
<title>GenerateTokensProvider&#45;&gt;AuthModule</title>
<path fill="none" stroke="black" d="M270,-122.15C270,-145.76 270,-184 270,-184 270,-184 1405.27,-184 1405.27,-184"/>
<polygon fill="black" stroke="black" points="1405.27,-187.5 1415.27,-184 1405.27,-180.5 1405.27,-187.5"/>
</g>
<!-- SignInProvider -->
<g id="node11" class="node">
<title>SignInProvider</title>
<ellipse fill="#fdb462" stroke="black" cx="602" cy="-104" rx="70.08" ry="18"/>
<text text-anchor="middle" x="602" y="-99.8" font-family="Times,serif" font-size="14.00">SignInProvider</text>
</g>
<!-- SignInProvider&#45;&gt;AuthModule -->
<g id="edge10" class="edge">
<title>SignInProvider&#45;&gt;AuthModule</title>
<path fill="none" stroke="black" d="M599,-122.03C599,-141.58 599,-170 599,-170 599,-170 1405.17,-170 1405.17,-170"/>
<polygon fill="black" stroke="black" points="1405.17,-173.5 1415.17,-170 1405.17,-166.5 1405.17,-173.5"/>
</g>
<!-- Product -->
<g id="node12" class="node">
<title>Product</title>
<polygon fill="#8dd3c7" stroke="black" points="1975.55,-198 1972.55,-202 1951.55,-202 1948.55,-198 1916.45,-198 1916.45,-162 1975.55,-162 1975.55,-198"/>
<text text-anchor="middle" x="1946" y="-175.8" font-family="Times,serif" font-size="14.00">Product</text>
</g>
<!-- Product&#45;&gt;CartModule -->
<g id="edge11" class="edge">
<title>Product&#45;&gt;CartModule</title>
<path fill="none" stroke="black" d="M1946,-198.17C1946,-217.09 1946,-244 1946,-244 1946,-244 1733.83,-244 1733.83,-244"/>
<polygon fill="black" stroke="black" points="1733.83,-240.5 1723.83,-244 1733.83,-247.5 1733.83,-240.5"/>
</g>
<!-- AddToCartProvider -->
<g id="node14" class="node">
<title>AddToCartProvider</title>
<ellipse fill="#fdb462" stroke="black" cx="2330" cy="-180" rx="88.04" ry="18"/>
<text text-anchor="middle" x="2330" y="-175.8" font-family="Times,serif" font-size="14.00">AddToCartProvider</text>
</g>
<!-- AddToCartProvider&#45;&gt;CartModule -->
<g id="edge15" class="edge">
<title>AddToCartProvider&#45;&gt;CartModule</title>
<path fill="none" stroke="black" d="M2330,-198.32C2330,-221.66 2330,-259 2330,-259 2330,-259 1734.02,-259 1734.02,-259"/>
<polygon fill="black" stroke="black" points="1734.02,-255.5 1724.02,-259 1734.02,-262.5 1734.02,-255.5"/>
</g>
<!-- CartService -->
<g id="node15" class="node">
<title>CartService</title>
<ellipse fill="#fdb462" stroke="black" cx="2167" cy="-180" rx="56.73" ry="18"/>
<text text-anchor="middle" x="2167" y="-175.8" font-family="Times,serif" font-size="14.00">CartService</text>
</g>
<!-- CartService&#45;&gt;CartModule -->
<g id="edge16" class="edge">
<title>CartService&#45;&gt;CartModule</title>
<path fill="none" stroke="black" d="M2167,-198.29C2167,-220.21 2167,-254 2167,-254 2167,-254 1733.77,-254 1733.77,-254"/>
<polygon fill="black" stroke="black" points="1733.77,-250.5 1723.77,-254 1733.77,-257.5 1733.77,-250.5"/>
</g>
<!-- GetCartProvider -->
<g id="node16" class="node">
<title>GetCartProvider</title>
<ellipse fill="#fdb462" stroke="black" cx="2742" cy="-180" rx="74.71" ry="18"/>
<text text-anchor="middle" x="2742" y="-175.8" font-family="Times,serif" font-size="14.00">GetCartProvider</text>
</g>
<!-- GetCartProvider&#45;&gt;CartModule -->
<g id="edge17" class="edge">
<title>GetCartProvider&#45;&gt;CartModule</title>
<path fill="none" stroke="black" d="M2742,-198.01C2742,-224.02 2742,-269 2742,-269 2742,-269 1733.88,-269 1733.88,-269"/>
<polygon fill="black" stroke="black" points="1733.88,-265.5 1723.88,-269 1733.88,-272.5 1733.88,-265.5"/>
</g>
<!-- UpdateCartItemProvider -->
<g id="node17" class="node">
<title>UpdateCartItemProvider</title>
<ellipse fill="#fdb462" stroke="black" cx="2543" cy="-180" rx="106.5" ry="18"/>
<text text-anchor="middle" x="2543" y="-175.8" font-family="Times,serif" font-size="14.00">UpdateCartItemProvider</text>
</g>
<!-- UpdateCartItemProvider&#45;&gt;CartModule -->
<g id="edge18" class="edge">
<title>UpdateCartItemProvider&#45;&gt;CartModule</title>
<path fill="none" stroke="black" d="M2543,-198.23C2543,-222.93 2543,-264 2543,-264 2543,-264 1733.82,-264 1733.82,-264"/>
<polygon fill="black" stroke="black" points="1733.82,-260.5 1723.82,-264 1733.82,-267.5 1733.82,-260.5"/>
</g>
<!-- CreateOrderProvider -->
<g id="node18" class="node">
<title>CreateOrderProvider</title>
<ellipse fill="#fdb462" stroke="black" cx="1283" cy="-256" rx="92.01" ry="18"/>
<text text-anchor="middle" x="1283" y="-251.8" font-family="Times,serif" font-size="14.00">CreateOrderProvider</text>
</g>
<!-- CreateOrderProvider&#45;&gt;OrdersModule -->
<g id="edge20" class="edge">
<title>CreateOrderProvider&#45;&gt;OrdersModule</title>
<path fill="none" stroke="black" d="M1375.29,-256C1453.61,-256 1553.36,-256 1553.36,-256 1553.36,-256 1553.36,-295.78 1553.36,-295.78"/>
<polygon fill="black" stroke="black" points="1549.86,-295.78 1553.36,-305.78 1556.86,-295.78 1549.86,-295.78"/>
</g>
<!-- FindAllOrdersForUserProvider -->
<g id="node19" class="node">
<title>FindAllOrdersForUserProvider</title>
<ellipse fill="#fdb462" stroke="black" cx="1041" cy="-256" rx="132.5" ry="18"/>
<text text-anchor="middle" x="1041" y="-251.8" font-family="Times,serif" font-size="14.00">FindAllOrdersForUserProvider</text>
</g>
<!-- FindAllOrdersForUserProvider&#45;&gt;OrdersModule -->
<g id="edge21" class="edge">
<title>FindAllOrdersForUserProvider&#45;&gt;OrdersModule</title>
<path fill="none" stroke="black" d="M1041,-274.02C1041,-291.37 1041,-315 1041,-315 1041,-315 1513.9,-315 1513.9,-315"/>
<polygon fill="black" stroke="black" points="1513.9,-318.5 1523.9,-315 1513.9,-311.5 1513.9,-318.5"/>
</g>
<!-- FindOrderByIdProvider -->
<g id="node20" class="node">
<title>FindOrderByIdProvider</title>
<ellipse fill="#fdb462" stroke="black" cx="787" cy="-256" rx="103.65" ry="18"/>
<text text-anchor="middle" x="787" y="-251.8" font-family="Times,serif" font-size="14.00">FindOrderByIdProvider</text>
</g>
<!-- FindOrderByIdProvider&#45;&gt;OrdersModule -->
<g id="edge22" class="edge">
<title>FindOrderByIdProvider&#45;&gt;OrdersModule</title>
<path fill="none" stroke="black" d="M787,-274.22C787,-294.37 787,-324 787,-324 787,-324 1514.13,-324 1514.13,-324"/>
<polygon fill="black" stroke="black" points="1514.13,-327.5 1524.13,-324 1514.13,-320.5 1514.13,-327.5"/>
</g>
<!-- OrdersService -->
<g id="node21" class="node">
<title>OrdersService</title>
<ellipse fill="#fdb462" stroke="black" cx="599" cy="-256" rx="66.03" ry="18"/>
<text text-anchor="middle" x="599" y="-251.8" font-family="Times,serif" font-size="14.00">OrdersService</text>
</g>
<!-- OrdersService&#45;&gt;OrdersModule -->
<g id="edge23" class="edge">
<title>OrdersService&#45;&gt;OrdersModule</title>
<path fill="none" stroke="black" d="M599,-274.25C599,-297.02 599,-333 599,-333 599,-333 1514.03,-333 1514.03,-333"/>
<polygon fill="black" stroke="black" points="1514.03,-336.5 1524.03,-333 1514.03,-329.5 1514.03,-336.5"/>
</g>
<!-- PaginationProvider  -->
<g id="node22" class="node">
<title>PaginationProvider </title>
<polygon fill="#fb8072" stroke="black" points="3300.59,-198 3173.41,-198 3173.41,-162 3300.59,-162 3300.59,-198"/>
<text text-anchor="middle" x="3237" y="-175.8" font-family="Times,serif" font-size="14.00">PaginationProvider </text>
</g>
<!-- PaginationModule -->
<g id="node23" class="node">
<title>PaginationModule</title>
<polygon fill="#8dd3c7" stroke="black" points="3209.93,-122 3206.93,-126 3185.93,-126 3182.93,-122 3090.07,-122 3090.07,-86 3209.93,-86 3209.93,-122"/>
<text text-anchor="middle" x="3150" y="-99.8" font-family="Times,serif" font-size="14.00">PaginationModule</text>
</g>
<!-- PaginationModule&#45;&gt;ProductsModule -->
<g id="edge26" class="edge">
<title>PaginationModule&#45;&gt;ProductsModule</title>
<path fill="none" stroke="black" d="M3109.72,-122.06C3109.72,-133.44 3109.72,-146 3109.72,-146 3109.72,-146 1727.67,-146 1727.67,-146 1727.67,-146 1727.67,-151.81 1727.67,-151.81"/>
<polygon fill="black" stroke="black" points="1724.17,-151.81 1727.67,-161.81 1731.17,-151.81 1724.17,-151.81"/>
</g>
<!-- PaginationModule&#45;&gt;PaginationProvider  -->
<g id="edge24" class="edge">
<title>PaginationModule&#45;&gt;PaginationProvider </title>
<path fill="none" stroke="black" stroke-dasharray="5,2" d="M3191.46,-122.01C3191.46,-122.01 3191.46,-151.85 3191.46,-151.85"/>
<polygon fill="black" stroke="black" points="3187.96,-151.85 3191.46,-161.85 3194.96,-151.85 3187.96,-151.85"/>
</g>
<!-- PaginationProvider -->
<g id="node24" class="node">
<title>PaginationProvider</title>
<ellipse fill="#fdb462" stroke="black" cx="3063" cy="-180" rx="85.69" ry="18"/>
<text text-anchor="middle" x="3063" y="-175.8" font-family="Times,serif" font-size="14.00">PaginationProvider</text>
</g>
<!-- PaginationProvider&#45;&gt;PaginationModule -->
<g id="edge25" class="edge">
<title>PaginationProvider&#45;&gt;PaginationModule</title>
<path fill="none" stroke="black" d="M3129.16,-168.46C3129.16,-168.46 3129.16,-132.17 3129.16,-132.17"/>
<polygon fill="black" stroke="black" points="3132.66,-132.17 3129.16,-122.17 3125.66,-132.17 3132.66,-132.17"/>
</g>
<!-- CreateProductProvider -->
<g id="node26" class="node">
<title>CreateProductProvider</title>
<ellipse fill="#fdb462" stroke="black" cx="1970" cy="-104" rx="99.56" ry="18"/>
<text text-anchor="middle" x="1970" y="-99.8" font-family="Times,serif" font-size="14.00">CreateProductProvider</text>
</g>
<!-- CreateProductProvider&#45;&gt;ProductsModule -->
<g id="edge28" class="edge">
<title>CreateProductProvider&#45;&gt;ProductsModule</title>
<path fill="none" stroke="black" d="M1895.92,-116.21C1895.92,-137.69 1895.92,-180 1895.92,-180 1895.92,-180 1748.3,-180 1748.3,-180"/>
<polygon fill="black" stroke="black" points="1748.3,-176.5 1738.3,-180 1748.3,-183.5 1748.3,-176.5"/>
</g>
<!-- DeleteProductProvider -->
<g id="node27" class="node">
<title>DeleteProductProvider</title>
<ellipse fill="#fdb462" stroke="black" cx="1753" cy="-104" rx="99.56" ry="18"/>
<text text-anchor="middle" x="1753" y="-99.8" font-family="Times,serif" font-size="14.00">DeleteProductProvider</text>
</g>
<!-- DeleteProductProvider&#45;&gt;ProductsModule -->
<g id="edge29" class="edge">
<title>DeleteProductProvider&#45;&gt;ProductsModule</title>
<path fill="none" stroke="black" d="M1664.07,-112.13C1664.07,-112.13 1664.07,-151.88 1664.07,-151.88"/>
<polygon fill="black" stroke="black" points="1660.57,-151.88 1664.07,-161.88 1667.57,-151.88 1660.57,-151.88"/>
</g>
<!-- FindAllProductsProvider -->
<g id="node28" class="node">
<title>FindAllProductsProvider</title>
<ellipse fill="#fdb462" stroke="black" cx="2824" cy="-104" rx="108.26" ry="18"/>
<text text-anchor="middle" x="2824" y="-99.8" font-family="Times,serif" font-size="14.00">FindAllProductsProvider</text>
</g>
<!-- FindAllProductsProvider&#45;&gt;ProductsModule -->
<g id="edge30" class="edge">
<title>FindAllProductsProvider&#45;&gt;ProductsModule</title>
<path fill="none" stroke="black" d="M2766.36,-119.41C2766.36,-128.4 2766.36,-138 2766.36,-138 2766.36,-138 1717.07,-138 1717.07,-138 1717.07,-138 1717.07,-151.94 1717.07,-151.94"/>
<polygon fill="black" stroke="black" points="1713.57,-151.94 1717.07,-161.94 1720.57,-151.94 1713.57,-151.94"/>
</g>
<!-- FindProductByIdProvider -->
<g id="node29" class="node">
<title>FindProductByIdProvider</title>
<ellipse fill="#fdb462" stroke="black" cx="2587" cy="-104" rx="111.2" ry="18"/>
<text text-anchor="middle" x="2587" y="-99.8" font-family="Times,serif" font-size="14.00">FindProductByIdProvider</text>
</g>
<!-- FindProductByIdProvider&#45;&gt;ProductsModule -->
<g id="edge31" class="edge">
<title>FindProductByIdProvider&#45;&gt;ProductsModule</title>
<path fill="none" stroke="black" d="M2562.57,-121.8C2562.57,-128.26 2562.57,-134 2562.57,-134 2562.57,-134 1706.47,-134 1706.47,-134 1706.47,-134 1706.47,-151.82 1706.47,-151.82"/>
<polygon fill="black" stroke="black" points="1702.97,-151.82 1706.47,-161.82 1709.97,-151.82 1702.97,-151.82"/>
</g>
<!-- ProductsService -->
<g id="node30" class="node">
<title>ProductsService</title>
<ellipse fill="#fdb462" stroke="black" cx="2384" cy="-104" rx="73.57" ry="18"/>
<text text-anchor="middle" x="2384" y="-99.8" font-family="Times,serif" font-size="14.00">ProductsService</text>
</g>
<!-- ProductsService&#45;&gt;ProductsModule -->
<g id="edge32" class="edge">
<title>ProductsService&#45;&gt;ProductsModule</title>
<path fill="none" stroke="black" d="M2364.24,-121.49C2364.24,-126.19 2364.24,-130 2364.24,-130 2364.24,-130 1695.87,-130 1695.87,-130 1695.87,-130 1695.87,-151.95 1695.87,-151.95"/>
<polygon fill="black" stroke="black" points="1692.37,-151.95 1695.87,-161.95 1699.37,-151.95 1692.37,-151.95"/>
</g>
<!-- UpdateProductProvider -->
<g id="node31" class="node">
<title>UpdateProductProvider</title>
<ellipse fill="#fdb462" stroke="black" cx="2190" cy="-104" rx="102.43" ry="18"/>
<text text-anchor="middle" x="2190" y="-99.8" font-family="Times,serif" font-size="14.00">UpdateProductProvider</text>
</g>
<!-- UpdateProductProvider&#45;&gt;ProductsModule -->
<g id="edge33" class="edge">
<title>UpdateProductProvider&#45;&gt;ProductsModule</title>
<path fill="none" stroke="black" d="M2099.08,-112.44C2099.08,-118.65 2099.08,-126 2099.08,-126 2099.08,-126 1685.27,-126 1685.27,-126 1685.27,-126 1685.27,-151.72 1685.27,-151.72"/>
<polygon fill="black" stroke="black" points="1681.77,-151.72 1685.27,-161.72 1688.77,-151.72 1681.77,-151.72"/>
</g>
<!-- CreateUserProvider -->
<g id="node33" class="node">
<title>CreateUserProvider</title>
<ellipse fill="#fdb462" stroke="black" cx="1047" cy="-104" rx="87.94" ry="18"/>
<text text-anchor="middle" x="1047" y="-99.8" font-family="Times,serif" font-size="14.00">CreateUserProvider</text>
</g>
<!-- CreateUserProvider&#45;&gt;UsersModule -->
<g id="edge35" class="edge">
<title>CreateUserProvider&#45;&gt;UsersModule</title>
<path fill="none" stroke="black" d="M1047,-122.05C1047,-136.37 1047,-154 1047,-154 1047,-154 1556.86,-154 1556.86,-154 1556.86,-154 1556.86,-154.79 1556.86,-154.79"/>
<polygon fill="black" stroke="black" points="1553.36,-151.94 1556.86,-161.94 1560.36,-151.94 1553.36,-151.94"/>
</g>
<!-- FindUserByEmailProvider -->
<g id="node34" class="node">
<title>FindUserByEmailProvider</title>
<ellipse fill="#fdb462" stroke="black" cx="827" cy="-104" rx="114.62" ry="18"/>
<text text-anchor="middle" x="827" y="-99.8" font-family="Times,serif" font-size="14.00">FindUserByEmailProvider</text>
</g>
<!-- FindUserByEmailProvider&#45;&gt;UsersModule -->
<g id="edge36" class="edge">
<title>FindUserByEmailProvider&#45;&gt;UsersModule</title>
<path fill="none" stroke="black" d="M925.16,-113.41C925.16,-128.88 925.16,-158 925.16,-158 925.16,-158 1538.57,-158 1538.57,-158 1538.57,-158 1538.57,-158.38 1538.57,-158.38"/>
<polygon fill="black" stroke="black" points="1535.07,-151.83 1538.57,-161.83 1542.07,-151.83 1535.07,-151.83"/>
</g>
<!-- FindUserByIdProvider -->
<g id="node35" class="node">
<title>FindUserByIdProvider</title>
<ellipse fill="#fdb462" stroke="black" cx="1395" cy="-104" rx="99.58" ry="18"/>
<text text-anchor="middle" x="1395" y="-99.8" font-family="Times,serif" font-size="14.00">FindUserByIdProvider</text>
</g>
<!-- FindUserByIdProvider&#45;&gt;UsersModule -->
<g id="edge37" class="edge">
<title>FindUserByIdProvider&#45;&gt;UsersModule</title>
<path fill="none" stroke="black" d="M1494.91,-104C1504.67,-104 1511.05,-104 1511.05,-104 1511.05,-104 1511.05,-180 1511.05,-180 1511.05,-180 1511.96,-180 1511.96,-180"/>
<polygon fill="black" stroke="black" points="1510.12,-183.5 1520.12,-180 1510.12,-176.5 1510.12,-183.5"/>
</g>
<!-- UsersService -->
<g id="node36" class="node">
<title>UsersService</title>
<ellipse fill="#fdb462" stroke="black" cx="1215" cy="-104" rx="61.95" ry="18"/>
<text text-anchor="middle" x="1215" y="-99.8" font-family="Times,serif" font-size="14.00">UsersService</text>
</g>
<!-- UsersService&#45;&gt;UsersModule -->
<g id="edge38" class="edge">
<title>UsersService&#45;&gt;UsersModule</title>
<path fill="none" stroke="black" d="M1233.99,-121.39C1233.99,-134.42 1233.99,-150 1233.99,-150 1233.99,-150 1575.14,-150 1575.14,-150 1575.14,-150 1575.14,-151.86 1575.14,-151.86"/>
<polygon fill="black" stroke="black" points="1571.64,-151.86 1575.14,-161.86 1578.64,-151.86 1571.64,-151.86"/>
</g>
</g>
</svg>
