<?xml version="1.0" encoding="UTF-8" standalone="no"?>
<!DOCTYPE svg PUBLIC "-//W3C//DTD SVG 1.1//EN"
 "http://www.w3.org/Graphics/SVG/1.1/DTD/svg11.dtd">
<!-- Generated by graphviz version 2.47.0 (20210316.0004)
 -->
<!-- Title: dependencies Pages: 1 -->
<svg width="4154pt" height="439pt"
 viewBox="0.00 0.00 4154.00 439.00" xmlns="http://www.w3.org/2000/svg" xmlns:xlink="http://www.w3.org/1999/xlink">
<g id="graph0" class="graph" transform="scale(1 1) rotate(0) translate(4 435)">
<title>dependencies</title>
<polygon fill="white" stroke="transparent" points="-4,4 -4,-435 4150,-435 4150,4 -4,4"/>
<text text-anchor="start" x="2052.01" y="-42.4" font-family="Times-12" font-weight="bold" font-size="14.00">Legend</text>
<polygon fill="#ffffb3" stroke="transparent" points="1839,-10 1839,-30 1859,-30 1859,-10 1839,-10"/>
<text text-anchor="start" x="1862.63" y="-15.4" font-family="Times-12" font-size="14.00"> &#160;Declarations</text>
<polygon fill="#8dd3c7" stroke="transparent" points="1952,-10 1952,-30 1972,-30 1972,-10 1952,-10"/>
<text text-anchor="start" x="1975.73" y="-15.4" font-family="Times-12" font-size="14.00"> &#160;Module</text>
<polygon fill="#80b1d3" stroke="transparent" points="2038,-10 2038,-30 2058,-30 2058,-10 2038,-10"/>
<text text-anchor="start" x="2061.78" y="-15.4" font-family="Times-12" font-size="14.00"> &#160;Bootstrap</text>
<polygon fill="#fdb462" stroke="transparent" points="2135,-10 2135,-30 2155,-30 2155,-10 2135,-10"/>
<text text-anchor="start" x="2158.67" y="-15.4" font-family="Times-12" font-size="14.00"> &#160;Providers</text>
<polygon fill="#fb8072" stroke="transparent" points="2231,-10 2231,-30 2251,-30 2251,-10 2231,-10"/>
<text text-anchor="start" x="2254.73" y="-15.4" font-family="Times-12" font-size="14.00"> &#160;Exports</text>
<g id="clust7" class="cluster">
<title>cluster_AuthModule</title>
<polygon fill="none" stroke="black" stroke-dasharray="1,5" points="8,-214 8,-423 550,-423 550,-214 8,-214"/>
</g>
<g id="clust10" class="cluster">
<title>cluster_AuthModule_exports</title>
<polygon fill="none" stroke="black" points="317,-363 317,-415 447,-415 447,-363 317,-363"/>
</g>
<g id="clust12" class="cluster">
<title>cluster_AuthModule_providers</title>
<polygon fill="none" stroke="black" points="16,-222 16,-274 542,-274 542,-222 16,-222"/>
</g>
<g id="clust37" class="cluster">
<title>cluster_UsersModule</title>
<polygon fill="none" stroke="black" stroke-dasharray="1,5" points="3324,-70 3324,-282 4138,-282 4138,-70 3324,-70"/>
</g>
<g id="clust40" class="cluster">
<title>cluster_UsersModule_exports</title>
<polygon fill="none" stroke="black" points="3483,-222 3483,-274 3593,-274 3593,-222 3483,-222"/>
</g>
<g id="clust42" class="cluster">
<title>cluster_UsersModule_providers</title>
<polygon fill="none" stroke="black" points="3332,-78 3332,-130 4130,-130 4130,-78 3332,-78"/>
</g>
<g id="clust31" class="cluster">
<title>cluster_ProductsModule</title>
<polygon fill="none" stroke="black" stroke-dasharray="1,5" points="558,-70 558,-282 2013,-282 2013,-70 558,-70"/>
</g>
<g id="clust36" class="cluster">
<title>cluster_ProductsModule_providers</title>
<polygon fill="none" stroke="black" points="566,-78 566,-130 1861,-130 1861,-78 566,-78"/>
</g>
<g id="clust33" class="cluster">
<title>cluster_ProductsModule_imports</title>
<polygon fill="none" stroke="black" points="1869,-78 1869,-130 2005,-130 2005,-78 1869,-78"/>
</g>
<g id="clust34" class="cluster">
<title>cluster_ProductsModule_exports</title>
<polygon fill="none" stroke="black" points="1473,-222 1473,-274 1599,-274 1599,-222 1473,-222"/>
</g>
<g id="clust19" class="cluster">
<title>cluster_OrdersModule</title>
<polygon fill="none" stroke="black" stroke-dasharray="1,5" points="2334,-214 2334,-350 3316,-350 3316,-214 2334,-214"/>
</g>
<g id="clust21" class="cluster">
<title>cluster_OrdersModule_imports</title>
<polygon fill="none" stroke="black" points="2342,-222 2342,-274 2442,-274 2442,-222 2342,-222"/>
</g>
<g id="clust24" class="cluster">
<title>cluster_OrdersModule_providers</title>
<polygon fill="none" stroke="black" points="2450,-222 2450,-274 3308,-274 3308,-222 2450,-222"/>
</g>
<g id="clust25" class="cluster">
<title>cluster_PaginationModule</title>
<polygon fill="none" stroke="black" stroke-dasharray="1,5" points="2960,-138 2960,-206 3316,-206 3316,-138 2960,-138"/>
</g>
<g id="clust28" class="cluster">
<title>cluster_PaginationModule_exports</title>
<polygon fill="none" stroke="black" points="3164,-146 3164,-198 3308,-198 3308,-146 3164,-146"/>
</g>
<g id="clust30" class="cluster">
<title>cluster_PaginationModule_providers</title>
<polygon fill="none" stroke="black" points="2968,-146 2968,-198 3156,-198 3156,-146 2968,-146"/>
</g>
<g id="clust13" class="cluster">
<title>cluster_CartModule</title>
<polygon fill="none" stroke="black" stroke-dasharray="1,5" points="2021,-138 2021,-206 2952,-206 2952,-138 2021,-138"/>
</g>
<g id="clust16" class="cluster">
<title>cluster_CartModule_exports</title>
<polygon fill="none" stroke="black" points="2842,-146 2842,-198 2944,-198 2944,-146 2842,-146"/>
</g>
<g id="clust15" class="cluster">
<title>cluster_CartModule_imports</title>
<polygon fill="none" stroke="black" points="2758,-146 2758,-198 2834,-198 2834,-146 2758,-146"/>
</g>
<g id="clust18" class="cluster">
<title>cluster_CartModule_providers</title>
<polygon fill="none" stroke="black" points="2029,-146 2029,-198 2750,-198 2750,-146 2029,-146"/>
</g>
<g id="clust1" class="cluster">
<title>cluster_AppModule</title>
<polygon fill="none" stroke="black" stroke-dasharray="1,5" points="2180,-290 2180,-415 2326,-415 2326,-290 2180,-290"/>
</g>
<g id="clust6" class="cluster">
<title>cluster_AppModule_providers</title>
<polygon fill="none" stroke="black" points="2188,-298 2188,-350 2318,-350 2318,-298 2188,-298"/>
</g>
<!-- AuthModule -->
<g id="node1" class="node">
<title>AuthModule</title>
<polygon fill="#8dd3c7" stroke="black" points="425.55,-342 422.55,-346 401.55,-346 398.55,-342 338.45,-342 338.45,-306 425.55,-306 425.55,-342"/>
<text text-anchor="middle" x="382" y="-319.8" font-family="Times,serif" font-size="14.00">AuthModule</text>
</g>
<!-- AppModule -->
<g id="node6" class="node">
<title>AppModule</title>
<polygon fill="#8dd3c7" stroke="black" points="2282.66,-407 2279.66,-411 2258.66,-411 2255.66,-407 2199.34,-407 2199.34,-371 2282.66,-371 2282.66,-407"/>
<text text-anchor="middle" x="2241" y="-384.8" font-family="Times,serif" font-size="14.00">AppModule</text>
</g>
<!-- AuthModule&#45;&gt;AppModule -->
<g id="edge1" class="edge">
<title>AuthModule&#45;&gt;AppModule</title>
<path fill="none" stroke="black" d="M425.81,-324C454.52,-324 486.74,-324 486.74,-324 486.74,-324 486.74,-395 486.74,-395 486.74,-395 2188.94,-395 2188.94,-395"/>
<polygon fill="black" stroke="black" points="2188.94,-398.5 2198.94,-395 2188.94,-391.5 2188.94,-398.5"/>
</g>
<!-- HashingProvider  -->
<g id="node8" class="node">
<title>HashingProvider </title>
<polygon fill="#fb8072" stroke="black" points="439.37,-407 324.63,-407 324.63,-371 439.37,-371 439.37,-407"/>
<text text-anchor="middle" x="382" y="-384.8" font-family="Times,serif" font-size="14.00">HashingProvider </text>
</g>
<!-- AuthModule&#45;&gt;HashingProvider  -->
<g id="edge7" class="edge">
<title>AuthModule&#45;&gt;HashingProvider </title>
<path fill="none" stroke="black" stroke-dasharray="5,2" d="M382,-342.11C382,-342.11 382,-360.99 382,-360.99"/>
<polygon fill="black" stroke="black" points="378.5,-360.99 382,-370.99 385.5,-360.99 378.5,-360.99"/>
</g>
<!-- CartModule -->
<g id="node2" class="node">
<title>CartModule</title>
<polygon fill="#8dd3c7" stroke="black" points="2433.65,-266 2430.65,-270 2409.65,-270 2406.65,-266 2350.35,-266 2350.35,-230 2433.65,-230 2433.65,-266"/>
<text text-anchor="middle" x="2392" y="-243.8" font-family="Times,serif" font-size="14.00">CartModule</text>
</g>
<!-- OrdersModule -->
<g id="node3" class="node">
<title>OrdersModule</title>
<polygon fill="#8dd3c7" stroke="black" points="2666.64,-342 2663.64,-346 2642.64,-346 2639.64,-342 2569.36,-342 2569.36,-306 2666.64,-306 2666.64,-342"/>
<text text-anchor="middle" x="2618" y="-319.8" font-family="Times,serif" font-size="14.00">OrdersModule</text>
</g>
<!-- CartModule&#45;&gt;OrdersModule -->
<g id="edge19" class="edge">
<title>CartModule&#45;&gt;OrdersModule</title>
<path fill="none" stroke="black" d="M2405.94,-266.01C2405.94,-288.49 2405.94,-324 2405.94,-324 2405.94,-324 2559.35,-324 2559.35,-324"/>
<polygon fill="black" stroke="black" points="2559.35,-327.5 2569.35,-324 2559.35,-320.5 2559.35,-327.5"/>
</g>
<!-- CartModule&#45;&gt;AppModule -->
<g id="edge2" class="edge">
<title>CartModule&#45;&gt;AppModule</title>
<path fill="none" stroke="black" d="M2378.06,-266.08C2378.06,-302.23 2378.06,-380 2378.06,-380 2378.06,-380 2292.87,-380 2292.87,-380"/>
<polygon fill="black" stroke="black" points="2292.87,-376.5 2282.87,-380 2292.87,-383.5 2292.87,-376.5"/>
</g>
<!-- CartService  -->
<g id="node13" class="node">
<title>CartService </title>
<polygon fill="#fb8072" stroke="black" points="2935.58,-190 2850.42,-190 2850.42,-154 2935.58,-154 2935.58,-190"/>
<text text-anchor="middle" x="2893" y="-167.8" font-family="Times,serif" font-size="14.00">CartService </text>
</g>
<!-- CartModule&#45;&gt;CartService  -->
<g id="edge14" class="edge">
<title>CartModule&#45;&gt;CartService </title>
<path fill="none" stroke="black" stroke-dasharray="5,2" d="M2419.69,-229.81C2419.69,-221.72 2419.69,-214 2419.69,-214 2419.69,-214 2893,-214 2893,-214 2893,-214 2893,-200.06 2893,-200.06"/>
<polygon fill="black" stroke="black" points="2896.5,-200.06 2893,-190.06 2889.5,-200.06 2896.5,-200.06"/>
</g>
<!-- OrdersModule&#45;&gt;AppModule -->
<g id="edge3" class="edge">
<title>OrdersModule&#45;&gt;AppModule</title>
<path fill="none" stroke="black" d="M2618,-342.11C2618,-361.34 2618,-389 2618,-389 2618,-389 2292.79,-389 2292.79,-389"/>
<polygon fill="black" stroke="black" points="2292.79,-385.5 2282.79,-389 2292.79,-392.5 2292.79,-385.5"/>
</g>
<!-- ProductsModule -->
<g id="node4" class="node">
<title>ProductsModule</title>
<polygon fill="#8dd3c7" stroke="black" points="1590.04,-190 1587.04,-194 1566.04,-194 1563.04,-190 1481.96,-190 1481.96,-154 1590.04,-154 1590.04,-190"/>
<text text-anchor="middle" x="1536" y="-167.8" font-family="Times,serif" font-size="14.00">ProductsModule</text>
</g>
<!-- ProductsModule&#45;&gt;CartModule -->
<g id="edge12" class="edge">
<title>ProductsModule&#45;&gt;CartModule</title>
<path fill="none" stroke="black" d="M1590.11,-176C1618.52,-176 1647.49,-176 1647.49,-176 1647.49,-176 1647.49,-254 1647.49,-254 1647.49,-254 2340.11,-254 2340.11,-254"/>
<polygon fill="black" stroke="black" points="2340.11,-257.5 2350.11,-254 2340.11,-250.5 2340.11,-257.5"/>
</g>
<!-- ProductsModule&#45;&gt;AppModule -->
<g id="edge4" class="edge">
<title>ProductsModule&#45;&gt;AppModule</title>
<path fill="none" stroke="black" d="M1590.3,-183C1616.15,-183 1641.51,-183 1641.51,-183 1641.51,-183 1641.51,-383 1641.51,-383 1641.51,-383 2189.32,-383 2189.32,-383"/>
<polygon fill="black" stroke="black" points="2189.32,-386.5 2199.32,-383 2189.32,-379.5 2189.32,-386.5"/>
</g>
<!-- ProductsService  -->
<g id="node25" class="node">
<title>ProductsService </title>
<polygon fill="#fb8072" stroke="black" points="1591.47,-266 1480.53,-266 1480.53,-230 1591.47,-230 1591.47,-266"/>
<text text-anchor="middle" x="1536" y="-243.8" font-family="Times,serif" font-size="14.00">ProductsService </text>
</g>
<!-- ProductsModule&#45;&gt;ProductsService  -->
<g id="edge27" class="edge">
<title>ProductsModule&#45;&gt;ProductsService </title>
<path fill="none" stroke="black" stroke-dasharray="5,2" d="M1536,-190.01C1536,-190.01 1536,-219.85 1536,-219.85"/>
<polygon fill="black" stroke="black" points="1532.5,-219.85 1536,-229.85 1539.5,-219.85 1532.5,-219.85"/>
</g>
<!-- UsersModule -->
<g id="node5" class="node">
<title>UsersModule</title>
<polygon fill="#8dd3c7" stroke="black" points="3583.92,-190 3580.92,-194 3559.92,-194 3556.92,-190 3492.08,-190 3492.08,-154 3583.92,-154 3583.92,-190"/>
<text text-anchor="middle" x="3538" y="-167.8" font-family="Times,serif" font-size="14.00">UsersModule</text>
</g>
<!-- UsersModule&#45;&gt;CartModule -->
<g id="edge13" class="edge">
<title>UsersModule&#45;&gt;CartModule</title>
<path fill="none" stroke="black" d="M3522.76,-190.05C3522.76,-204.37 3522.76,-222 3522.76,-222 3522.76,-222 2431,-222 2431,-222 2431,-222 2431,-222.79 2431,-222.79"/>
<polygon fill="black" stroke="black" points="2427.5,-219.94 2431,-229.94 2434.5,-219.94 2427.5,-219.94"/>
</g>
<!-- UsersModule&#45;&gt;AppModule -->
<g id="edge5" class="edge">
<title>UsersModule&#45;&gt;AppModule</title>
<path fill="none" stroke="black" d="M3492.27,-178C3446.03,-178 3381.34,-178 3381.34,-178 3381.34,-178 3381.34,-398 3381.34,-398 3381.34,-398 2292.94,-398 2292.94,-398"/>
<polygon fill="black" stroke="black" points="2292.94,-394.5 2282.94,-398 2292.94,-401.5 2292.94,-394.5"/>
</g>
<!-- UsersService  -->
<g id="node32" class="node">
<title>UsersService </title>
<polygon fill="#fb8072" stroke="black" points="3584.85,-266 3491.15,-266 3491.15,-230 3584.85,-230 3584.85,-266"/>
<text text-anchor="middle" x="3538" y="-243.8" font-family="Times,serif" font-size="14.00">UsersService </text>
</g>
<!-- UsersModule&#45;&gt;UsersService  -->
<g id="edge34" class="edge">
<title>UsersModule&#45;&gt;UsersService </title>
<path fill="none" stroke="black" stroke-dasharray="5,2" d="M3553.24,-190.01C3553.24,-190.01 3553.24,-219.85 3553.24,-219.85"/>
<polygon fill="black" stroke="black" points="3549.74,-219.85 3553.24,-229.85 3556.74,-219.85 3549.74,-219.85"/>
</g>
<!-- AppService -->
<g id="node7" class="node">
<title>AppService</title>
<ellipse fill="#fdb462" stroke="black" cx="2253" cy="-324" rx="56.74" ry="18"/>
<text text-anchor="middle" x="2253" y="-319.8" font-family="Times,serif" font-size="14.00">AppService</text>
</g>
<!-- AppService&#45;&gt;AppModule -->
<g id="edge6" class="edge">
<title>AppService&#45;&gt;AppModule</title>
<path fill="none" stroke="black" d="M2241,-341.76C2241,-341.76 2241,-360.81 2241,-360.81"/>
<polygon fill="black" stroke="black" points="2237.5,-360.81 2241,-370.81 2244.5,-360.81 2237.5,-360.81"/>
</g>
<!-- AuthService -->
<g id="node9" class="node">
<title>AuthService</title>
<ellipse fill="#fdb462" stroke="black" cx="475" cy="-248" rx="59.11" ry="18"/>
<text text-anchor="middle" x="475" y="-243.8" font-family="Times,serif" font-size="14.00">AuthService</text>
</g>
<!-- AuthService&#45;&gt;AuthModule -->
<g id="edge8" class="edge">
<title>AuthService&#45;&gt;AuthModule</title>
<path fill="none" stroke="black" d="M420.73,-255.29C420.73,-255.29 420.73,-295.73 420.73,-295.73"/>
<polygon fill="black" stroke="black" points="417.23,-295.73 420.73,-305.73 424.23,-295.73 417.23,-295.73"/>
</g>
<!-- GenerateTokensProvider -->
<g id="node10" class="node">
<title>GenerateTokensProvider</title>
<ellipse fill="#fdb462" stroke="black" cx="290" cy="-248" rx="107.63" ry="18"/>
<text text-anchor="middle" x="290" y="-243.8" font-family="Times,serif" font-size="14.00">GenerateTokensProvider</text>
</g>
<!-- GenerateTokensProvider&#45;&gt;AuthModule -->
<g id="edge9" class="edge">
<title>GenerateTokensProvider&#45;&gt;AuthModule</title>
<path fill="none" stroke="black" d="M367.89,-260.55C367.89,-260.55 367.89,-295.74 367.89,-295.74"/>
<polygon fill="black" stroke="black" points="364.39,-295.74 367.89,-305.74 371.39,-295.74 364.39,-295.74"/>
</g>
<!-- SignInProvider -->
<g id="node11" class="node">
<title>SignInProvider</title>
<ellipse fill="#fdb462" stroke="black" cx="94" cy="-248" rx="70.08" ry="18"/>
<text text-anchor="middle" x="94" y="-243.8" font-family="Times,serif" font-size="14.00">SignInProvider</text>
</g>
<!-- SignInProvider&#45;&gt;AuthModule -->
<g id="edge10" class="edge">
<title>SignInProvider&#45;&gt;AuthModule</title>
<path fill="none" stroke="black" d="M94,-266.01C94,-288.49 94,-324 94,-324 94,-324 328.26,-324 328.26,-324"/>
<polygon fill="black" stroke="black" points="328.26,-327.5 338.26,-324 328.26,-320.5 328.26,-327.5"/>
</g>
<!-- Product -->
<g id="node12" class="node">
<title>Product</title>
<polygon fill="#8dd3c7" stroke="black" points="2825.55,-190 2822.55,-194 2801.55,-194 2798.55,-190 2766.45,-190 2766.45,-154 2825.55,-154 2825.55,-190"/>
<text text-anchor="middle" x="2796" y="-167.8" font-family="Times,serif" font-size="14.00">Product</text>
</g>
<!-- Product&#45;&gt;CartModule -->
<g id="edge11" class="edge">
<title>Product&#45;&gt;CartModule</title>
<path fill="none" stroke="black" d="M2791.03,-190.19C2791.03,-198.28 2791.03,-206 2791.03,-206 2791.03,-206 2428.17,-206 2428.17,-206 2428.17,-206 2428.17,-219.94 2428.17,-219.94"/>
<polygon fill="black" stroke="black" points="2424.67,-219.94 2428.17,-229.94 2431.67,-219.94 2424.67,-219.94"/>
</g>
<!-- AddToCartProvider -->
<g id="node14" class="node">
<title>AddToCartProvider</title>
<ellipse fill="#fdb462" stroke="black" cx="2654" cy="-172" rx="88.04" ry="18"/>
<text text-anchor="middle" x="2654" y="-167.8" font-family="Times,serif" font-size="14.00">AddToCartProvider</text>
</g>
<!-- AddToCartProvider&#45;&gt;CartModule -->
<g id="edge15" class="edge">
<title>AddToCartProvider&#45;&gt;CartModule</title>
<path fill="none" stroke="black" d="M2578,-181.39C2578,-188.83 2578,-198 2578,-198 2578,-198 2425.34,-198 2425.34,-198 2425.34,-198 2425.34,-219.95 2425.34,-219.95"/>
<polygon fill="black" stroke="black" points="2421.84,-219.95 2425.34,-229.95 2428.84,-219.95 2421.84,-219.95"/>
</g>
<!-- CartService -->
<g id="node15" class="node">
<title>CartService</title>
<ellipse fill="#fdb462" stroke="black" cx="2491" cy="-172" rx="56.73" ry="18"/>
<text text-anchor="middle" x="2491" y="-167.8" font-family="Times,serif" font-size="14.00">CartService</text>
</g>
<!-- CartService&#45;&gt;CartModule -->
<g id="edge16" class="edge">
<title>CartService&#45;&gt;CartModule</title>
<path fill="none" stroke="black" d="M2434.13,-172C2427.2,-172 2422.51,-172 2422.51,-172 2422.51,-172 2422.51,-219.99 2422.51,-219.99"/>
<polygon fill="black" stroke="black" points="2419.01,-219.99 2422.51,-229.99 2426.01,-219.99 2419.01,-219.99"/>
</g>
<!-- GetCartProvider -->
<g id="node16" class="node">
<title>GetCartProvider</title>
<ellipse fill="#fdb462" stroke="black" cx="2342" cy="-172" rx="74.71" ry="18"/>
<text text-anchor="middle" x="2342" y="-167.8" font-family="Times,serif" font-size="14.00">GetCartProvider</text>
</g>
<!-- GetCartProvider&#45;&gt;CartModule -->
<g id="edge17" class="edge">
<title>GetCartProvider&#45;&gt;CartModule</title>
<path fill="none" stroke="black" d="M2383.52,-187.02C2383.52,-187.02 2383.52,-219.8 2383.52,-219.8"/>
<polygon fill="black" stroke="black" points="2380.02,-219.8 2383.52,-229.8 2387.02,-219.8 2380.02,-219.8"/>
</g>
<!-- UpdateCartItemProvider -->
<g id="node17" class="node">
<title>UpdateCartItemProvider</title>
<ellipse fill="#fdb462" stroke="black" cx="2143" cy="-172" rx="106.5" ry="18"/>
<text text-anchor="middle" x="2143" y="-167.8" font-family="Times,serif" font-size="14.00">UpdateCartItemProvider</text>
</g>
<!-- UpdateCartItemProvider&#45;&gt;CartModule -->
<g id="edge18" class="edge">
<title>UpdateCartItemProvider&#45;&gt;CartModule</title>
<path fill="none" stroke="black" d="M2222.94,-184.19C2222.94,-204.25 2222.94,-242 2222.94,-242 2222.94,-242 2340.21,-242 2340.21,-242"/>
<polygon fill="black" stroke="black" points="2340.21,-245.5 2350.21,-242 2340.21,-238.5 2340.21,-245.5"/>
</g>
<!-- CreateOrderProvider -->
<g id="node18" class="node">
<title>CreateOrderProvider</title>
<ellipse fill="#fdb462" stroke="black" cx="3208" cy="-248" rx="92.01" ry="18"/>
<text text-anchor="middle" x="3208" y="-243.8" font-family="Times,serif" font-size="14.00">CreateOrderProvider</text>
</g>
<!-- CreateOrderProvider&#45;&gt;OrdersModule -->
<g id="edge20" class="edge">
<title>CreateOrderProvider&#45;&gt;OrdersModule</title>
<path fill="none" stroke="black" d="M3208,-266.2C3208,-290.36 3208,-330 3208,-330 3208,-330 2676.78,-330 2676.78,-330"/>
<polygon fill="black" stroke="black" points="2676.78,-326.5 2666.78,-330 2676.78,-333.5 2676.78,-326.5"/>
</g>
<!-- FindAllOrdersForUserProvider -->
<g id="node19" class="node">
<title>FindAllOrdersForUserProvider</title>
<ellipse fill="#fdb462" stroke="black" cx="2966" cy="-248" rx="132.5" ry="18"/>
<text text-anchor="middle" x="2966" y="-243.8" font-family="Times,serif" font-size="14.00">FindAllOrdersForUserProvider</text>
</g>
<!-- FindAllOrdersForUserProvider&#45;&gt;OrdersModule -->
<g id="edge21" class="edge">
<title>FindAllOrdersForUserProvider&#45;&gt;OrdersModule</title>
<path fill="none" stroke="black" d="M2966,-266.03C2966,-286.77 2966,-318 2966,-318 2966,-318 2676.75,-318 2676.75,-318"/>
<polygon fill="black" stroke="black" points="2676.75,-314.5 2666.75,-318 2676.75,-321.5 2676.75,-314.5"/>
</g>
<!-- FindOrderByIdProvider -->
<g id="node20" class="node">
<title>FindOrderByIdProvider</title>
<ellipse fill="#fdb462" stroke="black" cx="2712" cy="-248" rx="103.65" ry="18"/>
<text text-anchor="middle" x="2712" y="-243.8" font-family="Times,serif" font-size="14.00">FindOrderByIdProvider</text>
</g>
<!-- FindOrderByIdProvider&#45;&gt;OrdersModule -->
<g id="edge22" class="edge">
<title>FindOrderByIdProvider&#45;&gt;OrdersModule</title>
<path fill="none" stroke="black" d="M2637.5,-260.55C2637.5,-260.55 2637.5,-295.74 2637.5,-295.74"/>
<polygon fill="black" stroke="black" points="2634,-295.74 2637.5,-305.74 2641,-295.74 2634,-295.74"/>
</g>
<!-- OrdersService -->
<g id="node21" class="node">
<title>OrdersService</title>
<ellipse fill="#fdb462" stroke="black" cx="2524" cy="-248" rx="66.03" ry="18"/>
<text text-anchor="middle" x="2524" y="-243.8" font-family="Times,serif" font-size="14.00">OrdersService</text>
</g>
<!-- OrdersService&#45;&gt;OrdersModule -->
<g id="edge23" class="edge">
<title>OrdersService&#45;&gt;OrdersModule</title>
<path fill="none" stroke="black" d="M2579.72,-257.94C2579.72,-257.94 2579.72,-295.91 2579.72,-295.91"/>
<polygon fill="black" stroke="black" points="2576.22,-295.91 2579.72,-305.91 2583.22,-295.91 2576.22,-295.91"/>
</g>
<!-- PaginationProvider  -->
<g id="node22" class="node">
<title>PaginationProvider </title>
<polygon fill="#fb8072" stroke="black" points="3299.59,-190 3172.41,-190 3172.41,-154 3299.59,-154 3299.59,-190"/>
<text text-anchor="middle" x="3236" y="-167.8" font-family="Times,serif" font-size="14.00">PaginationProvider </text>
</g>
<!-- PaginationModule -->
<g id="node23" class="node">
<title>PaginationModule</title>
<polygon fill="#8dd3c7" stroke="black" points="1996.93,-122 1993.93,-126 1972.93,-126 1969.93,-122 1877.07,-122 1877.07,-86 1996.93,-86 1996.93,-122"/>
<text text-anchor="middle" x="1937" y="-99.8" font-family="Times,serif" font-size="14.00">PaginationModule</text>
</g>
<!-- PaginationModule&#45;&gt;ProductsModule -->
<g id="edge26" class="edge">
<title>PaginationModule&#45;&gt;ProductsModule</title>
<path fill="none" stroke="black" d="M1937,-122.11C1937,-141.34 1937,-169 1937,-169 1937,-169 1600.08,-169 1600.08,-169"/>
<polygon fill="black" stroke="black" points="1600.08,-165.5 1590.08,-169 1600.08,-172.5 1600.08,-165.5"/>
</g>
<!-- PaginationModule&#45;&gt;PaginationProvider  -->
<g id="edge24" class="edge">
<title>PaginationModule&#45;&gt;PaginationProvider </title>
<path fill="none" stroke="black" stroke-dasharray="5,2" d="M1997.05,-98C2252.52,-98 3236,-98 3236,-98 3236,-98 3236,-143.71 3236,-143.71"/>
<polygon fill="black" stroke="black" points="3232.5,-143.71 3236,-153.71 3239.5,-143.71 3232.5,-143.71"/>
</g>
<!-- PaginationProvider -->
<g id="node24" class="node">
<title>PaginationProvider</title>
<ellipse fill="#fdb462" stroke="black" cx="3062" cy="-172" rx="85.69" ry="18"/>
<text text-anchor="middle" x="3062" y="-167.8" font-family="Times,serif" font-size="14.00">PaginationProvider</text>
</g>
<!-- PaginationProvider&#45;&gt;PaginationModule -->
<g id="edge25" class="edge">
<title>PaginationProvider&#45;&gt;PaginationModule</title>
<path fill="none" stroke="black" d="M3062,-153.73C3062,-135.44 3062,-110 3062,-110 3062,-110 2007.09,-110 2007.09,-110"/>
<polygon fill="black" stroke="black" points="2007.09,-106.5 1997.09,-110 2007.09,-113.5 2007.09,-106.5"/>
</g>
<!-- CreateProductProvider -->
<g id="node26" class="node">
<title>CreateProductProvider</title>
<ellipse fill="#fdb462" stroke="black" cx="1753" cy="-104" rx="99.56" ry="18"/>
<text text-anchor="middle" x="1753" y="-99.8" font-family="Times,serif" font-size="14.00">CreateProductProvider</text>
</g>
<!-- CreateProductProvider&#45;&gt;ProductsModule -->
<g id="edge28" class="edge">
<title>CreateProductProvider&#45;&gt;ProductsModule</title>
<path fill="none" stroke="black" d="M1753,-122.03C1753,-139.06 1753,-162 1753,-162 1753,-162 1600.2,-162 1600.2,-162"/>
<polygon fill="black" stroke="black" points="1600.2,-158.5 1590.2,-162 1600.2,-165.5 1600.2,-158.5"/>
</g>
<!-- DeleteProductProvider -->
<g id="node27" class="node">
<title>DeleteProductProvider</title>
<ellipse fill="#fdb462" stroke="black" cx="1536" cy="-104" rx="99.56" ry="18"/>
<text text-anchor="middle" x="1536" y="-99.8" font-family="Times,serif" font-size="14.00">DeleteProductProvider</text>
</g>
<!-- DeleteProductProvider&#45;&gt;ProductsModule -->
<g id="edge29" class="edge">
<title>DeleteProductProvider&#45;&gt;ProductsModule</title>
<path fill="none" stroke="black" d="M1536,-122.22C1536,-122.22 1536,-143.73 1536,-143.73"/>
<polygon fill="black" stroke="black" points="1532.5,-143.73 1536,-153.73 1539.5,-143.73 1532.5,-143.73"/>
</g>
<!-- FindAllProductsProvider -->
<g id="node28" class="node">
<title>FindAllProductsProvider</title>
<ellipse fill="#fdb462" stroke="black" cx="1310" cy="-104" rx="108.26" ry="18"/>
<text text-anchor="middle" x="1310" y="-99.8" font-family="Times,serif" font-size="14.00">FindAllProductsProvider</text>
</g>
<!-- FindAllProductsProvider&#45;&gt;ProductsModule -->
<g id="edge30" class="edge">
<title>FindAllProductsProvider&#45;&gt;ProductsModule</title>
<path fill="none" stroke="black" d="M1310,-122.03C1310,-139.06 1310,-162 1310,-162 1310,-162 1471.87,-162 1471.87,-162"/>
<polygon fill="black" stroke="black" points="1471.87,-165.5 1481.87,-162 1471.87,-158.5 1471.87,-165.5"/>
</g>
<!-- FindProductByIdProvider -->
<g id="node29" class="node">
<title>FindProductByIdProvider</title>
<ellipse fill="#fdb462" stroke="black" cx="1073" cy="-104" rx="111.2" ry="18"/>
<text text-anchor="middle" x="1073" y="-99.8" font-family="Times,serif" font-size="14.00">FindProductByIdProvider</text>
</g>
<!-- FindProductByIdProvider&#45;&gt;ProductsModule -->
<g id="edge31" class="edge">
<title>FindProductByIdProvider&#45;&gt;ProductsModule</title>
<path fill="none" stroke="black" d="M1073,-122.11C1073,-141.34 1073,-169 1073,-169 1073,-169 1471.53,-169 1471.53,-169"/>
<polygon fill="black" stroke="black" points="1471.53,-172.5 1481.53,-169 1471.53,-165.5 1471.53,-172.5"/>
</g>
<!-- ProductsService -->
<g id="node30" class="node">
<title>ProductsService</title>
<ellipse fill="#fdb462" stroke="black" cx="870" cy="-104" rx="73.57" ry="18"/>
<text text-anchor="middle" x="870" y="-99.8" font-family="Times,serif" font-size="14.00">ProductsService</text>
</g>
<!-- ProductsService&#45;&gt;ProductsModule -->
<g id="edge32" class="edge">
<title>ProductsService&#45;&gt;ProductsModule</title>
<path fill="none" stroke="black" d="M870,-122.17C870,-143.5 870,-176 870,-176 870,-176 1471.78,-176 1471.78,-176"/>
<polygon fill="black" stroke="black" points="1471.78,-179.5 1481.78,-176 1471.78,-172.5 1471.78,-179.5"/>
</g>
<!-- UpdateProductProvider -->
<g id="node31" class="node">
<title>UpdateProductProvider</title>
<ellipse fill="#fdb462" stroke="black" cx="676" cy="-104" rx="102.43" ry="18"/>
<text text-anchor="middle" x="676" y="-99.8" font-family="Times,serif" font-size="14.00">UpdateProductProvider</text>
</g>
<!-- UpdateProductProvider&#45;&gt;ProductsModule -->
<g id="edge33" class="edge">
<title>UpdateProductProvider&#45;&gt;ProductsModule</title>
<path fill="none" stroke="black" d="M676,-122.32C676,-145.66 676,-183 676,-183 676,-183 1471.88,-183 1471.88,-183"/>
<polygon fill="black" stroke="black" points="1471.88,-186.5 1481.88,-183 1471.88,-179.5 1471.88,-186.5"/>
</g>
<!-- CreateUserProvider -->
<g id="node33" class="node">
<title>CreateUserProvider</title>
<ellipse fill="#fdb462" stroke="black" cx="4034" cy="-104" rx="87.94" ry="18"/>
<text text-anchor="middle" x="4034" y="-99.8" font-family="Times,serif" font-size="14.00">CreateUserProvider</text>
</g>
<!-- CreateUserProvider&#45;&gt;UsersModule -->
<g id="edge35" class="edge">
<title>CreateUserProvider&#45;&gt;UsersModule</title>
<path fill="none" stroke="black" d="M4034,-122.29C4034,-144.21 4034,-178 4034,-178 4034,-178 3593.77,-178 3593.77,-178"/>
<polygon fill="black" stroke="black" points="3593.77,-174.5 3583.77,-178 3593.77,-181.5 3593.77,-174.5"/>
</g>
<!-- FindUserByEmailProvider -->
<g id="node34" class="node">
<title>FindUserByEmailProvider</title>
<ellipse fill="#fdb462" stroke="black" cx="3814" cy="-104" rx="114.62" ry="18"/>
<text text-anchor="middle" x="3814" y="-99.8" font-family="Times,serif" font-size="14.00">FindUserByEmailProvider</text>
</g>
<!-- FindUserByEmailProvider&#45;&gt;UsersModule -->
<g id="edge36" class="edge">
<title>FindUserByEmailProvider&#45;&gt;UsersModule</title>
<path fill="none" stroke="black" d="M3814,-122.27C3814,-140.56 3814,-166 3814,-166 3814,-166 3593.89,-166 3593.89,-166"/>
<polygon fill="black" stroke="black" points="3593.89,-162.5 3583.89,-166 3593.89,-169.5 3593.89,-162.5"/>
</g>
<!-- FindUserByIdProvider -->
<g id="node35" class="node">
<title>FindUserByIdProvider</title>
<ellipse fill="#fdb462" stroke="black" cx="3582" cy="-104" rx="99.58" ry="18"/>
<text text-anchor="middle" x="3582" y="-99.8" font-family="Times,serif" font-size="14.00">FindUserByIdProvider</text>
</g>
<!-- FindUserByIdProvider&#45;&gt;UsersModule -->
<g id="edge37" class="edge">
<title>FindUserByIdProvider&#45;&gt;UsersModule</title>
<path fill="none" stroke="black" d="M3538,-120.46C3538,-120.46 3538,-143.78 3538,-143.78"/>
<polygon fill="black" stroke="black" points="3534.5,-143.78 3538,-153.78 3541.5,-143.78 3534.5,-143.78"/>
</g>
<!-- UsersService -->
<g id="node36" class="node">
<title>UsersService</title>
<ellipse fill="#fdb462" stroke="black" cx="3402" cy="-104" rx="61.95" ry="18"/>
<text text-anchor="middle" x="3402" y="-99.8" font-family="Times,serif" font-size="14.00">UsersService</text>
</g>
<!-- UsersService&#45;&gt;UsersModule -->
<g id="edge38" class="edge">
<title>UsersService&#45;&gt;UsersModule</title>
<path fill="none" stroke="black" d="M3422.66,-121.27C3422.66,-139.62 3422.66,-166 3422.66,-166 3422.66,-166 3482.08,-166 3482.08,-166"/>
<polygon fill="black" stroke="black" points="3482.08,-169.5 3492.08,-166 3482.08,-162.5 3482.08,-169.5"/>
</g>
</g>
</svg>
