<?xml version="1.0" encoding="UTF-8" standalone="no"?>
<!DOCTYPE svg PUBLIC "-//W3C//DTD SVG 1.1//EN"
 "http://www.w3.org/Graphics/SVG/1.1/DTD/svg11.dtd">
<!-- Generated by graphviz version 2.47.0 (20210316.0004)
 -->
<!-- Title: dependencies Pages: 1 -->
<svg width="1006pt" height="211pt"
 viewBox="0.00 0.00 1006.00 211.00" xmlns="http://www.w3.org/2000/svg" xmlns:xlink="http://www.w3.org/1999/xlink">
<g id="graph0" class="graph" transform="scale(1 1) rotate(0) translate(4 207)">
<title>dependencies</title>
<polygon fill="white" stroke="transparent" points="-4,4 -4,-207 1002,-207 1002,4 -4,4"/>
<text text-anchor="start" x="478.01" y="-42.4" font-family="Times-12" font-weight="bold" font-size="14.00">Legend</text>
<polygon fill="#ffffb3" stroke="transparent" points="265,-10 265,-30 285,-30 285,-10 265,-10"/>
<text text-anchor="start" x="288.63" y="-15.4" font-family="Times-12" font-size="14.00"> &#160;Declarations</text>
<polygon fill="#8dd3c7" stroke="transparent" points="378,-10 378,-30 398,-30 398,-10 378,-10"/>
<text text-anchor="start" x="401.73" y="-15.4" font-family="Times-12" font-size="14.00"> &#160;Module</text>
<polygon fill="#80b1d3" stroke="transparent" points="464,-10 464,-30 484,-30 484,-10 464,-10"/>
<text text-anchor="start" x="487.78" y="-15.4" font-family="Times-12" font-size="14.00"> &#160;Bootstrap</text>
<polygon fill="#fdb462" stroke="transparent" points="561,-10 561,-30 581,-30 581,-10 561,-10"/>
<text text-anchor="start" x="584.67" y="-15.4" font-family="Times-12" font-size="14.00"> &#160;Providers</text>
<polygon fill="#fb8072" stroke="transparent" points="657,-10 657,-30 677,-30 677,-10 657,-10"/>
<text text-anchor="start" x="680.73" y="-15.4" font-family="Times-12" font-size="14.00"> &#160;Exports</text>
<g id="clust1" class="cluster">
<title>cluster_OrdersModule</title>
<polygon fill="none" stroke="black" stroke-dasharray="1,5" points="8,-70 8,-195 990,-195 990,-70 8,-70"/>
</g>
<g id="clust6" class="cluster">
<title>cluster_OrdersModule_providers</title>
<polygon fill="none" stroke="black" points="124,-78 124,-130 982,-130 982,-78 124,-78"/>
</g>
<g id="clust3" class="cluster">
<title>cluster_OrdersModule_imports</title>
<polygon fill="none" stroke="black" points="16,-78 16,-130 116,-130 116,-78 16,-78"/>
</g>
<!-- CartModule -->
<g id="node1" class="node">
<title>CartModule</title>
<polygon fill="#8dd3c7" stroke="black" points="107.65,-122 104.65,-126 83.65,-126 80.65,-122 24.35,-122 24.35,-86 107.65,-86 107.65,-122"/>
<text text-anchor="middle" x="66" y="-99.8" font-family="Times,serif" font-size="14.00">CartModule</text>
</g>
<!-- OrdersModule -->
<g id="node2" class="node">
<title>OrdersModule</title>
<polygon fill="#8dd3c7" stroke="black" points="434.64,-187 431.64,-191 410.64,-191 407.64,-187 337.36,-187 337.36,-151 434.64,-151 434.64,-187"/>
<text text-anchor="middle" x="386" y="-164.8" font-family="Times,serif" font-size="14.00">OrdersModule</text>
</g>
<!-- CartModule&#45;&gt;OrdersModule -->
<g id="edge1" class="edge">
<title>CartModule&#45;&gt;OrdersModule</title>
<path fill="none" stroke="black" d="M66,-122.28C66,-143.32 66,-175 66,-175 66,-175 327.05,-175 327.05,-175"/>
<polygon fill="black" stroke="black" points="327.05,-178.5 337.05,-175 327.05,-171.5 327.05,-178.5"/>
</g>
<!-- CreateOrderProvider -->
<g id="node3" class="node">
<title>CreateOrderProvider</title>
<ellipse fill="#fdb462" stroke="black" cx="882" cy="-104" rx="92.01" ry="18"/>
<text text-anchor="middle" x="882" y="-99.8" font-family="Times,serif" font-size="14.00">CreateOrderProvider</text>
</g>
<!-- CreateOrderProvider&#45;&gt;OrdersModule -->
<g id="edge2" class="edge">
<title>CreateOrderProvider&#45;&gt;OrdersModule</title>
<path fill="none" stroke="black" d="M882,-122.28C882,-143.32 882,-175 882,-175 882,-175 444.92,-175 444.92,-175"/>
<polygon fill="black" stroke="black" points="444.92,-171.5 434.92,-175 444.92,-178.5 444.92,-171.5"/>
</g>
<!-- FindAllOrdersForUserProvider -->
<g id="node4" class="node">
<title>FindAllOrdersForUserProvider</title>
<ellipse fill="#fdb462" stroke="black" cx="640" cy="-104" rx="132.5" ry="18"/>
<text text-anchor="middle" x="640" y="-99.8" font-family="Times,serif" font-size="14.00">FindAllOrdersForUserProvider</text>
</g>
<!-- FindAllOrdersForUserProvider&#45;&gt;OrdersModule -->
<g id="edge3" class="edge">
<title>FindAllOrdersForUserProvider&#45;&gt;OrdersModule</title>
<path fill="none" stroke="black" d="M640,-122.02C640,-139.37 640,-163 640,-163 640,-163 444.67,-163 444.67,-163"/>
<polygon fill="black" stroke="black" points="444.67,-159.5 434.67,-163 444.67,-166.5 444.67,-159.5"/>
</g>
<!-- FindOrderByIdProvider -->
<g id="node5" class="node">
<title>FindOrderByIdProvider</title>
<ellipse fill="#fdb462" stroke="black" cx="386" cy="-104" rx="103.65" ry="18"/>
<text text-anchor="middle" x="386" y="-99.8" font-family="Times,serif" font-size="14.00">FindOrderByIdProvider</text>
</g>
<!-- FindOrderByIdProvider&#45;&gt;OrdersModule -->
<g id="edge4" class="edge">
<title>FindOrderByIdProvider&#45;&gt;OrdersModule</title>
<path fill="none" stroke="black" d="M386,-122.11C386,-122.11 386,-140.99 386,-140.99"/>
<polygon fill="black" stroke="black" points="382.5,-140.99 386,-150.99 389.5,-140.99 382.5,-140.99"/>
</g>
<!-- OrdersService -->
<g id="node6" class="node">
<title>OrdersService</title>
<ellipse fill="#fdb462" stroke="black" cx="198" cy="-104" rx="66.03" ry="18"/>
<text text-anchor="middle" x="198" y="-99.8" font-family="Times,serif" font-size="14.00">OrdersService</text>
</g>
<!-- OrdersService&#45;&gt;OrdersModule -->
<g id="edge5" class="edge">
<title>OrdersService&#45;&gt;OrdersModule</title>
<path fill="none" stroke="black" d="M198,-122.02C198,-139.37 198,-163 198,-163 198,-163 327.1,-163 327.1,-163"/>
<polygon fill="black" stroke="black" points="327.1,-166.5 337.1,-163 327.1,-159.5 327.1,-166.5"/>
</g>
</g>
</svg>
