<?xml version="1.0" encoding="UTF-8" standalone="no"?>
<!DOCTYPE svg PUBLIC "-//W3C//DTD SVG 1.1//EN"
 "http://www.w3.org/Graphics/SVG/1.1/DTD/svg11.dtd">
<!-- Generated by graphviz version 2.47.0 (20210316.0004)
 -->
<!-- Title: dependencies Pages: 1 -->
<svg width="1081pt" height="284pt"
 viewBox="0.00 0.00 1081.00 284.00" xmlns="http://www.w3.org/2000/svg" xmlns:xlink="http://www.w3.org/1999/xlink">
<g id="graph0" class="graph" transform="scale(1 1) rotate(0) translate(4 280)">
<title>dependencies</title>
<polygon fill="white" stroke="transparent" points="-4,4 -4,-280 1077,-280 1077,4 -4,4"/>
<text text-anchor="start" x="515.51" y="-42.4" font-family="Times-12" font-weight="bold" font-size="14.00">Legend</text>
<polygon fill="#ffffb3" stroke="transparent" points="302.5,-10 302.5,-30 322.5,-30 322.5,-10 302.5,-10"/>
<text text-anchor="start" x="326.13" y="-15.4" font-family="Times-12" font-size="14.00"> &#160;Declarations</text>
<polygon fill="#8dd3c7" stroke="transparent" points="415.5,-10 415.5,-30 435.5,-30 435.5,-10 415.5,-10"/>
<text text-anchor="start" x="439.23" y="-15.4" font-family="Times-12" font-size="14.00"> &#160;Module</text>
<polygon fill="#80b1d3" stroke="transparent" points="501.5,-10 501.5,-30 521.5,-30 521.5,-10 501.5,-10"/>
<text text-anchor="start" x="525.28" y="-15.4" font-family="Times-12" font-size="14.00"> &#160;Bootstrap</text>
<polygon fill="#fdb462" stroke="transparent" points="598.5,-10 598.5,-30 618.5,-30 618.5,-10 598.5,-10"/>
<text text-anchor="start" x="622.17" y="-15.4" font-family="Times-12" font-size="14.00"> &#160;Providers</text>
<polygon fill="#fb8072" stroke="transparent" points="694.5,-10 694.5,-30 714.5,-30 714.5,-10 694.5,-10"/>
<text text-anchor="start" x="718.23" y="-15.4" font-family="Times-12" font-size="14.00"> &#160;Exports</text>
<g id="clust1" class="cluster">
<title>cluster_CartModule</title>
<polygon fill="none" stroke="black" stroke-dasharray="1,5" points="8,-70 8,-268 1065,-268 1065,-70 8,-70"/>
</g>
<g id="clust6" class="cluster">
<title>cluster_CartModule_providers</title>
<polygon fill="none" stroke="black" points="336,-78 336,-130 1057,-130 1057,-78 336,-78"/>
</g>
<g id="clust3" class="cluster">
<title>cluster_CartModule_imports</title>
<polygon fill="none" stroke="black" points="16,-78 16,-130 328,-130 328,-78 16,-78"/>
</g>
<g id="clust4" class="cluster">
<title>cluster_CartModule_exports</title>
<polygon fill="none" stroke="black" points="399,-208 399,-260 501,-260 501,-208 399,-208"/>
</g>
<!-- Product -->
<g id="node1" class="node">
<title>Product</title>
<polygon fill="#8dd3c7" stroke="black" points="319.55,-122 316.55,-126 295.55,-126 292.55,-122 260.45,-122 260.45,-86 319.55,-86 319.55,-122"/>
<text text-anchor="middle" x="290" y="-99.8" font-family="Times,serif" font-size="14.00">Product</text>
</g>
<!-- CartModule -->
<g id="node4" class="node">
<title>CartModule</title>
<polygon fill="#8dd3c7" stroke="black" points="491.65,-187 488.65,-191 467.65,-191 464.65,-187 408.35,-187 408.35,-151 491.65,-151 491.65,-187"/>
<text text-anchor="middle" x="450" y="-164.8" font-family="Times,serif" font-size="14.00">CartModule</text>
</g>
<!-- Product&#45;&gt;CartModule -->
<g id="edge1" class="edge">
<title>Product&#45;&gt;CartModule</title>
<path fill="none" stroke="black" d="M290,-122.03C290,-138.4 290,-160 290,-160 290,-160 397.96,-160 397.96,-160"/>
<polygon fill="black" stroke="black" points="397.96,-163.5 407.96,-160 397.96,-156.5 397.96,-163.5"/>
</g>
<!-- ProductsModule -->
<g id="node2" class="node">
<title>ProductsModule</title>
<polygon fill="#8dd3c7" stroke="black" points="242.04,-122 239.04,-126 218.04,-126 215.04,-122 133.96,-122 133.96,-86 242.04,-86 242.04,-122"/>
<text text-anchor="middle" x="188" y="-99.8" font-family="Times,serif" font-size="14.00">ProductsModule</text>
</g>
<!-- ProductsModule&#45;&gt;CartModule -->
<g id="edge2" class="edge">
<title>ProductsModule&#45;&gt;CartModule</title>
<path fill="none" stroke="black" d="M188,-122.11C188,-141.34 188,-169 188,-169 188,-169 398.2,-169 398.2,-169"/>
<polygon fill="black" stroke="black" points="398.2,-172.5 408.2,-169 398.2,-165.5 398.2,-172.5"/>
</g>
<!-- UsersModule -->
<g id="node3" class="node">
<title>UsersModule</title>
<polygon fill="#8dd3c7" stroke="black" points="115.92,-122 112.92,-126 91.92,-126 88.92,-122 24.08,-122 24.08,-86 115.92,-86 115.92,-122"/>
<text text-anchor="middle" x="70" y="-99.8" font-family="Times,serif" font-size="14.00">UsersModule</text>
</g>
<!-- UsersModule&#45;&gt;CartModule -->
<g id="edge3" class="edge">
<title>UsersModule&#45;&gt;CartModule</title>
<path fill="none" stroke="black" d="M70,-122.29C70,-144.21 70,-178 70,-178 70,-178 398.25,-178 398.25,-178"/>
<polygon fill="black" stroke="black" points="398.25,-181.5 408.25,-178 398.25,-174.5 398.25,-181.5"/>
</g>
<!-- CartService  -->
<g id="node5" class="node">
<title>CartService </title>
<polygon fill="#fb8072" stroke="black" points="492.58,-252 407.42,-252 407.42,-216 492.58,-216 492.58,-252"/>
<text text-anchor="middle" x="450" y="-229.8" font-family="Times,serif" font-size="14.00">CartService </text>
</g>
<!-- CartModule&#45;&gt;CartService  -->
<g id="edge4" class="edge">
<title>CartModule&#45;&gt;CartService </title>
<path fill="none" stroke="black" stroke-dasharray="5,2" d="M450,-187.11C450,-187.11 450,-205.99 450,-205.99"/>
<polygon fill="black" stroke="black" points="446.5,-205.99 450,-215.99 453.5,-205.99 446.5,-205.99"/>
</g>
<!-- AddToCartProvider -->
<g id="node6" class="node">
<title>AddToCartProvider</title>
<ellipse fill="#fdb462" stroke="black" cx="961" cy="-104" rx="88.04" ry="18"/>
<text text-anchor="middle" x="961" y="-99.8" font-family="Times,serif" font-size="14.00">AddToCartProvider</text>
</g>
<!-- AddToCartProvider&#45;&gt;CartModule -->
<g id="edge5" class="edge">
<title>AddToCartProvider&#45;&gt;CartModule</title>
<path fill="none" stroke="black" d="M961,-122.29C961,-144.21 961,-178 961,-178 961,-178 501.82,-178 501.82,-178"/>
<polygon fill="black" stroke="black" points="501.82,-174.5 491.82,-178 501.82,-181.5 501.82,-174.5"/>
</g>
<!-- CartService -->
<g id="node7" class="node">
<title>CartService</title>
<ellipse fill="#fdb462" stroke="black" cx="798" cy="-104" rx="56.73" ry="18"/>
<text text-anchor="middle" x="798" y="-99.8" font-family="Times,serif" font-size="14.00">CartService</text>
</g>
<!-- CartService&#45;&gt;CartModule -->
<g id="edge6" class="edge">
<title>CartService&#45;&gt;CartModule</title>
<path fill="none" stroke="black" d="M798,-122.11C798,-141.34 798,-169 798,-169 798,-169 501.98,-169 501.98,-169"/>
<polygon fill="black" stroke="black" points="501.98,-165.5 491.98,-169 501.98,-172.5 501.98,-165.5"/>
</g>
<!-- GetCartProvider -->
<g id="node8" class="node">
<title>GetCartProvider</title>
<ellipse fill="#fdb462" stroke="black" cx="649" cy="-104" rx="74.71" ry="18"/>
<text text-anchor="middle" x="649" y="-99.8" font-family="Times,serif" font-size="14.00">GetCartProvider</text>
</g>
<!-- GetCartProvider&#45;&gt;CartModule -->
<g id="edge7" class="edge">
<title>GetCartProvider&#45;&gt;CartModule</title>
<path fill="none" stroke="black" d="M649,-122.03C649,-138.4 649,-160 649,-160 649,-160 501.72,-160 501.72,-160"/>
<polygon fill="black" stroke="black" points="501.72,-156.5 491.72,-160 501.72,-163.5 501.72,-156.5"/>
</g>
<!-- UpdateCartItemProvider -->
<g id="node9" class="node">
<title>UpdateCartItemProvider</title>
<ellipse fill="#fdb462" stroke="black" cx="450" cy="-104" rx="106.5" ry="18"/>
<text text-anchor="middle" x="450" y="-99.8" font-family="Times,serif" font-size="14.00">UpdateCartItemProvider</text>
</g>
<!-- UpdateCartItemProvider&#45;&gt;CartModule -->
<g id="edge8" class="edge">
<title>UpdateCartItemProvider&#45;&gt;CartModule</title>
<path fill="none" stroke="black" d="M450,-122.11C450,-122.11 450,-140.99 450,-140.99"/>
<polygon fill="black" stroke="black" points="446.5,-140.99 450,-150.99 453.5,-140.99 446.5,-140.99"/>
</g>
</g>
</svg>
